<?xml version="1.0" encoding="UTF-8" standalone="no"?>
<!-- Created with Inkscape (http://www.inkscape.org/) -->

<svg
   width="10"
   height="16.712"
   viewBox="0 0 2.6458333 4.4217166"
   version="1.1"
   id="svg5"
   xml:space="preserve"
   inkscape:version="1.2.2 (732a01da63, 2022-12-09)"
   sodipodi:docname="posterior.svg"
   xmlns:inkscape="http://www.inkscape.org/namespaces/inkscape"
   xmlns:sodipodi="http://sodipodi.sourceforge.net/DTD/sodipodi-0.dtd"
   xmlns="http://www.w3.org/2000/svg"
   xmlns:svg="http://www.w3.org/2000/svg"><sodipodi:namedview
     id="namedview7"
     pagecolor="#ffffff"
     bordercolor="#666666"
     borderopacity="1.0"
     inkscape:showpageshadow="2"
     inkscape:pageopacity="0.0"
     inkscape:pagecheckerboard="0"
     inkscape:deskcolor="#d1d1d1"
     inkscape:document-units="mm"
     showgrid="false"
     inkscape:zoom="11.325"
     inkscape:cx="8.7858717"
     inkscape:cy="10.022075"
     inkscape:window-width="1260"
     inkscape:window-height="778"
     inkscape:window-x="-6"
     inkscape:window-y="-6"
     inkscape:window-maximized="1"
     inkscape:current-layer="layer1" /><defs
     id="defs2" /><g
     inkscape:label="Capa 1"
     inkscape:groupmode="layer"
     id="layer1"><path
       style="fill:#606060;fill-opacity:1;stroke-width:0.00864663"
       d="m 0.50351505,4.4152545 c 0.02252,-0.0038 0.06921,-0.01958 0.10376,-0.03507 0.06163,-0.02764 0.0797,-0.04498 0.96298395,-0.92376 0.495097,-0.492573 0.921436,-0.915042 0.94742,-0.93882 0.08514,-0.07791 0.128156,-0.181905 0.128156,-0.309843 0,-0.129517 -0.04304,-0.23443 -0.128281,-0.312714 -0.02589,-0.02378 -0.45022,-0.444287 -0.942951,-0.93446505 -0.86918895,-0.864686 -0.89768495,-0.892045 -0.95671695,-0.918531 -0.08372,-0.03756 -0.171661,-0.05038 -0.252153,-0.03676 -0.07626,0.01291 -0.166126,0.05515 -0.22103,0.103903 -0.04828,0.04288 -0.102179,0.131443 -0.122036,0.200534 -0.02978,0.10362 -0.01291,0.237002 0.04217,0.333416 0.01546,0.02706 0.28665,0.304766 0.783498,0.80232505 L 1.608192,2.2064145 0.85110205,2.9629515 c -0.804651,0.804063 -0.804263,0.803637 -0.837082,0.917829 C 0.00632005,3.9076705 -1.995281e-5,3.9582505 4.718928e-8,3.9931865 1.4404719e-4,4.2624315 0.23616205,4.4602755 0.50351105,4.4152575 Z"
       id="path302-9" /></g></svg>
