<?xml version="1.0" encoding="UTF-8" standalone="no"?>
<!-- Created with Inkscape (http://www.inkscape.org/) -->

<svg
   width="100"
   height="100"
   viewBox="0 0 26.458333 26.458333"
   version="1.1"
   id="svg5"
   xml:space="preserve"
   inkscape:version="1.2.2 (732a01da63, 2022-12-09)"
   sodipodi:docname="whatsapp.svg"
   xmlns:inkscape="http://www.inkscape.org/namespaces/inkscape"
   xmlns:sodipodi="http://sodipodi.sourceforge.net/DTD/sodipodi-0.dtd"
   xmlns="http://www.w3.org/2000/svg"
   xmlns:svg="http://www.w3.org/2000/svg"><sodipodi:namedview
     id="namedview7"
     pagecolor="#ffffff"
     bordercolor="#666666"
     borderopacity="1.0"
     inkscape:showpageshadow="2"
     inkscape:pageopacity="0.0"
     inkscape:pagecheckerboard="0"
     inkscape:deskcolor="#d1d1d1"
     inkscape:document-units="mm"
     showgrid="false"
     inkscape:zoom="0.78239463"
     inkscape:cx="-200.666"
     inkscape:cy="335.50844"
     inkscape:window-width="1260"
     inkscape:window-height="778"
     inkscape:window-x="-6"
     inkscape:window-y="-6"
     inkscape:window-maximized="1"
     inkscape:current-layer="layer1" /><defs
     id="defs2" /><g
     inkscape:label="Capa 1"
     inkscape:groupmode="layer"
     id="layer1"><g
       id="g194"
       transform="matrix(0.99047834,0,0,0.99047834,-0.02480561,0.12366667)"
       style="fill:#3ace3a;fill-opacity:1"><path
         style="fill:#3ace3a;fill-opacity:1;stroke-width:0.0516764"
         d="M 0.36742313,26.386219 C 0.2265065,26.308115 0.10787473,26.118957 0.10518404,25.96808 0.10417689,25.911605 0.50018571,24.447775 0.98520366,22.715124 L 1.8670544,19.564849 1.5074469,18.812881 C 0.9292217,17.603767 0.58904396,16.529441 0.35142496,15.162014 0.25071251,14.582443 0.23555907,14.312761 0.23555907,13.099976 c 0,-1.502851 0.0618488,-2.058627 0.35996956,-3.2347071 C 0.92270737,8.5745564 1.5788251,7.0824717 2.3006617,5.9876063 2.7760453,5.2665552 2.943545,5.1604101 3.3083261,5.3490457 3.6715735,5.536888 3.6535321,5.7881228 3.2293715,6.448527 2.2689456,7.9438771 1.7006612,9.3926011 1.3871477,11.144895 1.284245,11.720041 1.268496,11.979544 1.268496,13.099976 c 0,1.120432 0.015749,1.379935 0.1186517,1.955081 0.2444278,1.366159 0.6168384,2.472999 1.2262194,3.64444 0.1827043,0.351221 0.3321896,0.690289 0.3321896,0.753484 0,0.0632 -0.3503196,1.365317 -0.7784881,2.893604 -0.4281685,1.528288 -0.7656259,2.791566 -0.7499054,2.807286 0.015721,0.01572 1.3415905,-0.326862 2.9463777,-0.761294 l 2.9177952,-0.789878 0.7130712,0.336532 c 1.1199735,0.528568 1.8446384,0.774002 2.9351587,0.994098 3.945471,0.796303 8.032478,-0.442118 10.890264,-3.299904 1.852262,-1.852261 3.025988,-4.195927 3.43252,-6.853965 0.125721,-0.822005 0.1256,-2.538354 -2.58e-4,-3.358968 C 24.854493,8.82754 23.746718,6.5759962 21.962761,4.7349177 20.065522,2.7769294 17.71232,1.5657435 15.012004,1.1573844 14.153734,1.0275912 12.405705,1.0273528 11.575521,1.1569141 9.6983189,1.4498801 7.8532676,2.1729918 6.4640609,3.1601954 6.1030984,3.4167037 5.8518972,3.4310537 5.6287563,3.2079125 5.4378129,3.0169691 5.419922,2.7170047 5.5886735,2.5358713 5.866686,2.2374596 7.1888234,1.4675342 8.0755843,1.0876591 9.6682633,0.40538022 11.136506,0.07745536 12.867432,0.01742486 c 2.387163,-0.08278957 4.53921,0.42288334 6.685562,1.57092654 1.104905,0.5909928 2.042927,1.2959248 3.006157,2.2591553 2.052459,2.0524594 3.278468,4.5040824 3.72753,7.4538613 0.122143,0.80233 0.122873,2.773077 0.0013,3.607283 -0.204136,1.401145 -0.615115,2.73193 -1.230661,3.984987 -1.844044,3.753899 -5.36318,6.382813 -9.554423,7.137482 -0.680825,0.122589 -0.87683,0.135289 -2.144572,0.138957 -1.485819,0.0043 -1.905934,-0.03792 -3.048909,-0.306426 C 9.3696955,25.64289 8.3052359,25.265173 7.5475493,24.883608 l -0.35446,-0.178503 -1.1289952,0.304269 C 5.443147,25.176722 4.1909588,25.51492 3.2814535,25.760926 2.3719483,26.006931 1.4185181,26.264428 1.1627198,26.333141 0.63297921,26.47544 0.5396371,26.48167 0.36742313,26.386219 Z M 12.195638,24.097075 C 10.761416,23.944202 9.2166108,23.461017 7.9611758,22.772618 L 7.4493057,22.491941 5.5720853,23.00115 C 4.5396141,23.281215 3.6360897,23.510902 3.5642531,23.511568 3.3851491,23.513226 3.206908,23.377476 3.1222942,23.174966 3.0554822,23.015063 3.0805949,22.901971 3.575958,21.131949 L 4.1003489,19.258206 4.0071644,19.098809 C 3.2931402,17.877436 2.8914931,16.943675 2.6160338,15.864665 1.3297312,10.826052 3.6856645,5.6120069 8.3094129,3.264337 13.33035,0.71499741 19.416985,2.3462053 22.545825,7.0796714 c 2.1184,3.2048206 2.3712,7.3961236 0.656105,10.8778896 -0.465181,0.94435 -0.736309,1.358802 -0.946309,1.446545 -0.222347,0.0929 -0.423573,0.04454 -0.577923,-0.138894 -0.192743,-0.229061 -0.167986,-0.420455 0.112505,-0.869738 0.358452,-0.574162 0.761854,-1.443822 0.994164,-2.143236 C 24.15086,12.138145 22.707653,7.6210151 19.202642,5.0417074 17.768112,3.9860498 16.07134,3.3369299 14.27014,3.1547222 11.644691,2.8891343 8.9464371,3.7235558 6.8988039,5.4342715 3.4143764,8.3453704 2.3284911,13.211761 4.2400717,17.34937 c 0.1098584,0.237788 0.3635041,0.709083 0.5636571,1.047322 0.2179622,0.368334 0.3638916,0.673028 0.3638573,0.759717 -3.15e-5,0.07961 -0.1856003,0.806018 -0.4123751,1.614247 -0.2267747,0.80823 -0.4069706,1.472798 -0.400435,1.476817 0.00654,0.004 0.6746329,-0.174627 1.484661,-0.396993 0.8100281,-0.222366 1.557492,-0.407111 1.661031,-0.410546 0.1403335,-0.0047 0.3212744,0.06841 0.7108419,0.287064 1.7838617,1.001209 3.4778661,1.424475 5.4312681,1.357063 1.828155,-0.06309 3.428487,-0.548492 4.968943,-1.507145 0.405237,-0.252187 0.532859,-0.278187 0.768176,-0.156499 0.184518,0.09542 0.257348,0.222672 0.257348,0.449657 0,0.249629 -0.103135,0.364186 -0.595773,0.661753 -1.365323,0.824694 -2.974109,1.372601 -4.546032,1.54825 -0.43668,0.0488 -1.899826,0.05961 -2.299602,0.017 z m 8.336169,-3.088727 c -0.23981,-0.1043 -0.354095,-0.351352 -0.278797,-0.602677 0.07291,-0.243351 0.225555,-0.355215 0.484713,-0.355215 0.151247,0 0.235535,0.03635 0.350237,0.151055 0.271337,0.271337 0.17329,0.694636 -0.193169,0.833963 -0.158736,0.06035 -0.162501,0.06007 -0.362984,-0.02713 z M 15.78715,19.613267 C 14.359854,19.352351 12.368612,18.431607 10.993608,17.396749 9.026825,15.916505 7.1392967,13.436931 6.5819798,11.601359 6.4574432,11.191188 6.440622,11.050845 6.4395213,10.412801 6.4381932,9.6444193 6.4926592,9.3402151 6.7481743,8.6888352 7.0304455,7.9692481 7.5307943,7.402013 8.1565819,7.0921538 8.4845547,6.9297576 8.5967406,6.901443 8.98592,6.8828359 c 0.5690862,-0.027208 0.9707686,0.055066 1.247478,0.2555136 0.240931,0.1745294 0.289665,0.2691081 1.061487,2.0600557 0.428137,0.9934578 0.456629,1.0818728 0.457947,1.4211018 0.0019,0.494194 -0.04735,0.578021 -0.918212,1.562157 l -0.101955,0.115217 0.196708,0.298194 c 0.480108,0.727805 1.243885,1.524914 1.994229,2.081261 0.750797,0.556682 1.626933,1.0333 1.899449,1.0333 0.05594,0 0.264736,-0.228105 0.537743,-0.587457 0.61025,-0.803261 1.007892,-1.044591 1.55276,-0.942373 0.257168,0.04825 2.727318,1.25632 2.896172,1.416429 0.306785,0.290899 0.370508,0.492345 0.364095,1.150999 -0.004,0.414912 -0.03355,0.684234 -0.09626,0.878499 -0.331773,1.027778 -1.176248,1.735525 -2.363391,1.980736 -0.475347,0.09819 -1.409078,0.10148 -1.927019,0.0068 z m 1.85228,-1.059363 c 0.217819,-0.05571 0.49858,-0.161384 0.623914,-0.234835 0.292588,-0.171468 0.633752,-0.542134 0.752448,-0.817518 0.101696,-0.235942 0.182297,-1.004714 0.11592,-1.105657 -0.0228,-0.03468 -0.575242,-0.32165 -1.227643,-0.637717 -0.865341,-0.41923 -1.207227,-0.561571 -1.263978,-0.526247 -0.04279,0.02663 -0.178526,0.174078 -0.301643,0.327659 -0.123118,0.15358 -0.349131,0.435199 -0.502251,0.625818 -0.35264,0.438999 -0.480766,0.521042 -0.856106,0.548191 -0.395408,0.0286 -0.69392,-0.04984 -1.245939,-0.327403 -1.22622,-0.61656 -2.601239,-1.775946 -3.419551,-2.88329 -0.4341842,-0.58754 -0.5994315,-0.92546 -0.5994315,-1.225797 0,-0.409438 0.00922,-0.425383 0.7146305,-1.236264 0.277266,-0.31872 0.321935,-0.396667 0.293412,-0.511999 -0.0679,-0.274542 -1.0669929,-2.5151868 -1.1494122,-2.5777551 -0.047345,-0.035942 -0.2304696,-0.064596 -0.4128275,-0.064596 -0.9852034,0 -1.692551,1.0496259 -1.6890111,2.5063071 0.00158,0.649266 0.1270842,1.117619 0.4985272,1.860352 0.6993149,1.398344 2.2226626,3.216639 3.5037406,4.18213 1.325473,0.998949 3.055137,1.837015 4.364598,2.114758 0.534238,0.113314 1.32206,0.106254 1.800603,-0.01614 z M 4.0562864,4.5862027 C 3.966272,4.5087757 3.9114957,4.398854 3.8925543,4.257636 3.8678626,4.0735453 3.884706,4.0223493 4.0196525,3.871318 4.1495834,3.7259 4.2110147,3.697214 4.3924969,3.697214 c 0.1798107,0 0.2431062,0.028902 0.3670234,0.1675892 C 4.9644979,4.094213 4.964017,4.3456913 4.7582072,4.5515013 4.564118,4.7455905 4.2591158,4.7606691 4.0562865,4.5862027 Z"
         id="path198" /><path
         style="fill:#3ace3a;fill-opacity:1;stroke-width:0.0516764"
         d="M 0.4650879,26.421839 C 0.32392638,26.370236 0.16081192,26.188965 0.13171003,26.051352 0.11291992,25.9625 0.41115017,24.818834 0.99652922,22.734907 L 1.8900289,19.554083 1.5147532,18.78166 C 0.91619097,17.549651 0.51370428,16.197488 0.30037947,14.701945 0.21491479,14.102783 0.21553496,12.108985 0.30137605,11.498006 0.515309,9.9753263 0.91424437,8.6524607 1.5480971,7.3638918 1.9430587,6.5609682 2.5720863,5.5304357 2.7617785,5.3755237 2.9198201,5.2464592 3.2349602,5.2785281 3.3965511,5.4401192 3.6297151,5.6732833 3.5920835,5.8808856 3.2127439,6.4541282 1.7673663,8.6383226 1.0799934,11.231171 1.2453881,13.875218 c 0.1082394,1.730346 0.5572981,3.31566 1.3970563,4.932035 l 0.322697,0.62113 -0.806546,2.881864 c -0.4436003,1.585025 -0.8009095,2.8875 -0.7940204,2.894389 0.00689,0.0069 1.3014177,-0.335899 2.8767301,-0.761752 1.5753126,-0.425853 2.9247533,-0.774458 2.9987575,-0.774678 0.074004,-2.07e-4 0.4046022,0.127964 0.7346627,0.284854 1.3000509,0.617959 2.3793157,0.944045 3.7530547,1.133935 0.683462,0.09447 2.277424,0.109246 2.948327,0.02732 1.459152,-0.178174 2.75643,-0.571575 4.0566,-1.23017 3.457568,-1.751415 5.839427,-4.988194 6.490746,-8.820469 0.135194,-0.795463 0.184063,-2.26651 0.103004,-3.100586 C 24.837506,6.9319486 21.275199,2.7338596 16.381429,1.4216061 15.139923,1.0886991 13.362833,0.9476041 12.08998,1.0808796 10.113351,1.2878444 8.3035993,1.9372803 6.5972497,3.0519651 6.0699976,3.3963964 5.8808794,3.4348701 5.6597064,3.2426962 5.4832453,3.0893718 5.4326613,2.7894501 5.5524333,2.606655 5.6590129,2.4439945 6.4832814,1.9022673 7.2004149,1.523566 10.796884,-0.37564431 15.153009,-0.48174721 18.839566,1.2400691 21.75236,2.600497 24.14375,5.088068 25.369052,8.0321688 c 0.456837,1.097668 0.788561,2.3597202 0.938145,3.5691902 0.08218,0.664497 0.08227,2.331683 1.56e-4,2.997233 -0.372292,3.017469 -1.643328,5.64453 -3.750426,7.751629 -2.07301,2.07301 -4.706584,3.361986 -7.674114,3.75602 -0.817625,0.108566 -2.632345,0.08156 -3.488159,-0.0519 -1.318179,-0.205572 -2.5033024,-0.5611 -3.6031836,-1.080928 L 7.1855192,24.687027 3.9085522,25.57268 c -1.8023325,0.48711 -3.29698869,0.883818 -3.32145867,0.881574 -0.02447,-0.0022 -0.0793726,-0.01683 -0.12200563,-0.03242 z M 12.195638,24.078859 C 10.756659,23.922664 9.3826978,23.499725 8.0750665,22.810449 L 7.4426539,22.477092 5.5190757,22.995336 C 3.8193719,23.453265 3.575738,23.507059 3.4257168,23.457548 3.2178406,23.388942 3.100089,23.230924 3.1021047,23.023272 3.1029398,22.937224 3.3326358,22.052918 3.6125399,21.058147 L 4.1214565,19.249472 3.9969419,19.042766 C 3.0458806,17.463916 2.552188,16.049232 2.3504658,14.324762 2.0758322,11.976991 2.6016893,9.5240964 3.8155201,7.4909223 4.3087574,6.6647468 4.7635012,6.0855233 5.5018431,5.3429929 7.248304,3.5866236 9.2450861,2.5805078 11.756389,2.1915228 c 0.771414,-0.1194872 2.326227,-0.1197519 3.100586,-5.281e-4 2.449967,0.377209 4.514034,1.4141269 6.229297,3.1293906 0.918504,0.9185031 1.530568,1.7725125 2.094188,2.9220057 0.792144,1.615566 1.117637,3.026979 1.120231,4.857585 0.002,1.404202 -0.206823,2.61226 -0.662205,3.831098 -0.371173,0.99345 -1.113487,2.334932 -1.352238,2.443714 -0.321547,0.146507 -0.666309,-0.02578 -0.716115,-0.357861 -0.023,-0.153383 0.01775,-0.255469 0.268179,-0.671793 0.979975,-1.629143 1.46776,-3.366656 1.46776,-5.228237 0,-2.999138 -1.307501,-5.7853412 -3.620887,-7.7158891 C 15.736705,2.1059558 9.88631,2.3748737 6.2377569,6.0191294 4.1628044,8.0916376 3.1097053,10.900473 3.3129821,13.820115 c 0.1145557,1.645351 0.5734318,3.040231 1.5495097,4.710162 0.1678334,0.287139 0.3051516,0.563784 0.3051516,0.614768 0,0.05098 -0.1885087,0.765302 -0.4189083,1.587375 -0.2303996,0.822073 -0.4098345,1.503752 -0.3987442,1.514842 0.01109,0.01109 0.7044833,-0.164719 1.5408734,-0.390689 0.8363904,-0.225969 1.5762904,-0.410853 1.6442222,-0.410853 0.067932,0 0.3711381,0.133544 0.6737909,0.296764 1.8358726,0.990082 3.2217916,1.359753 5.0978046,1.359753 1.933523,0 3.560546,-0.454786 5.242949,-1.465512 0.530623,-0.318779 0.724142,-0.337564 0.943888,-0.09163 0.26844,0.300437 0.175671,0.562536 -0.312594,0.883159 -1.124901,0.738675 -2.762409,1.349594 -4.231854,1.578813 -0.61848,0.09648 -2.156548,0.136577 -2.753433,0.07179 z m 8.200383,-3.191488 c -0.422725,-0.44123 0.199868,-1.11845 0.662439,-0.720562 0.09104,0.07831 0.144787,0.187316 0.164381,0.333402 0.02581,0.192405 0.01123,0.234936 -0.128411,0.374574 -0.21494,0.214939 -0.499627,0.22007 -0.698409,0.01259 z m -4.272974,-1.23035 C 15.028779,19.448926 14.563172,19.307285 13.644439,18.90301 11.591163,17.999496 9.999301,16.77277 8.5627819,14.986966 7.0409146,13.095061 6.3167474,11.445716 6.4296423,10.128581 6.478738,9.5557875 6.648337,8.9183246 6.8812375,8.431191 7.1400512,7.8898592 7.6710271,7.3283493 8.1390383,7.1010603 8.4212433,6.9640071 8.50659,6.948928 9.089093,6.9331987 c 1.157772,-0.031263 1.220698,0.027044 2.026352,1.8776332 0.548935,1.2609031 0.586186,1.3679991 0.605317,1.7402701 0.01814,0.352927 0.0053,0.424382 -0.11629,0.647801 -0.07517,0.138114 -0.298472,0.428446 -0.496225,0.645182 -0.197751,0.216735 -0.359549,0.421394 -0.359549,0.454797 0,0.0334 0.121376,0.238942 0.269725,0.456752 0.362434,0.532136 1.499969,1.659561 2.107391,2.088661 0.516675,0.364994 1.435931,0.853056 1.651871,0.877032 0.106284,0.0118 0.187706,-0.06469 0.490927,-0.461211 0.671247,-0.877783 0.922348,-1.065744 1.422876,-1.065092 0.349953,4.65e-4 0.679354,0.135474 2.092167,0.857559 0.987948,0.504938 1.039564,0.538895 1.188558,0.781928 0.144959,0.236452 0.156958,0.2945 0.173063,0.837268 0.02754,0.928276 -0.171871,1.451917 -0.786821,2.066099 -0.404218,0.403714 -0.874572,0.66443 -1.478409,0.819479 -0.327828,0.08418 -1.491373,0.150178 -1.756999,0.09966 z m 1.510743,-1.082309 c 0.63551,-0.154411 1.139722,-0.530614 1.381225,-1.030563 0.102361,-0.211902 0.125379,-0.341788 0.127958,-0.722038 l 0.0031,-0.463657 -1.16272,-0.578935 c -0.639496,-0.318414 -1.213112,-0.58067 -1.274703,-0.582791 -0.08417,-0.0029 -0.240868,0.161574 -0.631015,0.662349 -0.678328,0.870669 -0.911324,0.991041 -1.598315,0.825734 -0.591886,-0.142423 -1.713197,-0.802388 -2.610044,-1.536182 -0.978332,-0.800466 -2.0407646,-2.15807 -2.130663,-2.722618 -0.059721,-0.37504 0.044302,-0.596763 0.549856,-1.172008 0.415212,-0.472447 0.464069,-0.548873 0.44212,-0.691579 C 10.698993,10.356708 9.6741513,7.9970526 9.5944125,7.9463209 9.5613515,7.9252865 9.3647811,7.9077206 9.1575891,7.9072855 8.8791316,7.9067016 8.7269435,7.9340089 8.574097,8.0119856 7.6112565,8.5031897 7.1659617,10.200825 7.6461474,11.549683 c 0.2970103,0.834311 0.852856,1.75556 1.6836947,2.790527 1.1766929,1.465793 2.3830229,2.459593 4.0048559,3.299284 1.775264,0.919128 3.141807,1.216404 4.299092,0.935218 z M 4.1113863,4.5924163 C 3.9182227,4.4404738 3.8590908,4.2636061 3.9298127,4.0493167 4.0030752,3.8273291 4.1576962,3.7207032 4.4063441,3.7207032 c 0.4939607,0 0.6743535,0.6820698 0.2398223,0.9067746 -0.2025526,0.104744 -0.371094,0.093694 -0.5347801,-0.035062 z"
         id="path196" /></g></g></svg>
