<?xml version="1.0" encoding="UTF-8" standalone="no"?>
<!-- Created with Inkscape (http://www.inkscape.org/) -->

<svg
   width="100"
   height="100"
   viewBox="0 0 26.458333 26.458333"
   version="1.1"
   id="svg5"
   xml:space="preserve"
   inkscape:version="1.2.2 (732a01da63, 2022-12-09)"
   sodipodi:docname="comunicacion.svg"
   xmlns:inkscape="http://www.inkscape.org/namespaces/inkscape"
   xmlns:sodipodi="http://sodipodi.sourceforge.net/DTD/sodipodi-0.dtd"
   xmlns="http://www.w3.org/2000/svg"
   xmlns:svg="http://www.w3.org/2000/svg"><sodipodi:namedview
     id="namedview7"
     pagecolor="#ffffff"
     bordercolor="#666666"
     borderopacity="1.0"
     inkscape:showpageshadow="2"
     inkscape:pageopacity="0.0"
     inkscape:pagecheckerboard="0"
     inkscape:deskcolor="#d1d1d1"
     inkscape:document-units="mm"
     showgrid="false"
     inkscape:zoom="1.1822589"
     inkscape:cx="-224.99302"
     inkscape:cy="102.76937"
     inkscape:window-width="1260"
     inkscape:window-height="778"
     inkscape:window-x="-6"
     inkscape:window-y="-6"
     inkscape:window-maximized="1"
     inkscape:current-layer="layer1" /><defs
     id="defs2" /><g
     inkscape:label="Capa 1"
     inkscape:groupmode="layer"
     id="layer1"><path
       style="fill:#ffffff;stroke-width:0.3;stroke:#ffffff;stroke-dasharray:none;stroke-opacity:1"
       d="m 18.027419,26.355134 c -1.377847,-0.241147 -2.682073,-0.907592 -3.72229,-1.902047 -0.655663,-0.62682 -1.088859,-1.215372 -1.490198,-2.024631 -0.578018,-1.165512 -0.775757,-2.087753 -0.731282,-3.410645 0.01529,-0.454752 0.04461,-0.883067 0.06516,-0.951811 0.03243,-0.108487 0.02433,-0.119748 -0.06137,-0.08529 -0.251489,0.101101 -1.282006,0.334939 -1.700707,0.385914 -0.6645531,0.0809 -1.8078101,0.07015 -2.4479929,-0.02303 C 7.2290403,18.240293 6.5953405,18.072178 5.8141619,17.77996 5.4687505,17.65075 5.1237931,17.545077 5.0475902,17.545132 c -0.0762,5.1e-5 -0.8327705,0.139581 -1.681263,0.310058 -0.8484914,0.170478 -1.650767,0.30894 -1.7828338,0.307692 C 1.1019633,18.158382 0.70079098,17.91765 0.47099439,17.495437 0.23635781,17.064331 0.2444798,16.908654 0.59095318,15.196194 c 0.17224369,-0.851319 0.31317044,-1.646142 0.31317044,-1.766273 0,-0.132408 -0.0819998,-0.428443 -0.20823863,-0.751748 C -0.12361554,10.579319 -0.18562543,8.3931733 0.51495531,6.2995166 0.86681769,5.2479879 1.5875244,3.9894442 2.2548902,3.261131 2.6110736,2.8724185 2.7767773,2.8248566 2.9993639,3.047444 3.2049545,3.2530352 3.1674566,3.3795606 2.7612833,3.8507777 2.1597284,4.5486623 1.5251865,5.6940925 1.2181661,6.6363027 0.61028614,8.5018116 0.68277001,10.521971 1.4250827,12.403228 c 0.3305454,0.837706 0.3284034,0.952252 -0.05309,2.839765 -0.1720637,0.851319 -0.3128424,1.603598 -0.3128424,1.671732 0,0.19322 0.3127254,0.475279 0.526954,0.475279 0.09656,0 0.8720885,-0.141016 1.7234059,-0.313368 1.8449127,-0.37351 1.8931107,-0.374001 2.7701381,-0.02823 1.1815509,0.465828 2.1132852,0.625287 3.4261619,0.586361 0.9787548,-0.02902 1.5737538,-0.131744 2.3953228,-0.413547 l 0.487194,-0.167111 0.115972,-0.310059 c 0.60247,-1.610749 1.872625,-3.053412 3.38431,-3.843953 0.277445,-0.145091 0.652928,-0.319342 0.834407,-0.387225 l 0.329962,-0.123422 0.165112,-0.484036 c 0.271569,-0.79612 0.380971,-1.423451 0.413351,-2.3702287 C 17.66402,8.5824868 17.612221,8.0421518 17.409313,7.2181034 16.617276,4.0015274 13.975402,1.5391474 10.654739,0.92244934 9.9082726,0.78381894 8.4359182,0.79574794 7.6863625,0.94649934 6.5779085,1.1694319 5.5050814,1.6051788 4.616417,2.1934089 4.1720058,2.4875768 4.0082541,2.5154404 3.8214854,2.3286719 3.5780539,2.0852397 3.6814637,1.8809351 4.2293037,1.5229541 6.9612918,-0.26223826 10.431272,-0.45795386 13.358807,1.0080274 c 1.537666,0.7699962 2.877093,2.0188048 3.797283,3.5403822 1.004496,1.6609778 1.453918,3.8309606 1.209398,5.8394374 -0.05098,0.418701 -0.284812,1.44922 -0.385913,1.70071 -0.03445,0.0857 -0.02319,0.09381 0.08529,0.06137 0.06874,-0.02055 0.497058,-0.04988 0.951809,-0.06516 1.272776,-0.04279 2.212307,0.148966 3.31256,0.67609 0.746662,0.357721 0.910092,0.592052 0.617191,0.884953 -0.165103,0.165104 -0.293585,0.159978 -0.616174,-0.02458 -0.382339,-0.218744 -1.008749,-0.459811 -1.578022,-0.607285 -0.670525,-0.173704 -1.834323,-0.220377 -2.517712,-0.100971 -1.36085,0.237776 -2.538471,0.847574 -3.506784,1.81589 -0.968483,0.968483 -1.578772,2.14721 -1.815653,3.506791 -0.12337,0.70808 -0.07435,1.84912 0.109978,2.559886 0.496359,1.913968 1.774607,3.460695 3.546012,4.290805 0.935699,0.438484 1.774926,0.597187 2.954404,0.558698 0.8653,-0.02824 1.418309,-0.142379 2.185767,-0.451147 0.625319,-0.251581 0.75245,-0.249117 2.189351,0.04244 1.339431,0.271779 1.461143,0.275368 1.548472,0.04567 0.03234,-0.08506 -0.02869,-0.485381 -0.210878,-1.383271 -0.291556,-1.436904 -0.29402,-1.564035 -0.04244,-2.189355 0.308767,-0.76746 0.422909,-1.32047 0.451146,-2.185771 0.0286,-0.876327 -0.02733,-1.388464 -0.226788,-2.076754 -0.24774,-0.854898 -0.775153,-1.797922 -1.375718,-2.459808 -0.336668,-0.371044 -0.380958,-0.484009 -0.272212,-0.694301 0.08596,-0.166227 0.261397,-0.241194 0.435286,-0.186003 0.286055,0.09079 1.178643,1.276505 1.550807,2.060094 0.512817,1.079733 0.70298,2.045889 0.662296,3.364909 -0.03075,0.997049 -0.108775,1.39616 -0.457286,2.339184 l -0.214113,0.579358 0.2653,1.340222 c 0.176843,0.893372 0.254295,1.398009 0.232298,1.513538 -0.09448,0.496225 -0.444294,0.846007 -0.94086,0.940783 -0.11567,0.02208 -0.619072,-0.05516 -1.513535,-0.23222 l -1.34022,-0.2653 -0.579357,0.214113 c -0.992863,0.366932 -1.33002,0.429032 -2.439706,0.449367 -0.69164,0.01267 -1.106235,-0.0038 -1.402672,-0.05566 z m 0.599134,-4.589375 c -0.661549,-0.18395 -1.015452,-0.664132 -0.704664,-0.956103 0.163381,-0.153489 0.366598,-0.140962 0.593977,0.03661 0.104917,0.08194 0.250864,0.162805 0.324327,0.179709 0.305795,0.07036 0.453201,-0.038 1.589346,-1.168387 0.607068,-0.60399 1.133655,-1.166295 1.170189,-1.249567 0.04758,-0.108453 0.05191,-0.193055 0.01524,-0.29823 -0.06103,-0.175056 -0.180801,-0.247999 -0.407234,-0.247999 -0.147448,0 -0.280006,0.111982 -1.131693,0.956014 -0.790103,0.783005 -0.990872,0.956014 -1.109401,0.956014 -0.116022,0 -0.280299,-0.133211 -0.828461,-0.671793 -0.61077,-0.600096 -0.702826,-0.671794 -0.862546,-0.671794 -0.227973,0 -0.403525,0.175617 -0.403525,0.403674 0,0.115381 0.05398,0.224222 0.180868,0.364668 0.210833,0.233368 0.239468,0.464967 0.07752,0.626922 -0.182758,0.182758 -0.400556,0.136401 -0.669348,-0.142467 -0.760745,-0.789259 -0.26398,-2.030906 0.810894,-2.026809 0.427985,0.0016 0.642811,0.125177 1.200518,0.69041 l 0.489405,0.496009 0.803999,-0.798346 c 0.483585,-0.480185 0.87997,-0.830089 0.99463,-0.877997 0.235126,-0.09824 0.709247,-0.103313 0.931999,-0.01 0.58938,0.246982 0.88044,0.965859 0.633181,1.563869 -0.124786,0.301802 -2.451669,2.61876 -2.764369,2.752578 -0.321687,0.137663 -0.654946,0.170808 -0.93485,0.09298 z M 8.1917396,12.762601 C 8.0361089,12.719151 7.8035653,12.623074 7.6749765,12.549103 7.3425521,12.357875 5.1322051,10.137226 4.9836613,9.8452439 4.8983515,9.6775559 4.8588156,9.4934829 4.8419016,9.1852428 4.8199216,8.7847401 4.8289116,8.7365363 4.9843473,8.4207923 5.3676567,7.6421793 6.2418001,7.3235734 7.0368097,7.6727149 7.2133354,7.7502389 7.4860109,7.9812791 7.970521,8.4638558 L 8.6548908,9.1454933 9.9083835,7.89606 C 11.33887,6.4702069 11.4209,6.4138615 12.066212,6.4138615 c 0.645001,0 1.149626,0.3138992 1.4318,0.8906428 0.118399,0.2419987 0.142648,0.3588768 0.141099,0.6800898 -0.0032,0.6688688 -0.01095,0.6791932 -2.001761,2.6767779 -1.600103,1.605544 -1.8016193,1.79016 -2.1291157,1.950546 -0.4444902,0.217683 -0.8927594,0.268991 -1.3164947,0.150683 z M 9.1956918,11.913278 C 9.3292136,11.848498 10.015436,11.199094 11.092796,10.117964 12.528905,8.6768299 12.79031,8.3913781 12.845052,8.2045171 13.020989,7.6039672 12.446815,7.0298963 11.846588,7.2062313 11.662907,7.2601933 11.415529,7.4804714 10.335056,8.552176 9.6245061,9.2569588 8.9923532,9.8594735 8.9302723,9.8910979 8.7667556,9.9743939 8.4915561,9.9616439 8.3440963,9.8639389 8.2738265,9.8173769 7.9023921,9.4697092 7.5186948,9.0913441 6.832395,8.4145813 6.6635633,8.2949509 6.3947668,8.2949509 c -0.2150256,0 -0.568048,0.1987543 -0.6827948,0.3844204 -0.1247047,0.2017759 -0.1402767,0.5876262 -0.03204,0.7937847 0.0403,0.076749 0.6042139,0.665451 1.2531508,1.308225 1.2755997,1.263486 1.3381986,1.306639 1.8233557,1.256952 0.1265338,-0.01296 0.3241954,-0.06923 0.4392492,-0.125055 z"
       id="path302" /></g></svg>
