<?xml version="1.0" encoding="UTF-8" standalone="no"?>
<!-- Created with Inkscape (http://www.inkscape.org/) -->

<svg
   width="50mm"
   height="21.112mm"
   viewBox="0 0 50 21.112"
   version="1.1"
   id="svg18345"
   inkscape:version="1.2.2 (732a01da63, 2022-12-09)"
   sodipodi:docname="LOGO.svg"
   xmlns:inkscape="http://www.inkscape.org/namespaces/inkscape"
   xmlns:sodipodi="http://sodipodi.sourceforge.net/DTD/sodipodi-0.dtd"
   xmlns="http://www.w3.org/2000/svg"
   xmlns:svg="http://www.w3.org/2000/svg">
  <sodipodi:namedview
     id="namedview18347"
     pagecolor="#ffffff"
     bordercolor="#666666"
     borderopacity="1.0"
     inkscape:showpageshadow="2"
     inkscape:pageopacity="0.0"
     inkscape:pagecheckerboard="0"
     inkscape:deskcolor="#d1d1d1"
     inkscape:document-units="mm"
     showgrid="false"
     inkscape:zoom="2.9101758"
     inkscape:cx="58.415715"
     inkscape:cy="86.764518"
     inkscape:window-width="1260"
     inkscape:window-height="778"
     inkscape:window-x="-6"
     inkscape:window-y="-6"
     inkscape:window-maximized="1"
     inkscape:current-layer="layer1" />
  <defs
     id="defs18342" />
  <g
     inkscape:label="Capa 1"
     inkscape:groupmode="layer"
     id="layer1">
    <g
       id="g18714"
       transform="translate(320.42892,-7.4526372)">
      <g
         id="g7635"
         transform="matrix(0.07450885,0,0,0.07450885,-322.22463,24.279237)"
         style="display:inline">
        <rect
           style="fill:#005fbf;fill-opacity:1;fill-rule:evenodd;stroke:none;stroke-width:0.578253;stroke-linecap:square;stroke-dasharray:none;stroke-opacity:1;paint-order:stroke fill markers"
           id="rect7210"
           width="180.47496"
           height="177.10161"
           x="270.18326"
           y="-225.83357"
           ry="11.736147"
           rx="12.954563" />
        <g
           id="g7618"
           transform="translate(0.3000833)">
          <g
             id="g5498"
             transform="translate(-37.950343,51.443798)">
            <path
               style="fill:#ffffff;fill-opacity:1;stroke:none;stroke-width:0.264583px;stroke-linecap:butt;stroke-linejoin:miter;stroke-opacity:1"
               d="m 488.18516,-266.75165 c 0,0 -59.66871,-2.54989 -78.50502,4.36553 -18.83631,6.91542 -26.35733,16.46986 -35.18358,25.04595 -8.82625,8.57609 -12.97763,20.94007 -18.4863,24.44961 -5.50867,3.50954 -5.52845,0.20712 -6.85781,2.53442 -1.32936,2.3273 2.17633,0.21678 0.8945,6.41056 -1.28183,6.19378 -16.84811,15.13084 -20.27529,22.66062 -3.42718,7.52978 -1.67327,12.02567 -2.38535,19.08263 -0.71208,7.05696 -1.78898,23.25695 -1.78898,23.25695 0,0 -4.81545,9.91149 1.78898,14.31197 37.06217,7.70047 124.63342,6.55965 124.63342,6.55965 0,0 3.9956,12.85997 14.90831,12.52298 10.91271,-0.33699 13.71562,-19.67896 13.71562,-19.67896 l 7.75233,-1.49084 z"
               id="path5488"
               sodipodi:nodetypes="czzzzzzzccczccc" />
            <g
               id="g5484"
               style="fill:#000000;stroke:#000000;stroke-width:0.6;stroke-dasharray:none;stroke-opacity:1">
              <path
                 style="fill:#000000;fill-opacity:1;fill-rule:evenodd;stroke:#000000;stroke-width:2.26772;stroke-linecap:square;stroke-dasharray:none;stroke-opacity:1;paint-order:stroke fill markers"
                 d="m 1710.5396,-394.20929 c -15.4936,-4.32597 -28.2725,-17.40318 -34.0738,-34.86901 l -2.5242,-7.59966 -19.3949,-0.0223 c -10.6672,-0.0127 -67.4454,-1.7965 -126.1738,-3.96489 -58.7284,-2.1684 -114.0894,-3.95127 -123.0243,-3.96193 l -16.2454,-0.0195 -8.1028,8.56755 c -12.1644,12.86203 -23.4073,17.4282 -44.8907,18.23183 -32.5565,1.21783 -49.4969,-6.22853 -66.7655,-29.34766 l -6.0698,-8.12629 -11.4063,-1.06011 c -12.6642,-1.17702 -17.8585,-3.32991 -24.215,-10.03661 -13.2821,-14.01368 -14.2616,-34.47549 -2.9948,-62.56421 2.9378,-7.32397 3.4923,-12.03943 3.6544,-31.07745 0.1052,-12.34388 -0.3947,-27.99214 -1.1109,-34.77392 -1.0759,-10.18808 -0.7326,-14.61864 1.9759,-25.49944 5.421,-21.77793 6.6428,-33.42828 4.7728,-45.50993 -2.9703,-19.18952 -2.347,-20.39922 24.0324,-46.64167 12.8503,-12.78355 31.253,-29.91339 40.895,-38.06633 9.642,-8.15294 18.4889,-15.71918 19.6598,-16.81389 1.7676,-1.65249 1.5646,-3.09655 -1.1953,-8.50643 -1.8283,-3.58384 -3.3085,-8.15828 -3.2892,-10.16542 0.051,-5.30741 5.2764,-15.80698 10.0586,-20.21084 3.6822,-3.39079 5.1013,-3.69873 12.8496,-2.78806 l 8.7102,1.0237 9.1999,-13.14909 c 66.4224,-94.93493 74.684,-106.17121 86.3366,-117.42303 39.4137,-38.05806 79.9109,-57.21493 138.2544,-65.40002 49.7626,-6.9813 151.5953,-12.3426 225.8184,-12.7858 l 36.8732,-0.2202 c 0,0 1.4589,4.3853 1.8141,6.5741 0.3552,2.1888 0,6.3748 0,6.3748 h -33.2208 c -80.231,0 -216.212,10.52653 -257.2298,19.91261 -21.9107,5.01382 -44.8707,13.69409 -56.6152,21.40396 -22.3242,14.65505 -44.4378,34.24778 -56.3851,49.95753 -10.3377,13.59319 -10.4527,14.35324 -2.0116,13.29949 3.8467,-0.4802 12.0142,-1.31837 18.15,-1.86259 6.1358,-0.54423 16.0729,-2.00923 22.0826,-3.25558 48.7134,-10.10273 280.9743,-21.28208 300.6447,-14.47085 5.5673,1.92778 5.577,1.94823 5.0378,10.66762 -1.7553,28.38578 -34.0272,120.39328 -45.9054,130.87682 -4.5571,4.02197 -80.7569,11.21177 -166.3154,15.69261 -51.6425,2.7046 -151.1113,3.71948 -185.5181,1.89284 -36.3641,-1.93056 -38.4963,-2.67154 -34.1163,-11.85638 1.3817,-2.89751 6.0333,-9.90406 10.3368,-15.5701 4.3034,-5.66602 20.2136,-27.31097 35.3558,-48.09985 15.1423,-20.7889 29.6055,-39.54326 32.1406,-41.67636 5.5736,-4.68987 1.9246,-4.20219 90.8023,-12.1355 83.7862,-7.47882 116.895,-9.23602 186.4647,-9.89632 l 51.7958,-0.49161 0.4954,3.47986 c 0.6158,4.32594 -19.3587,64.49255 -28.2093,84.97133 -8.5662,19.82045 -8.5242,21.00775 0.6203,17.53104 3.1412,-1.19429 5.792,-5.00925 10.5801,-15.22688 6.7091,-14.3169 31.6538,-87.63884 31.6538,-93.04266 0,-1.72739 -0.8064,-4.91044 -1.7919,-7.07343 -1.6323,-3.58249 -3.0161,-4.03784 -15.5387,-5.11306 -22.0748,-1.8954 -163.8883,3.08707 -210.5707,7.39818 -17.2077,1.58913 -102.2344,13.11737 -112.0769,15.19581 -9.6858,2.04535 -22.6032,17.65055 -74.7263,90.27494 -26.3003,36.64482 -31.126,42.49307 -45.2305,54.8155 -45.1712,39.46388 -54.996,50.10648 -51.7886,56.09954 2.2965,4.29106 13.9974,9.41876 25.8998,11.35015 12.9131,2.09539 121.6841,2.12385 182.221,0.0476 120.4909,-4.13234 127.3416,-4.49427 134.6676,-7.11476 5.9876,-2.14174 35.1619,-5.44454 49.265,-5.57725 2.7211,-0.0257 8.7725,-4.92578 20.7331,-16.78882 15.2721,-15.14745 34.2696,-29.32144 36.419,-27.17206 0.4614,0.46146 -4.6625,6.59741 -11.3866,13.63544 -14.0902,14.74807 -18.5847,22.39942 -15.4069,26.22844 2.4346,2.93349 15.8244,3.18447 51.0624,0.95714 12.7099,-0.80337 42.2932,-1.94189 65.7407,-2.53005 20.8628,-0.52332 29.5286,-1.17239 42.1426,-1.30624 0.063,3.45202 0.091,5.62633 0.091,7.16392 -12.3513,0.48288 0.676,0.25667 -88.0528,4.81775 -22.7901,1.17151 -42.2541,2.66148 -43.2534,3.31103 -2.9482,1.91642 -10.5038,26.62056 -9.4391,30.86263 1.2382,4.93334 5.4704,4.88451 9.6024,-0.11077 3.1543,-3.81336 4.1599,-3.97447 35.1216,-5.62666 17.5308,-0.93549 32.95,-2.01154 34.2648,-2.39121 7.4529,-2.15213 37.5105,-5.58723 48.8891,-5.58723 h 13.2658 v 38.02807 38.02807 l -17.9293,2.75051 c -9.8611,1.51277 -18.8257,3.49301 -19.9214,4.40052 -3.0252,2.50566 -2.393,9.35178 1.5937,17.25763 l 3.5859,7.11098 h 9.5623 c 5.2592,0 12.6102,-0.54636 16.3355,-1.21413 l 6.7733,-1.21412 v 23.7382 23.73819 l -10.7576,1.38166 c -10.35,1.32932 -10.7778,1.55923 -11.2912,6.06909 -0.2935,2.57809 -0.056,7.8758 0.5288,11.77271 l 1.0625,7.08529 10.2288,-0.95518 10.2287,-0.95517 v 10.91557 10.9156 l -10.4877,1.97888 c -5.7682,1.0884 -10.7125,2.78323 -10.9873,3.76632 -9.6714,34.60381 -24.0195,57.65053 -40.6799,65.34211 -6.2887,2.90331 -10.7038,3.36034 -35.8586,3.71191 -19.9192,0.27839 -30.9746,-0.23785 -36.1722,-1.68905 z m 58.2187,-36.49224 c 2.2515,-7.23148 4.958,-16.37542 6.0144,-20.31987 l 1.9209,-7.17172 1.4666,6.37487 c 0.8066,3.50617 1.0096,11.72491 0.451,18.26388 -1.0154,11.88862 -1.0154,11.88892 2.2333,8.94895 1.7868,-1.61705 5.0208,-6.49613 7.1866,-10.8424 l 3.9379,-7.90232 -3.1669,-8.03445 c -3.7951,-9.62822 -3.0882,-13.66776 1.1234,-6.42017 1.6523,2.84322 3.4605,5.17403 4.0184,5.17958 0.5579,0.005 1.514,-3.32199 2.1247,-7.39451 1.0217,-6.81278 0.7495,-7.71332 -3.4049,-11.26779 l -4.5153,-3.86321 5.1796,0.8688 c 4.5479,0.76284 5.1822,0.43636 5.2013,-2.67722 0.013,-1.95031 0.4836,-5.2719 1.048,-7.38131 0.9603,-3.58906 0.7031,-3.77068 -4.006,-2.82884 -6.3868,1.27734 -6.5279,-1.24605 -0.2511,-4.49187 5.1652,-2.67107 5.6922,-5.4005 3.3848,-17.53087 l -1.2127,-6.37486 -3.634,5.97643 c -1.9988,3.28704 -4.2805,5.97643 -5.0704,5.97643 -2.0197,0 -1.9109,-0.48897 2.548,-11.46244 2.1913,-5.39296 3.9772,-11.29538 3.9687,-13.11649 -0.02,-4.2425 -6.7031,-18.63407 -9.8691,-21.25219 -2.1198,-1.75304 -2.56,-0.45595 -3.515,10.35915 -2.2757,25.77136 -4.554,31.39992 -6.4556,15.94896 -1.6487,-13.39584 -6.0943,-31.47587 -7.7396,-31.47587 -2.9663,0 -11.9964,11.18732 -14.6602,18.1625 l -2.7096,7.09485 8.1389,10.05871 c 4.4764,5.53227 8.1389,11.02364 8.1389,12.20301 0,1.20289 -4.0153,-1.041 -9.1456,-5.11085 -10.2146,-8.10323 -10.1964,-8.11181 -12.2464,5.80166 -0.7675,5.20901 -0.5557,7.57015 0.679,7.57015 3.0867,0 17.671,6.76062 16.6934,7.73828 -0.5111,0.51104 -5.0152,0.95123 -10.0093,0.97816 l -9.08,0.049 -0.4819,9.29777 c -0.4315,8.32273 -0.1808,9.20968 2.3905,8.45778 1.5799,-0.46199 6.4584,-1.28132 10.8411,-1.82071 7.5544,-0.92974 7.8029,-0.845 4.7812,1.63007 -1.7531,1.43594 -6.6732,4.39872 -10.9336,6.58399 -7.2357,3.71136 -7.6821,4.29374 -6.7733,8.83751 0.5351,2.67537 0.9729,6.23425 0.9729,7.90861 0,2.6568 0.4564,2.80277 3.5858,1.14674 1.9723,-1.04366 6.5284,-4.29616 10.1249,-7.2278 11.6837,-9.5239 10.6206,-5.3774 -2.7362,10.67239 -7.6795,9.2279 -7.9864,9.94922 -6.1351,14.41874 2.1217,5.12224 10.0919,12.60895 13.4231,12.60895 1.2131,0 3.7881,-5.48337 6.1745,-13.14815 z m -48.8542,-29.2484 c 3.9497,-2.94356 4.5532,-4.53273 4.9685,-13.08348 0.4734,-9.74496 -2.594,-19.42458 -6.1555,-19.42458 -0.8892,0 -4.2773,2.79542 -7.5293,6.21203 -5.1237,5.38328 -7.1762,6.36971 -15.3842,7.39382 -10.2074,1.27355 -41.1777,0.0363 -63.9965,-2.55645 -11.9231,-1.3548 -18.2302,-3.34557 -40.3521,-12.73688 -14.4211,-6.12208 -26.9558,-10.88587 -27.8549,-10.58615 -0.8992,0.2997 4.0746,5.06156 11.0527,10.5819 6.9782,5.52034 13.0461,10.37325 13.4844,10.78422 0.4383,0.41098 -10.6779,0.30786 -24.7026,-0.22912 -14.0247,-0.53701 -45.2217,-1.68598 -69.3266,-2.55328 -94.8168,-3.41154 -241.5574,-9.63085 -243.5161,-10.32093 -1.4296,-0.50366 -1.7568,-2.38892 -1.0597,-6.10495 1.4642,-7.80492 -5.9186,-12.09585 -9.668,-4.48935 -3.7494,7.6065 -6.5476,11.74509 -4.8811,21.55806 1.2856,6.85324 4.7872,9.95311 13.7133,12.14036 6.4536,1.58136 193.7231,10.13555 314.7382,14.37678 26.2963,0.92161 53.1902,1.88955 59.7643,2.151 6.5741,0.26147 30.0106,0.42186 52.0812,0.35645 38.1928,-0.11315 40.3452,-0.28052 44.624,-3.46945 z m -177.1986,-63.75299 c -3.8834,-5.72262 -3.9726,-6.25078 -1.3762,-8.14935 1.9222,-1.40552 2.9845,-4.90664 3.4527,-11.3791 l 0.6762,-9.34894 -100.9781,-1.11769 c -94.4309,-1.04522 -147.5655,-2.70173 -163.5255,-5.09804 -6.6031,-0.99141 -6.8254,-0.87692 -9.1639,4.71979 -5.0547,12.0977 -2.5985,14.3192 18.688,16.90229 20.8966,2.53579 131.2373,6.71903 184.7363,7.00374 43.0083,0.22889 49.1928,0.57564 51.7957,2.90402 3.6418,3.25768 18.377,11.1529 19.2276,10.30229 0.3409,-0.34091 -1.2488,-3.37347 -3.5328,-6.73901 z m 179.8794,-39.27697 c 1.2336,-1.97222 3.8076,-8.54414 5.7201,-14.60426 9.0089,-28.54692 20.126,-39.1471 41.085,-39.17473 10.5797,-0.0144 18.9952,4.18071 24.5317,12.22774 4.9559,7.20317 7.0771,7.90743 9.9757,3.31213 2.6334,-4.17477 -2.8743,-18.83396 -10.2054,-27.1625 -13.4322,-15.25981 -33.6235,-19.83798 -50.4693,-11.4434 -13.116,6.53596 -22.9283,18.37905 -33.126,39.98162 -4.9159,10.41377 -9.8047,20.57944 -10.864,22.59041 -1.8522,3.51613 -2.8489,3.68231 -25.9994,4.33441 -13.2403,0.37294 -25.8203,1.34229 -27.9555,2.1541 -4.5226,1.7195 -8.6603,6.19559 -7.1361,7.71979 2.2827,2.28271 15.9817,3.26009 48.3707,3.45107 33.4577,0.19728 33.8543,0.16005 36.0725,-3.38638 z m 31.8495,-4.78114 c 3.9079,-2.78746 7.2152,-3.58586 14.8544,-3.58586 7.6916,0 10.8812,0.77926 14.6773,3.58586 2.6676,1.97222 5.2378,3.58585 5.7115,3.58585 1.7733,0 0.7678,-5.24472 -1.8576,-9.68907 -7.3038,-12.36449 -34.1425,-12.70355 -38.7861,-0.48998 -1.706,4.48712 -2.028,10.17905 -0.5759,10.17905 0.5221,0 3.2115,-1.61363 5.9764,-3.58585 z m -196.1159,-14.21808 c 5.7313,-2.95582 11.4745,-3.75559 39.381,-5.48405 30.8665,-1.91179 68.6752,-6.80118 78.6076,-10.16544 4.8586,-1.64568 17.2007,-14.38407 22.9836,-23.72151 4.2634,-6.88406 4.7778,-15.78173 0.9962,-17.23285 -1.7924,-0.68782 -4.2892,1.03945 -8.0538,5.57156 -4.9437,5.95152 -7.3314,7.17851 -25.4237,13.06458 -16.7401,5.44612 -25.2917,7.12813 -52.9058,10.406 -18.116,2.15042 -40.6771,4.34377 -50.1359,4.87412 -15.5461,0.87167 -17.6797,1.37001 -22.2174,5.18917 -4.8325,4.06729 -5.9746,4.264 -30.6138,5.27281 -39.3708,1.61196 -116.8661,1.47469 -161.0597,-0.28529 -60.7034,-2.41748 -78.7384,-5.10091 -87.8091,-13.06512 -3.1902,-2.80103 -7.8707,-5.06307 -11.4771,-5.5468 -5.9417,-0.79694 -6.1362,-0.66268 -7.9867,5.51371 -1.0431,3.48179 -1.8966,7.43155 -1.8966,8.77722 0,4.77467 11.5183,9.52597 32.6711,13.4768 26.2952,4.91132 62.7739,6.18961 186.9266,6.55031 90.8382,0.26392 91.3379,0.24764 98.0135,-3.19522 z m -102.1858,-28.32019 77.569,-1.36275 7.3891,-5.08388 c 7.835,-5.39063 9.9525,-9.12805 11.4782,-20.25946 0.712,-5.19461 2.2928,-8.0938 6.3604,-11.66523 2.9771,-2.61394 6.6431,-4.79172 8.1465,-4.83953 40.3864,-1.28431 53.1998,-3.53664 62.4979,-10.98589 2.3528,-1.88497 6.921,-3.3713 11.156,-3.62977 l 7.1717,-0.43771 0.4859,6.68715 c 0.4319,5.94516 -0.01,14.94178 -3.9843,16.98197 -7.219,3.70599 -20.3509,5.72721 -47.1943,7.26403 -19.7826,1.13257 -25.821,2.01044 -28.1162,4.08759 -3.8476,3.48204 -6.1058,11.81815 -3.0108,13.77993 3.2695,2.07233 27.3041,1.59739 45.9611,-0.90822 38.0194,-5.10595 60.0437,-11.90687 69.0699,-21.32813 7.6711,-8.00694 12.1231,-33.95959 6.6104,-38.53475 -4.1947,-3.48131 -47.3542,-1.03231 -70.1023,3.97784 -16.8624,3.71383 -24.5046,4.37549 -64.6074,5.59368 -25.0156,0.75989 -64.8186,2.25038 -88.4512,3.31219 -45.2756,2.03426 -164.9739,1.03387 -186.8023,-1.56122 -10.0845,-1.1989 -12.3675,-2.10734 -17.9339,-7.13621 -3.508,-3.16934 -7.0797,-5.76243 -7.9371,-5.76243 -4.1864,0 -3.7029,17.00515 0.5847,20.5636 1.1659,0.96759 5.5401,2.39825 9.7205,3.17924 10.7132,2.00143 13.3625,7.35762 7.285,14.7282 -3.0471,3.69541 -3.1913,3.71274 -8.0977,0.97341 -8.9253,-4.98315 -15.0498,-2.38949 -14.0161,5.93567 0.4321,3.48029 2.4629,4.98158 12.8048,9.46647 6.7602,2.93161 14.4624,7.15709 17.116,9.38995 5.6181,4.72733 10.7881,5.54772 46.2943,7.34626 34.5433,1.74976 44.9174,1.76759 132.5522,0.228 z m -120.9555,-177.31501 c 5.2502,-8.09691 5.4669,-10.837 0.8573,-10.837 -3.9591,0 -10.8603,5.81313 -10.8603,9.14802 0,2.86209 2.9511,8.38285 4.4811,8.38285 0.6498,0 3.1347,-3.01225 5.5219,-6.69387 z m 65.8977,3.50644 h 5.3788 l -0.022,-12.35129 c -0.023,-12.98901 -1.0969,-19.52301 -3.2091,-19.52301 -0.6959,0 -5.3459,6.46697 -10.3332,14.37105 -10.0221,15.88351 -10.5201,20.16856 -2.1494,18.49441 2.7257,-0.54514 7.3762,-0.99116 10.3346,-0.99116 z m 64.1858,-5.578 c 0.8709,-0.87655 2.3285,-12.70988 3.2392,-26.2963 0.9106,-13.58643 2.0587,-30.57589 2.5512,-37.75435 1.1243,-16.38688 0.561,-16.83243 -18.4378,-14.58247 -12.3772,1.46579 -13.9916,2.07908 -19.5958,7.44409 -13.3995,12.8278 -14.5832,17.59326 -14.0501,56.56761 l 0.236,17.25291 22.2369,-0.5189 c 12.2303,-0.28538 22.9494,-1.23605 23.8204,-2.11259 z"
                 id="path5464"
                 transform="scale(0.26458333)"
                 sodipodi:nodetypes="csccsscssscsssssssssssssscssssczcsssssssssssssssssscssssssssssssssssssssssccssssssscccssscsscccssccccccscssccsscsssscsscsscscsssscssssssssscssssssscsssssssssssssssssssssssssssszcsssssssscsssssssssscssssssssssssssssssssssssssssssssssssssscsssssscssssssssssssssssssssssssssssccssssscsssssscss" />
              <path
                 style="fill:#000000;fill-opacity:1;fill-rule:evenodd;stroke:#000000;stroke-width:2.26772;stroke-linecap:square;stroke-dasharray:none;stroke-opacity:1;paint-order:stroke fill markers"
                 d="m 1292.3275,-626.29728 c -2.2586,-0.91262 -3.9831,-3.82173 -5.2514,-8.85827 -1.0386,-4.12466 -1.5172,-7.87049 -1.0637,-8.32405 1.3929,-1.39291 199.5179,-2.49096 222.8375,-1.23502 l 21.9135,1.18022 v 7.48656 c 0,4.11762 -0.8606,8.34718 -1.9124,9.39903 -2.277,2.27698 -230.9175,2.6168 -236.5235,0.35153 z"
                 id="path5466"
                 transform="scale(0.26458333)" />
              <path
                 style="fill:#000000;fill-opacity:1;fill-rule:evenodd;stroke:#000000;stroke-width:2.26772;stroke-linecap:square;stroke-dasharray:none;stroke-opacity:1;paint-order:stroke fill markers"
                 d="m 1795.7908,-745.45403 -17.8572,-0.50773 -6.6066,-6.72176 c -7.7187,-7.85335 -12.6623,-16.77653 -12.6623,-22.85573 0,-4.70794 23.3157,-72.43547 33.1895,-96.40903 14.2071,-34.49493 17.2027,-40.5138 23.3874,-46.99094 6.5715,-6.88226 14.4532,-10.17111 24.415,-10.18784 4.5768,-0.008 5.2217,0.47479 4.7811,3.57697 -0.4068,2.86484 -1.8041,3.75871 -6.9488,4.44552 -7.9397,1.05992 -17.4912,8.11357 -21.423,15.82055 -4.2695,8.369 -22.7216,57.11333 -28.677,75.75527 -3.0386,9.51187 -5.1969,19.79232 -5.3533,25.49944 l -0.262,9.56229 h 7.1717 7.1717 l 2.6629,-15.14029 c 1.8612,-10.58205 6.5488,-25.13411 15.5701,-48.33489 17.4262,-44.81639 20.4871,-50.47546 27.3017,-50.47546 2.9569,0 3.4591,0.37919 3.2728,40.24131 l -0.1992,42.63188 h -14.9451 c -10.0503,0 -15.4893,0.65564 -16.6065,2.0018 -0.9138,1.10098 -2.6394,9.88634 -3.8348,19.52301 l -2.1735,17.52122 -7.5078,0.4854 c -6.3482,0.41043 -7.6526,1.06233 -8.4453,4.22061 -0.5156,2.05437 -0.6987,5.4218 -0.4069,7.48318 0.4664,3.29522 1.5893,3.84624 9.2959,4.56158 4.821,0.4475 9.6619,1.38628 10.7576,2.08621 1.1036,0.70499 1.9921,4.42928 1.9921,8.35024 v 7.07765 h 15.9372 15.9371 v 3.98429 3.98429 l -15.5387,-0.34067 c -8.5463,-0.18736 -23.5744,-0.56914 -33.3958,-0.84837 z m 3.5136,-12.35754 c 0,-4.70264 -0.1504,-4.78899 -9.1638,-5.2591 l -9.1639,-0.47797 v 4.74984 c 0,5.22082 2.4822,6.38616 12.7497,5.98585 5.087,-0.19833 5.578,-0.63836 5.578,-4.99862 z"
                 id="path5468"
                 transform="scale(0.26458333)"
                 sodipodi:nodetypes="scsssssssssscccsssscssscsssssscccccsssscsss" />
              <path
                 style="fill:#000000;fill-opacity:1;fill-rule:evenodd;stroke:#000000;stroke-width:2.26772;stroke-linecap:square;stroke-dasharray:none;stroke-opacity:1;paint-order:stroke fill markers"
                 d="m 1838.2555,-790.13499 c -3.0175,-2.74473 -1.1498,-15.64696 -0.9902,-17.00215 0.2274,-1.93039 2.2217,-3.48939 5.1192,-4.00187 l 2.113,-0.37371 c 0.01,7.41773 -0.6864,14.87377 -0.7385,22.25861 -0.078,-0.0135 -3.5402,0.90493 -5.5035,-0.88088 z"
                 id="path5472"
                 transform="scale(0.26458333)"
                 sodipodi:nodetypes="sssccs" />
              <path
                 style="fill:#000000;fill-opacity:1;fill-rule:evenodd;stroke:#000000;stroke-width:2.26772;stroke-linecap:square;stroke-dasharray:none;stroke-opacity:1;paint-order:stroke fill markers"
                 d="m 1775.422,-477.5343 c -1.3934,-2.12667 -1.2832,-8.37412 0.1824,-10.33716 3.2647,-4.37265 6.2101,2.20906 3.7453,8.36914 -1.2489,3.1212 -2.6968,3.84668 -3.9277,1.96802 z"
                 id="path5474"
                 transform="scale(0.26458333)" />
              <path
                 style="fill:#000000;fill-opacity:1;fill-rule:evenodd;stroke:#000000;stroke-width:2.26772;stroke-linecap:square;stroke-dasharray:none;stroke-opacity:1;paint-order:stroke fill markers"
                 d="m 1813.685,-958.02204 c 1.5383,-5.07944 13.3397,-22.13822 18.8785,-27.28874 2.7446,-2.55214 6.5141,-6.06259 8.3768,-7.801 l 3.3866,-3.16076 -0.019,5.47907 c -0.019,5.46895 -0.025,5.48345 -3.2375,7.86094 -3.4124,2.52521 -10.1275,9.39228 -19.7074,20.15322 -5.8199,6.53741 -8.771,8.36585 -7.6782,4.75727 z"
                 id="path5476"
                 transform="scale(0.26458333)" />
            </g>
          </g>
          <path
             style="fill:#000000;fill-opacity:1;stroke:#000000;stroke-width:0.264583px;stroke-linecap:butt;stroke-linejoin:miter;stroke-opacity:1"
             d="m 270.37597,-58.107986 c 0,0 41.28975,5.98432 70.31711,6.32507 29.02736,0.34075 83.27993,-6.325061 83.27993,-6.325061 l -11.20425,-8.445824 -101.38799,-3.228658 -41.21415,5.771093 z"
             id="path7552"
             sodipodi:nodetypes="czccccc" />
        </g>
        <path
           style="fill:#3ace3a;fill-opacity:1;fill-rule:evenodd;stroke:none;stroke-width:1.91246;stroke-linecap:square;stroke-dasharray:none;stroke-opacity:1;paint-order:stroke fill markers"
           d="m 342.08226,-43.244928 c -34.30474,-9.80919 -55.05525,-20.97742 -83.57198,-44.0651 52.83044,22.99473 117.4159,41.22065 166.96236,26.04524 16.62323,-5.81078 36.37167,-16.78261 36.53502,-35.819082 -0.14076,-11.65387 -4.72454,-19.8902 -11.03259,-29.26383 0.11644,-3.92846 0.10342,-10.88542 0.27156,-15.0433 60.76992,35.7331 48.20645,78.310102 13.73321,94.018042 -34.47323,15.70795 -88.59285,13.93723 -122.89758,4.12803 z"
           id="path6673"
           sodipodi:nodetypes="zccccczz" />
      </g>
      <g
         id="g18340"
         style="display:inline"
         transform="matrix(0.07450885,0,0,0.07450885,-310.78842,30.311528)">
        <text
           xml:space="preserve"
           style="font-weight:900;font-size:109.959px;line-height:1.25;font-family:Arial;-inkscape-font-specification:'Arial Heavy';letter-spacing:0.662817px;word-spacing:0px;fill:#005fbf;fill-opacity:1;stroke-width:2.57717"
           x="-80.726181"
           y="-24.760611"
           id="text356-6-9"><tspan
             sodipodi:role="line"
             id="tspan354-1-5"
             style="font-style:italic;font-variant:normal;font-weight:800;font-stretch:normal;font-size:109.959px;font-family:Figtree;-inkscape-font-specification:'Figtree Ultra-Bold Italic';fill:#005fbf;fill-opacity:1;stroke-width:2.57717"
             x="-80.726181"
             y="-24.760611">ra</tspan></text>
        <text
           xml:space="preserve"
           style="font-weight:900;font-size:109.178px;line-height:1.25;font-family:Arial;-inkscape-font-specification:'Arial Heavy';letter-spacing:0.658114px;word-spacing:0px;display:inline;fill:#005fbf;fill-opacity:1;stroke-width:2.55888"
           x="-144.41234"
           y="-21.423326"
           id="text356-6-9-9"
           transform="scale(0.91392146,1.0941859)"><tspan
             sodipodi:role="line"
             id="tspan354-1-5-4"
             style="font-style:italic;font-variant:normal;font-weight:800;font-stretch:normal;font-size:109.178px;font-family:Figtree;-inkscape-font-specification:'Figtree Ultra-Bold Italic';fill:#005fbf;fill-opacity:1;stroke-width:2.55888"
             x="-144.41234"
             y="-21.423326">F</tspan></text>
        <text
           xml:space="preserve"
           style="font-weight:900;font-size:114.612px;line-height:1.25;font-family:Arial;-inkscape-font-specification:'Arial Heavy';letter-spacing:0.690864px;word-spacing:0px;display:inline;fill:#005fbf;fill-opacity:1;stroke-width:2.68622"
           x="33.464672"
           y="-22.489485"
           id="text356-6-9-8"
           transform="scale(0.95940389,1.0423139)"><tspan
             sodipodi:role="line"
             id="tspan354-1-5-7"
             style="font-style:italic;font-variant:normal;font-weight:800;font-stretch:normal;font-size:114.612px;font-family:Figtree;-inkscape-font-specification:'Figtree Ultra-Bold Italic';fill:#005fbf;fill-opacity:1;stroke-width:2.68622"
             x="33.464672"
             y="-22.489485">l</tspan></text>
        <text
           xml:space="preserve"
           style="font-weight:900;font-size:113.594px;line-height:1.25;font-family:Arial;-inkscape-font-specification:'Arial Heavy';letter-spacing:0.684726px;word-spacing:0px;display:inline;fill:#005fbf;fill-opacity:1;stroke-width:2.66236"
           x="60.204391"
           y="-23.563507"
           id="text356-6-9-89"
           transform="scale(1.0052218,0.99480533)"><tspan
             sodipodi:role="line"
             id="tspan354-1-5-5"
             style="font-style:italic;font-variant:normal;font-weight:800;font-stretch:normal;font-size:113.594px;font-family:Figtree;-inkscape-font-specification:'Figtree Ultra-Bold Italic';fill:#005fbf;fill-opacity:1;stroke-width:2.66236"
             x="60.204391"
             y="-23.563507">i</tspan></text>
        <text
           xml:space="preserve"
           style="font-weight:900;font-size:111.559px;line-height:1.25;font-family:Arial;-inkscape-font-specification:'Arial Heavy';letter-spacing:0.672467px;word-spacing:0px;display:inline;fill:#005fbf;fill-opacity:1;stroke:#005fbf;stroke-width:2.61469;stroke-opacity:1"
           x="87.019745"
           y="-23.857162"
           id="text356-6-9-3"
           transform="scale(0.96398625,1.0373592)"><tspan
             sodipodi:role="line"
             id="tspan354-1-5-2"
             style="font-style:italic;font-variant:normal;font-weight:800;font-stretch:normal;font-size:111.559px;font-family:Figtree;-inkscape-font-specification:'Figtree Ultra-Bold Italic';fill:#005fbf;fill-opacity:1;stroke:#005fbf;stroke-width:2.61469;stroke-opacity:1"
             x="87.019745"
             y="-23.857162">V</tspan></text>
        <text
           xml:space="preserve"
           style="font-weight:900;font-size:108.597px;line-height:1.25;font-family:Arial;-inkscape-font-specification:'Arial Heavy';letter-spacing:0.654608px;word-spacing:0px;display:inline;fill:#3ace3a;fill-opacity:1;stroke:#3ace3a;stroke-width:2.54522;stroke-opacity:1"
           x="306.71024"
           y="-23.171309"
           id="text356-6-9-3-6"
           transform="scale(0.93758917,1.0665652)"><tspan
             sodipodi:role="line"
             id="tspan354-1-5-2-2"
             style="font-style:italic;font-variant:normal;font-weight:800;font-stretch:normal;font-size:108.597px;font-family:Figtree;-inkscape-font-specification:'Figtree Ultra-Bold Italic';fill:#3ace3a;fill-opacity:1;stroke:#3ace3a;stroke-width:2.54522;stroke-opacity:1"
             x="306.71024"
             y="-23.171309">T</tspan></text>
        <text
           xml:space="preserve"
           style="font-weight:900;font-size:112.184px;line-height:1.25;font-family:Arial;-inkscape-font-specification:'Arial Heavy';letter-spacing:0.676231px;word-spacing:0px;display:inline;fill:#005fbf;fill-opacity:1;stroke-width:2.62933"
           x="151.97949"
           y="-25.261702"
           id="text356-6-9-3-1"
           transform="scale(1.0202376,0.98016385)"><tspan
             sodipodi:role="line"
             id="tspan354-1-5-2-4"
             style="font-style:italic;font-variant:normal;font-weight:800;font-stretch:normal;font-size:112.184px;font-family:Figtree;-inkscape-font-specification:'Figtree Ultra-Bold Italic';fill:#005fbf;fill-opacity:1;stroke-width:2.62933"
             x="151.97949"
             y="-25.261702">an</tspan></text>
        <text
           xml:space="preserve"
           style="font-weight:900;font-size:109.959px;line-height:1.25;font-family:Arial;-inkscape-font-specification:'Arial Heavy';letter-spacing:-10.0542px;word-spacing:0px;display:inline;fill:#3ace3a;fill-opacity:1;stroke:#3ace3a;stroke-width:2.57717;stroke-opacity:1"
           x="398.96262"
           y="-26.379072"
           id="text356-6-9-3-8"><tspan
             sodipodi:role="line"
             id="tspan354-1-5-2-6"
             style="font-style:italic;font-variant:normal;font-weight:800;font-stretch:normal;font-size:109.959px;font-family:Figtree;-inkscape-font-specification:'Figtree Ultra-Bold Italic';fill:#3ace3a;fill-opacity:1;stroke:#3ace3a;stroke-width:2.57717;stroke-opacity:1"
             x="398.96262"
             y="-26.379072">r.</tspan></text>
        <text
           xml:space="preserve"
           style="font-weight:900;font-size:109.959px;line-height:1.25;font-family:Arial;-inkscape-font-specification:'Arial Heavy';letter-spacing:-10.0542px;word-spacing:0px;display:inline;fill:#005fbf;fill-opacity:1;stroke:#005fbf;stroke-width:2.57717;stroke-opacity:1"
           x="432.67218"
           y="-26.379072"
           id="text356-6-9-3-8-9"><tspan
             sodipodi:role="line"
             id="tspan354-1-5-2-6-6"
             style="font-style:italic;font-variant:normal;font-weight:800;font-stretch:normal;font-size:109.959px;font-family:Figtree;-inkscape-font-specification:'Figtree Ultra-Bold Italic';fill:#005fbf;fill-opacity:1;stroke:#005fbf;stroke-width:2.57717;stroke-opacity:1"
             x="432.67218"
             y="-26.379072">.</tspan></text>
        <text
           xml:space="preserve"
           style="font-weight:900;font-size:111.99px;line-height:1.25;font-family:Arial;-inkscape-font-specification:'Arial Heavy';letter-spacing:0px;word-spacing:0px;fill:#005fbf;fill-opacity:1;stroke-width:3.47696;stroke-dasharray:none"
           x="447.00974"
           y="-24.988388"
           id="text10747"
           transform="matrix(1.0076882,0,-0.1141933,0.99237046,0,0)"><tspan
             sodipodi:role="line"
             id="tspan10745"
             style="font-style:normal;font-variant:normal;font-weight:bold;font-stretch:normal;font-size:111.99px;font-family:Ebrima;-inkscape-font-specification:'Ebrima Bold';fill:#005fbf;fill-opacity:1;stroke:none;stroke-width:3.47696;stroke-dasharray:none;stroke-opacity:1"
             x="447.00974"
             y="-24.988388">cl</tspan></text>
        <text
           xml:space="preserve"
           style="font-weight:900;font-size:78.0786px;line-height:1.25;font-family:Arial;-inkscape-font-specification:'Arial Heavy';letter-spacing:0.470647px;word-spacing:0px;display:inline;fill:#3ace3a;fill-opacity:1;stroke:#3ace3a;stroke-width:5.24717;stroke-dasharray:none;stroke-opacity:1"
           x="317.02646"
           y="-28.641201"
           id="text356-6-9-3-1-8"
           transform="scale(1.0599083,0.94347785)"><tspan
             sodipodi:role="line"
             id="tspan354-1-5-2-4-3"
             style="font-style:italic;font-variant:normal;font-weight:800;font-stretch:normal;font-size:78.0786px;font-family:Figtree;-inkscape-font-specification:'Figtree Ultra-Bold Italic';fill:#3ace3a;fill-opacity:1;stroke:#3ace3a;stroke-width:5.24717;stroke-dasharray:none;stroke-opacity:1"
             x="317.02646"
             y="-28.641201">U</tspan></text>
      </g>
    </g>
  </g>
</svg>
