<?xml version="1.0" encoding="UTF-8" standalone="no"?>
<!-- Created with Inkscape (http://www.inkscape.org/) -->

<svg
   width="100"
   height="100"
   viewBox="0 0 26.458333 26.458333"
   version="1.1"
   id="svg5"
   xml:space="preserve"
   inkscape:version="1.2.2 (732a01da63, 2022-12-09)"
   sodipodi:docname="resolucion.svg"
   xmlns:inkscape="http://www.inkscape.org/namespaces/inkscape"
   xmlns:sodipodi="http://sodipodi.sourceforge.net/DTD/sodipodi-0.dtd"
   xmlns="http://www.w3.org/2000/svg"
   xmlns:svg="http://www.w3.org/2000/svg"><sodipodi:namedview
     id="namedview7"
     pagecolor="#ffffff"
     bordercolor="#666666"
     borderopacity="1.0"
     inkscape:showpageshadow="2"
     inkscape:pageopacity="0.0"
     inkscape:pagecheckerboard="0"
     inkscape:deskcolor="#d1d1d1"
     inkscape:document-units="mm"
     showgrid="false"
     inkscape:zoom="2.3786088"
     inkscape:cx="28.588139"
     inkscape:cy="27.537105"
     inkscape:window-width="1260"
     inkscape:window-height="778"
     inkscape:window-x="-6"
     inkscape:window-y="-6"
     inkscape:window-maximized="1"
     inkscape:current-layer="layer1" /><defs
     id="defs2" /><g
     inkscape:label="Capa 1"
     inkscape:groupmode="layer"
     id="layer1"><g
       id="g248"
       transform="matrix(0.10081737,0,0,0.09737263,28.735993,-6.6522878)"
       style="fill:#000000"><path
         style="fill:#ffffff;fill-opacity:1;stroke-width:0.264583"
         d="m -108.95159,339.41212 c -0.29104,-0.12954 -0.95789,-0.24389 -1.48187,-0.2541 -0.52399,-0.0103 -1.2979,-0.12282 -1.7198,-0.25022 -0.42189,-0.1274 -1.42193,-0.37645 -2.22229,-0.55348 -1.42837,-0.31591 -4.05065,-1.12562 -5.22552,-1.61351 -0.32742,-0.13597 -0.8632,-0.35422 -1.19063,-0.48498 -3.57547,-1.42798 -11.52366,-5.86259 -12.36927,-6.90129 -0.0728,-0.0894 -0.54901,-0.45225 -1.05833,-0.80642 -0.9203,-0.63994 -1.56271,-1.1678 -3.48125,-2.86049 -1.94839,-1.71902 -1.82911,-0.1649 -1.81511,-23.64885 0.0144,-24.22652 -0.16634,-28.06165 -1.56863,-33.27853 -0.13691,-0.50933 -0.35917,-1.34276 -0.49392,-1.85209 -0.67897,-2.56638 -4.15006,-9.75807 -5.33472,-11.0529 -0.2297,-0.25106 -0.70712,-0.87319 -1.06095,-1.38251 -0.62668,-0.90211 -6.83569,-8.73217 -7.13342,-8.99584 -0.0822,-0.0728 -0.47433,-0.56847 -0.87148,-1.10157 -0.39716,-0.53311 -0.87273,-1.12842 -1.05683,-1.32292 -0.1841,-0.1945 -0.66035,-0.78981 -1.05833,-1.32292 -0.39799,-0.5331 -0.87424,-1.12842 -1.05834,-1.32292 -0.1841,-0.19449 -0.66035,-0.78981 -1.05833,-1.32291 -0.39798,-0.53311 -0.87423,-1.12842 -1.05833,-1.32292 -1.27513,-1.34712 -5.86103,-7.84037 -7.47263,-10.58062 -0.67129,-1.14142 -3.96564,-7.80836 -4.35974,-8.82301 -0.11304,-0.29104 -0.32944,-0.82682 -0.4809,-1.19063 -1.89981,-4.56338 -3.61574,-10.9973 -4.26916,-16.00729 -0.70073,-5.37276 -0.81804,-6.84824 -0.80985,-10.18646 0.009,-3.79911 0.55426,-9.73935 0.99652,-10.86283 0.44583,-1.13253 1.57489,-2.27688 2.82732,-2.86559 1.18039,-0.55484 1.35377,-0.55908 22.90324,-0.55908 21.31403,0 22.96406,0.0565 24.85859,0.85065 1.40139,0.58747 2.8049,1.39609 3.43688,1.98014 0.36231,0.33484 0.73918,0.6088 0.83747,0.6088 0.0983,0 0.72462,0.72621 1.39184,1.61381 1.12316,1.49414 1.43115,2.04798 2.22548,4.00204 0.16121,0.39659 0.4235,2.06346 0.58286,3.70417 0.28816,2.96669 0.6202,4.68177 1.07626,5.5592 0.13134,0.25269 0.23879,0.5778 0.23879,0.72246 0,0.57536 2.02744,3.39788 3.42721,4.77123 1.30605,1.28141 3.19251,2.42163 5.59449,3.38147 0.37803,0.15106 1.59468,0.42711 2.70366,0.61345 4.42337,0.74326 9.45758,-1.191 12.814912,-4.92379 2.375009,-2.64061 3.320809,-5.12229 3.765439,-9.88011 0.167989,-1.7976 0.433097,-3.58353 0.589129,-3.96875 0.776894,-1.91801 1.092412,-2.48554 2.176677,-3.91523 1.562569,-2.06036 2.996563,-3.13327 5.705571,-4.26889 1.797285,-0.75342 3.534463,-0.85065 15.198413,-0.85065 7.859393,0 12.053671,-0.0921 12.053671,-0.26458 0,-0.14552 -0.12029,-0.26458 -0.267314,-0.26458 -0.147021,0 -4.551106,-2.8575 -9.786853,-6.35 -9.989831,-6.66371 -10.363896,-6.85271 -11.756745,-5.94008 -0.344096,0.22546 -0.950606,0.91007 -1.347801,1.52136 -1.014703,1.56163 -4.194371,4.65358 -6.077746,5.91007 -2.29552,1.53145 -5.29874,2.93476 -7.540626,3.5235 -0.654843,0.17197 -1.592479,0.43676 -2.083636,0.58843 -1.310156,0.40456 -8.348411,0.37787 -10.087201,-0.0383 -5.30296,-1.2691 -9.14463,-3.3461 -12.70361,-6.8682 -3.45894,-3.42311 -5.70613,-7.60348 -6.9087,-12.85203 -0.47868,-2.08922 -0.47472,-8.8012 0.006,-10.58334 0.86713,-3.21295 2.30882,-6.6566 3.5063,-8.37522 0.55476,-0.79619 0.63113,-2.26643 0.1502,-2.89185 -0.39493,-0.51359 -20.1865,-13.73605 -20.56032,-13.73605 -0.14696,0 -0.2672,-0.11104 -0.2672,-0.24676 0,-0.13571 -0.22357,-0.31771 -0.49681,-0.40443 -0.27325,-0.0867 -0.8388,-0.45179 -1.25678,-0.81126 -0.41797,-0.35947 -0.90878,-0.65372 -1.09068,-0.6539 -0.1819,-1.8e-4 -0.33073,-0.11938 -0.33073,-0.2649 0,-0.14552 -0.12113,-0.26459 -0.26918,-0.26459 -0.45407,0 -11.20546,-7.29884 -11.76936,-7.98991 -0.98435,-1.20633 -1.19063,-1.78821 -1.19063,-3.35858 0,-1.10393 0.17078,-1.88603 0.57872,-2.65029 0.64478,-1.20798 5.4979,-6.267931 8.15253,-8.499986 0.94589,-0.795313 1.77932,-1.505857 1.85209,-1.578985 0.24801,-0.249262 3.03909,-2.294165 4.36562,-3.198502 0.7276,-0.496029 1.3626,-0.991168 1.41111,-1.100308 0.0485,-0.109141 0.20872,-0.198438 0.35603,-0.198438 0.14731,0 0.58388,-0.224185 0.97014,-0.498189 0.38627,-0.274003 1.14879,-0.750253 1.69449,-1.058333 0.5457,-0.308079 1.43867,-0.819906 1.98438,-1.137392 2.08622,-1.213748 6.19879,-3.132107 8.92968,-4.165364 0.87313,-0.330354 1.82563,-0.700228 2.11667,-0.821944 0.29104,-0.121715 0.94589,-0.3473 1.45521,-0.5013 0.50932,-0.154 1.52135,-0.47483 2.24896,-0.712956 0.7276,-0.238127 1.79916,-0.542158 2.38125,-0.675627 0.58208,-0.133469 1.47505,-0.34195 1.98437,-0.463293 10.72535,-2.555237 20.592953,-2.803581 31.220838,-0.785752 5.209548,0.989093 6.657776,1.708178 7.637359,3.792153 1.19693,2.546356 0.389298,5.253602 -2.023803,6.783944 -1.313908,0.833256 -2.913684,1.009388 -4.789109,0.52727 -2.640143,-0.678705 -6.374811,-1.239836 -10.962397,-1.647093 -3.15426,-0.280014 -4.315527,-0.262182 -8.466668,0.130012 -5.83535,0.551315 -8.06935,0.91627 -12.08705,1.974584 -4.99687,1.316241 -10.44858,3.54983 -14.88281,6.097545 -0.54571,0.313539 -1.43808,0.822545 -1.98306,1.131126 -3.08266,1.745491 -10.38621,7.508688 -10.38621,8.195708 0,0.21364 15.73195,10.75616 25.42791,17.04011 4.19155,2.71654 6.51416,4.88826 7.56615,7.07458 1.21195,2.51879 1.40177,3.33428 1.40177,6.0223 0,3.14161 -0.3293,4.26168 -2.15767,7.33901 -1.73918,2.92721 -2.18194,4.5551 -2.17771,8.00682 0.006,4.54728 1.158,7.41913 4.1965,10.45763 2.97335,2.97335 5.89215,4.16548 10.193047,4.16318 5.519037,-0.003 8.928783,-1.78924 12.68974,-6.64785 3.009257,-3.88753 6.310765,-5.58598 10.858178,-5.58598 3.584482,0 4.615855,0.41368 9.981033,4.00336 1.924307,1.2875 3.620948,2.34091 3.770313,2.34091 0.149365,0 0.271571,0.1 0.271571,0.22211 0,0.12217 0.302133,0.35978 0.671404,0.52803 0.369274,0.16825 0.815758,0.42377 0.992187,0.56782 0.735775,0.60072 20.360559,13.52216 20.424072,13.44772 0.107061,-0.1255 1.085573,-3.1151 1.4555,-4.44693 0.18189,-0.65484 0.421187,-1.48828 0.531775,-1.85208 0.439733,-1.44662 1.138987,-5.06664 1.606206,-8.31532 0.384805,-2.67563 0.376566,-13.12428 -0.0123,-15.59672 -0.416184,-2.64613 -0.771557,-4.59876 -1.089411,-5.98588 -0.53499,-2.3347 -1.351587,-5.4325 -1.569276,-5.95313 -0.121692,-0.29104 -0.484028,-1.30307 -0.80519,-2.24895 -0.94946,-2.79634 -3.128114,-7.47828 -4.73229,-10.16972 -1.558185,-2.61428 -1.92627,-3.18415 -3.71434,-5.75049 l -1.719792,-2.46834 v -1.89367 c 0,-1.72115 0.07455,-1.98629 0.818311,-2.91041 1.368314,-1.70013 2.335128,-2.20737 4.207251,-2.20737 2.065084,0 2.979426,0.45141 4.453626,2.19879 1.164397,1.38017 4.411437,6.10216 4.411437,6.41532 0,0.0922 0.226317,0.48557 0.502926,0.87403 0.650272,0.91322 3.484491,6.43123 4.095877,7.97436 0.25945,0.65484 0.626586,1.54781 0.815859,1.98437 0.189272,0.43656 0.489167,1.21047 0.666437,1.71979 0.177269,0.50933 0.417336,1.16417 0.533485,1.45521 0.312801,0.78381 0.691303,1.96662 1.058333,3.30729 0.179274,0.65485 0.419825,1.48828 0.534557,1.85209 0.379865,1.2045 1.170987,4.77432 1.553845,7.01146 0.799893,4.67402 0.934437,6.50967 0.930891,12.7 -0.0034,6.16264 -0.158136,8.24721 -0.931976,12.5677 -0.573368,3.20123 -0.829495,4.35846 -1.595739,7.2099 -0.381662,1.42029 -1.761742,5.694 -2.093283,6.48229 -0.137708,0.32742 -0.357574,0.86321 -0.488593,1.19063 -0.131019,0.32742 -0.505502,1.19062 -0.832183,1.91823 -0.556533,1.23953 -0.574871,1.4572 -0.290952,3.45331 0.687268,4.83192 0.195027,14.4753 -1.025718,20.09461 -1.206672,5.55452 -2.843194,10.78572 -4.676609,14.94895 -1.319366,2.99595 -3.628858,7.39832 -4.587277,8.7443 -0.285933,0.40155 -0.51988,0.80755 -0.51988,0.90221 0,0.18836 -2.107639,3.36886 -2.374138,3.58266 -0.09069,0.0728 -0.455123,0.54901 -0.809839,1.05833 -0.354719,0.50933 -0.789498,1.10464 -0.966179,1.32292 -6.150819,7.59907 -15.662736,19.68197 -16.669261,21.17481 -1.219163,1.80822 -3.194908,5.46091 -3.85966,7.13561 -0.144407,0.3638 -0.359693,0.89958 -0.478415,1.19062 -0.421137,1.03241 -0.987478,2.93522 -1.417484,4.7625 -0.239712,1.01865 -0.568946,2.32834 -0.731633,2.91042 -0.20301,0.72636 -0.344591,8.85966 -0.451364,25.92917 -0.172884,27.63901 -0.02699,25.57817 -1.940229,27.40656 -0.896739,0.85698 -4.85879,3.87767 -6.815619,5.19627 -1.118534,0.75372 -1.701869,1.10112 -4.165868,2.48089 -2.652522,1.48538 -6.186948,3.14857 -6.690945,3.14857 -0.143851,0 -0.468291,0.11343 -0.720979,0.2521 -0.593754,0.32578 -3.298658,1.19674 -4.825055,1.55361 -0.654844,0.15311 -1.488282,0.35205 -1.852084,0.44211 -2.887318,0.71478 -12.98159,1.19309 -14.15521,0.67072 z m 8.28928,-10.60293 c 2.462692,-0.2657 3.725797,-0.49613 5.998219,-1.09425 2.934721,-0.77245 5.461905,-1.84121 9.260417,-3.9163 0.582083,-0.31799 2.30849,-1.43148 3.836458,-2.47442 l 2.778125,-1.89626 0.07454,-3.10886 0.07454,-3.10885 h -25.143809 -25.14381 v 2.98834 2.98834 l 1.25677,0.94138 c 4.06304,3.04341 8.13003,5.32613 11.70781,6.57137 0.50932,0.17727 1.16417,0.41578 1.45521,0.53003 0.48588,0.19073 1.62638,0.51283 3.30729,0.93404 0.93495,0.23429 5.7549,0.84903 6.96635,0.88848 0.55729,0.0183 2.16464,-0.0912 3.57188,-0.24304 z m 22.062169,-32.55477 c 0.0416,-3.35935 0.02603,-6.15732 -0.03461,-6.21771 -0.06063,-0.0604 -11.401336,-0.1098 -25.201559,-0.1098 h -25.09132 v 6.21771 6.21771 h 25.12593 25.125925 z m 0.04151,-17.90303 c 0.07957,-0.5457 0.215839,-2.12328 0.302815,-3.50573 0.514679,-8.18069 3.794255,-17.53705 8.657025,-24.6978 0.909619,-1.33947 12.419666,-15.91607 12.880848,-16.31262 0.08462,-0.0728 0.568936,-0.66807 1.076259,-1.32291 0.507323,-0.65485 1.065511,-1.36922 1.24042,-1.5875 2.15347,-2.68747 2.873893,-3.65558 4.263342,-5.72908 2.38664,-3.56163 3.627993,-5.83664 5.704959,-10.45542 0.667044,-1.48339 2.529176,-7.03575 3.046291,-9.08321 1.234737,-4.88879 1.990553,-11.28386 1.844956,-15.61042 l -0.08904,-2.64583 -18.520834,-0.0659 -18.520834,-0.0659 -0.760277,0.60947 c -0.713897,0.57229 -0.774841,0.77807 -0.999009,3.37322 -0.131305,1.52006 -0.364551,3.24 -0.518324,3.82208 -0.153776,0.58209 -0.408149,1.53459 -0.565274,2.11667 -0.648894,2.40388 -2.899011,6.59875 -4.683419,8.73125 -2.753471,3.29061 -7.877885,6.92614 -11.156424,7.91495 -4.935759,1.48863 -8.333919,1.79056 -12.284819,1.0915 -5.41456,-0.95805 -9.6828,-3.11973 -13.56729,-6.87125 -3.00801,-2.90505 -3.80165,-4.07368 -6.39158,-9.41154 -0.42416,-0.87421 -1.32095,-5.30359 -1.55066,-7.65898 -0.22407,-2.29751 -0.30528,-2.5491 -1.00316,-3.10754 l -0.75935,-0.60764 -18.26948,-0.001 c -13.8583,-0.001 -18.34614,0.0753 -18.58698,0.31619 -0.57844,0.57844 -0.20455,8.61223 0.61938,13.30854 0.40835,2.32757 0.75714,3.84711 1.70048,7.40833 0.2442,0.92188 0.99593,3.20049 1.30932,3.96875 0.11872,0.29104 0.33591,0.82682 0.48264,1.19063 1.5615,3.87152 6.4118,12.63046 7.47222,13.49375 0.0894,0.0728 0.44868,0.54901 0.79846,1.05833 0.34978,0.50932 0.70191,0.98557 0.78251,1.05833 0.0806,0.0728 0.47149,0.56847 0.86864,1.10158 0.39715,0.53311 0.87273,1.12842 1.05683,1.32292 0.1841,0.1945 0.66035,0.78981 1.05833,1.32291 0.39798,0.53311 0.87423,1.12842 1.05833,1.32292 0.18411,0.1945 0.66036,0.78981 1.05834,1.32292 0.39798,0.5331 0.87594,1.12842 1.06214,1.32291 0.18619,0.1945 0.75047,0.88942 1.25393,1.54426 0.50347,0.65484 0.98109,1.25016 1.06137,1.32292 0.0803,0.0728 0.55653,0.66807 1.05833,1.32291 0.50181,0.65485 0.97806,1.25016 1.05834,1.32292 0.0803,0.0728 0.55653,0.66807 1.05833,1.32292 0.5018,0.65484 0.97805,1.25015 1.05833,1.32291 0.0803,0.0728 0.55653,0.66808 1.05834,1.32292 0.5018,0.65485 0.98889,1.25016 1.08243,1.32292 0.93862,0.73014 5.72708,9.14725 6.88631,12.10469 0.12833,0.32742 0.34459,0.8632 0.48056,1.19062 1.50929,3.63444 2.70368,9.16887 3.22616,14.94896 l 0.31688,3.50573 h 25.06912 25.069107 l 0.14468,-0.99219 z M -267.17243,173.60121 c -1.83292,-0.12409 -4.08928,-0.7637 -6.21771,-1.76251 -4.01314,-1.88326 -7.79309,-5.68739 -9.5248,-9.58575 -1.83974,-4.14157 -1.71999,-1.27795 -1.71999,-41.13021 0,-37.376446 -0.0292,-36.21107 0.98397,-39.290627 0.4463,-1.356582 1.33757,-3.113267 2.36136,-4.654212 1.02955,-1.549617 4.27204,-4.723524 5.47652,-5.360682 2.76194,-1.461041 3.50056,-1.794294 4.7973,-2.164464 0.80415,-0.229555 1.82774,-0.529906 2.27463,-0.667446 1.08367,-0.333518 68.71411,-0.336829 69.81244,-0.0034 0.44689,0.13566 1.34831,0.394073 2.00316,0.574251 4.76896,1.312166 9.48623,5.282113 11.77107,9.906268 2.05395,4.156868 2.24108,5.706819 2.24697,18.610542 0.005,9.83243 0.0418,10.71878 0.46789,11.11316 0.25467,0.23571 1.5927,1.67842 2.97341,3.20603 1.38071,1.52761 2.69065,2.95607 2.91099,3.17435 0.22033,0.21828 1.41212,1.52797 2.64842,2.91041 1.23629,1.38245 2.42666,2.69315 2.64526,2.91267 0.21859,0.21951 0.99276,1.05501 1.72036,1.85665 0.72761,0.80165 2.50708,2.74206 3.95438,4.31202 3.24146,3.51616 3.7562,4.26213 3.98256,5.77166 0.26956,1.79753 -0.25464,3.34998 -1.55114,4.59388 -1.6784,1.61029 -2.42213,1.71979 -11.68126,1.71979 h -8.066 l -0.005,7.73907 c -0.007,9.86223 -0.28253,11.65682 -2.45075,15.94114 -2.1515,4.2513 -6.64752,8.06654 -11.03779,9.36649 -0.65485,0.1939 -1.54782,0.48553 -1.98438,0.64807 -0.56757,0.21132 -10.2933,0.30364 -34.13125,0.32398 -18.33563,0.0157 -33.93281,-0.0118 -34.66042,-0.0611 z m 68.28178,-11.35592 c 2.7456,-1.25586 4.57872,-3.70083 5.1294,-6.84145 0.16015,-0.91334 0.27528,-6.03283 0.27528,-12.24057 0,-11.31097 -0.0311,-11.01092 1.30442,-12.56831 1.28326,-1.4964 1.80241,-1.61481 7.62527,-1.73919 2.94679,-0.0629 5.35659,-0.19152 5.35509,-0.28572 -0.002,-0.0942 -0.56704,-0.77261 -1.25677,-1.50759 -0.68973,-0.73497 -2.38372,-2.58044 -3.76443,-4.10104 -1.38071,-1.5206 -2.6904,-2.94332 -2.91042,-3.1616 -0.22002,-0.21828 -0.92531,-0.99218 -1.56732,-1.71979 -0.64201,-0.7276 -1.73462,-1.92886 -2.42804,-2.66947 -2.51403,-2.68511 -2.3578,-1.67897 -2.3578,-15.18493 0,-7.327356 -0.10773,-12.422862 -0.28092,-13.287265 -0.73949,-3.690895 -2.97491,-6.185265 -6.57158,-7.332835 -0.62641,-0.199865 -10.7848,-0.28609 -33.46979,-0.284095 -35.53084,0.0031 -33.89172,-0.0648 -36.27081,1.503064 -1.45182,0.956772 -2.40205,2.062443 -3.25352,3.785739 l -0.71901,1.455208 v 35.189584 35.18959 l 0.62027,1.24786 c 0.97112,1.95373 2.53561,3.54332 4.35674,4.42663 l 1.63758,0.79428 33.52809,0.007 33.5281,0.007 1.49017,-0.68162 z m -43.54324,-21.37781 c -1.16638,-0.36425 -13.62861,-12.57536 -14.49994,-14.20777 -1.87452,-3.51185 0.65082,-7.65364 4.66661,-7.65364 2.07521,0 3.00523,0.64556 7.58083,5.2621 2.03534,2.05356 3.85211,3.73374 4.03727,3.73374 0.18516,0 5.21934,-4.88483 11.18708,-10.85518 5.96773,-5.97035 11.26856,-11.09004 11.77962,-11.37709 1.38189,-0.77616 3.78883,-0.71747 5.12327,0.12493 1.58215,0.99877 2.66901,2.84258 2.66901,4.52788 0,2.0256 -0.63145,2.74618 -14.61978,16.68323 -11.61323,11.57066 -13.71458,13.55289 -14.64737,13.81702 -1.26437,0.35802 -1.9926,0.34575 -3.2766,-0.0552 z M -61.503699,98.391384 c -2.022909,-1.011121 -2.997891,-2.558931 -2.997891,-4.759222 0,-2.424618 1.054584,-4.017684 3.273457,-4.944917 1.314532,-0.549322 3.17582,-0.469664 4.267168,0.182623 2.001102,1.196039 2.78555,2.579746 2.759396,4.867376 -0.01931,1.689566 -0.511853,2.751857 -1.820802,3.927076 -1.404639,1.261131 -3.78196,1.576467 -5.481328,0.727064 z"
         id="path252" /></g></g></svg>
