<?xml version="1.0" encoding="UTF-8" standalone="no"?>
<!-- Created with Inkscape (http://www.inkscape.org/) -->

<svg
   width="200"
   height="200"
   viewBox="0 0 52.916665 52.916666"
   version="1.1"
   id="svg5"
   xml:space="preserve"
   inkscape:version="1.2.2 (732a01da63, 2022-12-09)"
   sodipodi:docname="sevicio02.svg"
   xmlns:inkscape="http://www.inkscape.org/namespaces/inkscape"
   xmlns:sodipodi="http://sodipodi.sourceforge.net/DTD/sodipodi-0.dtd"
   xmlns="http://www.w3.org/2000/svg"
   xmlns:svg="http://www.w3.org/2000/svg"><sodipodi:namedview
     id="namedview7"
     pagecolor="#ffffff"
     bordercolor="#666666"
     borderopacity="1.0"
     inkscape:showpageshadow="2"
     inkscape:pageopacity="0.0"
     inkscape:pagecheckerboard="0"
     inkscape:deskcolor="#d1d1d1"
     inkscape:document-units="mm"
     showgrid="false"
     inkscape:zoom="1.4778237"
     inkscape:cx="163.75431"
     inkscape:cy="42.96859"
     inkscape:window-width="1260"
     inkscape:window-height="778"
     inkscape:window-x="-6"
     inkscape:window-y="-6"
     inkscape:window-maximized="1"
     inkscape:current-layer="layer1" /><defs
     id="defs2" /><g
     inkscape:label="Capa 1"
     inkscape:groupmode="layer"
     id="layer1"><path
       style="fill:#ffffff;stroke-width:0.110236"
       d="M 7.5398576,52.671452 C 6.8317912,52.114488 3.7224861,47.010131 2.0445829,43.650194 0.59276195,40.742981 0.08663872,39.266842 0.01394413,37.727715 -0.04778983,36.420713 0.08942685,35.568682 0.54664892,34.41999 2.1267414,30.450233 6.4587273,28.296943 10.569028,29.438188 c 1.449496,0.402459 2.464605,1.013083 3.647048,2.193826 0.905949,0.904647 1.124718,1.198664 1.561964,2.099224 1.174921,2.419879 1.205461,4.253287 0.118438,7.110179 -0.845661,2.222543 -2.690573,5.665417 -4.938121,9.21525 l -1.0432548,1.647744 16.6708558,-0.03073 16.670852,-0.03073 0.881883,-0.252169 c 3.52905,-1.009104 6.304538,-3.805525 7.242814,-7.297433 0.361699,-1.346107 0.361699,-3.72472 0,-5.070825 -0.81269,-3.024522 -3.096434,-5.663167 -5.88062,-6.794483 -0.381559,-0.155042 -1.067371,-0.386642 -1.524027,-0.514669 -0.800216,-0.224343 -1.1217,-0.234936 -8.877461,-0.292488 l -8.047176,-0.05971 -0.730131,-0.345943 c -1.78361,-0.845088 -2.721087,-2.408382 -2.608681,-4.350122 0.09077,-1.567956 1.057893,-2.981764 2.512047,-3.672278 l 0.71653,-0.340248 7.260543,-0.03062 c 5.350274,-0.02257 7.300741,0.0028 7.413324,0.09617 0.215538,0.178882 0.189792,0.693546 -0.04534,0.906341 -0.177879,0.160977 -0.924035,0.182431 -7.303088,0.209996 l -7.104967,0.03069 -0.586844,0.325079 c -1.809198,1.002199 -2.209644,3.371351 -0.829336,4.906587 0.277736,0.30891 0.71272,0.634218 1.05467,0.788747 l 0.58198,0.262999 8.047176,0.06199 c 8.707444,0.06708 8.386722,0.0451 10.105905,0.692208 2.782217,1.047223 4.888353,2.960177 6.208967,5.639449 0.824205,1.672153 1.052823,2.604117 1.1251,4.586492 0.08461,2.320792 -0.235295,3.766833 -1.274417,5.760519 -1.396985,2.680297 -3.921386,4.718414 -7.016025,5.664504 l -0.992118,0.303311 -17.867953,0.02981 -17.8679524,0.02981 z m 1.6073433,-2.07421 C 10.445307,48.61969 12.488784,45.138855 13.386055,43.376828 15.338398,39.542884 15.770692,37.684426 15.194123,35.603807 14.845267,34.34492 14.376583,33.566794 13.328816,32.506961 12.29763,31.463899 11.361426,30.916785 10.02087,30.57381 9.097023,30.33745 7.5294946,30.337125 6.6035758,30.573106 4.2290487,31.178277 2.2973171,33.028802 1.465685,35.495002 1.3164496,35.93756 1.2606861,36.428771 1.2592004,37.313886 c -0.00181,1.093136 0.035826,1.326611 0.382293,2.370059 0.7306323,2.200419 3.3216039,7.039102 5.7256927,10.692827 0.8081446,1.228215 0.8951945,1.340411 1.0077988,1.298935 0.046631,-0.01717 0.3941318,-0.502485 0.772216,-1.078465 z M 6.879165,42.505508 C 3.0016845,41.274034 1.845718,36.496919 4.7645076,33.766534 7.7326333,30.989995 12.36281,32.36095 13.379555,36.31737 c 0.658553,2.562603 -0.914309,5.335877 -3.4789481,6.134082 -0.7845333,0.244174 -2.3354615,0.271923 -3.0214419,0.05406 z M 10.057996,41.0593 c 1.366699,-0.675778 2.197285,-2.028901 2.197542,-3.58006 3.32e-4,-1.847598 -1.180963,-3.347298 -3.0023137,-3.811636 -1.7738424,-0.452229 -3.6645082,0.453961 -4.501102,2.157363 -0.2637041,0.536932 -0.298124,0.734343 -0.2980494,1.70939 7.57e-5,0.984077 0.031944,1.16276 0.2970404,1.665373 0.5521883,1.046934 1.0853283,1.536783 2.1713136,1.995002 0.8899129,0.375487 2.2183199,0.31811 3.1355691,-0.135432 z m 3.893311,8.233998 c -0.213404,-0.235808 -0.239302,-0.689569 -0.05015,-0.878716 0.09192,-0.09193 0.67366,-0.132282 1.907071,-0.132282 1.912211,0 2.039353,0.03535 2.039353,0.566973 0,0.552943 -0.301713,0.645616 -2.101914,0.645616 -1.421599,0 -1.633457,-0.02381 -1.794355,-0.201591 z m 9.428468,0.126209 C 23.10885,49.311121 23.006386,48.828733 23.1936,48.543008 L 23.364424,48.2823 h 3.136622 3.136624 l 0.175728,0.268195 c 0.144235,0.220129 0.151611,0.313975 0.04116,0.523619 -0.07402,0.140482 -0.189154,0.291866 -0.255864,0.33641 -0.136243,0.09097 -5.992826,0.09943 -6.218915,0.009 z m 12.019741,-0.09621 c -0.269911,-0.189054 -0.33198,-0.689442 -0.112717,-0.908705 0.09663,-0.09663 0.970769,-0.132282 3.244067,-0.132282 2.681916,0 3.135716,0.02394 3.285011,0.173226 0.235928,0.235928 0.217573,0.554076 -0.04724,0.818893 -0.209492,0.209491 -0.367451,0.22047 -3.172296,0.22047 -2.49322,0 -2.989888,-0.02666 -3.196823,-0.171602 z M 46.57012,46.714486 c -0.241283,-0.34448 -0.224329,-0.416923 0.254494,-1.087439 0.901328,-1.262168 1.263136,-2.262778 1.398357,-3.867273 0.04256,-0.505091 0.126808,-0.980357 0.187203,-1.056144 0.195604,-0.245454 0.721918,-0.16408 0.922923,0.142692 0.150706,0.230006 0.171148,0.443274 0.11359,1.185029 -0.123217,1.587883 -0.687747,3.09527 -1.628891,4.349398 -0.349813,0.466146 -0.496729,0.578735 -0.755187,0.578735 -0.206629,0 -0.381988,-0.08724 -0.492489,-0.244998 z M 15.937103,45.767491 c -0.235559,-0.260291 -0.232956,-0.488225 0.009,-0.780345 l 0.192911,-0.232991 13.117999,-0.02725 c 13.087275,-0.02718 13.119163,-0.02779 13.614059,-0.259829 1.079018,-0.5059 1.874001,-1.733425 1.874001,-2.893626 0,-0.872074 -0.296873,-1.541227 -0.99289,-2.237968 -1.016238,-1.017292 -0.610434,-0.974358 -9.209448,-0.974358 -8.006068,0 -8.369157,-0.02178 -10.077736,-0.604452 -3.859971,-1.316358 -6.688362,-4.529049 -7.522924,-8.545081 -0.179697,-0.864724 -0.207874,-1.325805 -0.161683,-2.645647 0.06865,-1.961522 0.295873,-2.890129 1.119426,-4.574766 1.483751,-3.035121 3.98584,-5.062637 7.498956,-6.076622 0.576526,-0.166402 1.350226,-0.19631 6.028499,-0.233033 l 5.367086,-0.04213 0.175165,0.267335 c 0.201974,0.308251 0.08892,0.770934 -0.217087,0.888356 -0.100548,0.03858 -2.324209,0.0708 -4.941473,0.0716 -4.207173,0.0013 -4.873865,0.02523 -5.752735,0.206621 -1.93265,0.398894 -3.725503,1.362199 -5.107679,2.744377 -3.903918,3.90392 -3.989388,10.113299 -0.194199,14.108649 1.334306,1.404676 2.983492,2.392577 4.862893,2.912982 0.862881,0.238931 1.055268,0.245487 8.929059,0.304265 l 8.047176,0.06007 0.637666,0.257376 c 0.892943,0.360412 1.852897,1.276272 2.309177,2.203108 0.337748,0.68606 0.360216,0.804194 0.360216,1.893811 0,1.087117 -0.02301,1.208829 -0.35646,1.886179 -0.435117,0.883851 -1.322019,1.756568 -2.206218,2.170934 L 42.70571,45.91223 29.413443,45.94152 C 16.61461,45.969726 16.114349,45.96326 15.937179,45.767489 Z M 44.9678,35.868096 c -0.997029,-0.620918 -1.686325,-0.82254 -3.254284,-0.951893 -0.788182,-0.06502 -1.495066,-0.165893 -1.570852,-0.224152 -0.228311,-0.175509 -0.164728,-0.708975 0.107205,-0.899444 0.291063,-0.20387 1.134043,-0.222895 2.35453,-0.05314 1.712493,0.238186 3.810206,1.253592 3.882779,1.879473 0.04234,0.365113 -0.236285,0.651078 -0.620154,0.636495 -0.162398,-0.0062 -0.56705,-0.180471 -0.899224,-0.387338 z M 28.061425,34.631999 c -0.242446,-0.2679 -0.230208,-0.522284 0.03804,-0.790525 0.209492,-0.209493 0.36745,-0.220471 3.172294,-0.220471 3.253356,0 3.441823,0.03536 3.441823,0.645614 0,0.560724 -0.03712,0.566974 -3.367137,0.566974 -2.865726,0 -3.116503,-0.01539 -3.285014,-0.201592 z m -5.877138,-2.416496 c -1.07226,-1.150041 -1.784167,-2.828607 -1.964445,-4.631858 -0.0967,-0.96719 0.07304,-1.34841 0.600377,-1.34841 0.44948,0 0.665122,0.351255 0.665122,1.08341 0,1.193392 0.520097,2.602406 1.385598,3.753778 0.671174,0.892858 0.636704,1.446227 -0.09009,1.446227 -0.200451,0 -0.41609,-0.109577 -0.596568,-0.303147 z m 21.709616,-8.585509 c -0.394967,-0.194736 -1.272082,-1.484096 -3.271645,-4.809332 -2.956326,-4.916311 -4.475625,-8.516767 -4.475625,-10.6064098 0,-0.8083059 0.263908,-2.1186363 0.588614,-2.9225276 0.45634,-1.129783 0.969647,-1.887012 1.953063,-2.8811608 0.822901,-0.831884 1.090153,-1.0243473 2.094469,-1.50835076 C 42.156212,0.24032467 43.16304,-0.00103872 44.546278,3.358058e-6 46.949513,0.00181227 48.999606,0.90452755 50.675209,2.6987462 52.503637,4.6566109 53.287843,7.4500371 52.68449,9.8560358 52.016047,12.5216 49.736861,16.971691 46.488665,21.953327 c -1.208566,1.853534 -1.653249,2.140876 -2.594762,1.676667 z m 1.484933,-2.217639 c 2.859906,-4.425513 4.971588,-8.365769 5.83389,-10.885652 C 51.585479,9.437415 51.627395,9.2020252 51.624951,8.2117617 51.620151,6.2647657 50.998805,4.8153389 49.535313,3.3371568 48.813591,2.6081904 48.456954,2.3441193 47.711263,1.9865413 45.564699,0.95720865 43.434976,0.96163289 41.32906,1.999799 c -0.734972,0.3623234 -1.125397,0.6523616 -1.820446,1.3523679 -1.256351,1.2653118 -1.903662,2.619958 -2.08636,4.3661809 -0.150013,1.4338073 0.475964,3.4021532 2.085056,6.5563552 1.413097,2.770004 4.801373,8.322767 5.078522,8.322767 0.01493,0 0.37178,-0.533302 0.793004,-1.185115 z m -2.177142,-8.05418 c -1.274822,-0.333216 -2.285366,-1.062128 -2.997497,-2.162108 -1.720404,-2.6573948 -0.757169,-6.1450774 2.074918,-7.512879 2.885262,-1.3934819 6.286341,0.1082836 7.224962,3.1902218 0.187412,0.6153595 0.220273,0.9474567 0.176519,1.7839352 -0.04656,0.8901759 -0.10722,1.1403888 -0.45296,1.868417 -1.100968,2.318327 -3.56384,3.475967 -6.025942,2.832413 z m 2.79366,-1.346276 c 0.852525,-0.31897 1.637591,-1.05803 2.080881,-1.958935 0.327619,-0.6658279 0.361635,-0.8284593 0.361635,-1.7290213 0,-0.8752346 -0.03847,-1.07241 -0.321801,-1.6494703 -0.683648,-1.3923813 -1.880088,-2.1765202 -3.426198,-2.2455128 -0.698687,-0.031176 -1.011386,0.00927 -1.505295,0.1946509 -3.078044,1.1553664 -3.531717,5.2784477 -0.775414,7.0471615 1.080345,0.693256 2.327876,0.811924 3.586192,0.341127 z m -22.905301,9.563422 c -0.250702,-0.38262 -0.09529,-0.697693 0.558042,-1.131351 1.315082,-0.872903 2.505246,-1.24982 4.23603,-1.341526 1.001335,-0.05305 1.188654,-0.03555 1.350382,0.126175 0.219349,0.219349 0.248782,0.758299 0.04998,0.915184 -0.07578,0.0598 -0.633854,0.13942 -1.240147,0.176917 -1.59814,0.09884 -2.672018,0.4341 -3.736628,1.166572 -0.589954,0.4059 -0.990414,0.43485 -1.21766,0.08803 z m 11.79675,-1.466019 c -0.232303,-0.232303 -0.219038,-0.633027 0.02836,-0.856923 0.168699,-0.152672 0.471039,-0.18244 1.85293,-0.18244 1.806498,0 2.051743,0.07016 2.051743,0.586995 0,0.588114 -0.120867,0.625594 -2.01742,0.625594 -1.437011,0 -1.772751,-0.03036 -1.915618,-0.173226 z"
       id="path340"
       sodipodi:nodetypes="ssscssssscccsssssscssscccsccssscscsssscccsssssssscssssssssssscssssssssssssscscccsssccssssssssssssssssscccssssssssssscssccsssscssssscsccsssssscssssssssscsssssccssssssssssscssssssssscsssssssssssscssssssssssssssssss" /></g></svg>
