<?xml version="1.0" encoding="UTF-8" standalone="no"?>
<!-- Created with Inkscape (http://www.inkscape.org/) -->

<svg
   width="200"
   height="200"
   viewBox="0 0 52.916665 52.916666"
   version="1.1"
   id="svg5"
   xml:space="preserve"
   inkscape:version="1.2.2 (732a01da63, 2022-12-09)"
   sodipodi:docname="sevicio07.svg"
   xmlns:inkscape="http://www.inkscape.org/namespaces/inkscape"
   xmlns:sodipodi="http://sodipodi.sourceforge.net/DTD/sodipodi-0.dtd"
   xmlns="http://www.w3.org/2000/svg"
   xmlns:svg="http://www.w3.org/2000/svg"><sodipodi:namedview
     id="namedview7"
     pagecolor="#ffffff"
     bordercolor="#666666"
     borderopacity="1.0"
     inkscape:showpageshadow="2"
     inkscape:pageopacity="0.0"
     inkscape:pagecheckerboard="0"
     inkscape:deskcolor="#d1d1d1"
     inkscape:document-units="mm"
     showgrid="false"
     inkscape:zoom="2.0899583"
     inkscape:cx="122.49048"
     inkscape:cy="118.42342"
     inkscape:window-width="1260"
     inkscape:window-height="778"
     inkscape:window-x="-6"
     inkscape:window-y="-6"
     inkscape:window-maximized="1"
     inkscape:current-layer="layer1" /><defs
     id="defs2" /><g
     inkscape:label="Capa 1"
     inkscape:groupmode="layer"
     id="layer1"><g
       id="g5455"
       style="fill:#ffffff"><path
         style="fill:#ffffff;stroke-width:0.103353"
         d="M 22.042539,51.092782 C 21.459121,50.877943 20.6365,50.122345 20.356645,49.544244 20.231903,49.286559 20.100352,48.834125 20.06431,48.538834 l -0.06553,-0.536891 -0.536891,-0.06553 c -0.750493,-0.0916 -1.397629,-0.434278 -1.92243,-1.017983 -0.453027,-0.503876 -0.796295,-1.306626 -0.796295,-1.862177 0,-0.262736 -0.04065,-0.292413 -0.490926,-0.358408 -1.45744,-0.213611 -2.583503,-1.331426 -2.775185,-2.75486 l -0.06435,-0.477901 -0.49712,-0.05888 c -1.023513,-0.121217 -2.053662,-0.894794 -2.480963,-1.86304 -0.155685,-0.352778 -0.220925,-0.710398 -0.220925,-1.211027 0,-0.954032 0.310151,-1.611809 1.209519,-2.565186 l 0.700181,-0.742229 -0.878366,-0.90112 C 9.828907,32.670794 9.314391,31.71942 8.941119,29.863515 8.843939,29.38034 8.670238,28.763927 8.555115,28.493709 L 8.345801,28.002402 7.944982,28.364518 C 7.219607,29.019851 7.371278,29.126306 3.486121,25.234953 1.541608,23.287337 0,21.662577 0,21.560793 0,21.190927 0.327528,20.786399 1.833956,19.295684 3.168003,17.975552 3.41846,17.771229 3.702621,17.771229 c 0.428009,0 0.741553,0.316215 0.741553,0.747872 0,0.29015 -0.171141,0.50598 -1.291798,1.629131 l -1.291799,1.294672 1.628442,1.626055 1.628441,1.626055 6.303414,-6.30405 6.303415,-6.304051 -1.6274,-1.627399 -1.627401,-1.627401 -4.022688,4.021695 c -1.7336464,1.733218 -1.9381403,1.905029 -2.2403013,1.905029 -0.411789,0 -0.715483,-0.336957 -0.715483,-0.793849 0,-0.287882 0.2839211,-0.607008 2.2513523,-2.574438 4.087515,-4.0875126 4.391198,-4.3680192 4.728972,-4.3680192 0.336291,0 0.596894,0.23602 3.814083,3.4542842 3.860991,3.862282 3.785237,3.754121 3.114227,4.446426 -0.186396,0.192312 -0.31117,0.394531 -0.277275,0.449375 0.152886,0.247374 0.886407,0.464745 1.814361,0.537664 1.177924,0.09256 1.830636,0.341147 2.777763,1.057908 0.358285,0.27114 0.671818,0.492983 0.696737,0.492983 0.02492,0 0.266629,-0.169871 0.53713,-0.377493 0.975652,-0.748851 2.38516,-1.27435 3.425645,-1.277163 0.371472,-10e-4 1.458672,-0.435978 1.458672,-0.583594 0,-0.04254 -0.147278,-0.229301 -0.327284,-0.415021 -0.65966,-0.680596 -0.728151,-0.583509 3.129596,-4.436291 3.19975,-3.1956317 3.483331,-3.4524311 3.812496,-3.4524311 0.329903,0 0.661276,0.2442667 4.156781,3.8011661 2.54843,2.59319 2.701471,2.741306 2.701471,3.011154 0,0.609432 -0.563347,1.013309 -1.061487,0.761005 -0.126733,-0.06419 -0.642676,-0.523546 -2.490612,-2.365195 l -3.359883,-3.3484509 -1.600271,1.6027719 -1.60027,1.602773 6.303377,6.304012 6.303376,6.304012 1.601574,-1.601574 1.601575,-1.601575 -1.771033,-1.783185 c -0.974069,-0.980753 -1.823638,-1.886877 -1.887933,-2.01361 -0.251174,-0.495098 0.150921,-1.061487 0.753581,-1.061487 0.255538,0 0.637474,0.332336 2.450562,2.13232 1.181313,1.172776 2.203103,2.265733 2.270644,2.428793 0.09433,0.227741 0.09462,0.364501 0.0013,0.589923 -0.06685,0.161398 -1.621931,1.789206 -3.455727,3.617351 -3.064193,3.054751 -3.362569,3.323898 -3.684846,3.323898 -0.26274,0 -0.445605,-0.0927 -0.729262,-0.369683 l -0.37859,-0.369683 -0.233843,0.378367 c -0.163021,0.263774 -0.275947,0.701543 -0.372863,1.445447 -0.234635,1.800994 -0.714438,2.703054 -2.296073,4.316765 l -0.988666,1.008715 1.512171,1.524332 c 1.801832,1.81632 2.040514,2.218067 2.040514,3.434556 0,0.595505 -0.05589,0.894906 -0.241155,1.29191 -0.423952,0.908479 -1.394156,1.602585 -2.457841,1.758393 -0.478582,0.0701 -0.478977,0.0705 -0.543694,0.551145 -0.197974,1.4703 -1.500978,2.703076 -2.857062,2.703076 h -0.38054 l -0.0572,0.55425 c -0.121682,1.178974 -1.028686,2.293797 -2.125652,2.612693 -0.767744,0.22319 -1.729477,0.142789 -2.389769,-0.199782 l -0.500355,-0.259565 -0.167237,0.437905 c -0.235359,0.616275 -1.010019,1.356021 -1.684155,1.608248 -1.287045,0.481546 -2.426281,0.171881 -3.642513,-0.9901 l -0.793466,-0.758074 -0.653107,0.658965 c -0.917014,0.925237 -1.500144,1.221649 -2.480957,1.261098 -0.519165,0.02088 -0.92481,-0.02232 -1.215816,-0.129476 z m 1.811268,-1.53356 c 0.334376,-0.17737 3.773642,-3.630936 3.93707,-3.953439 0.310308,-0.612353 -0.0081,-1.682949 -0.603925,-2.030788 -0.4357,-0.254346 -1.15499,-0.245365 -1.580983,0.01974 -0.510467,0.317676 -3.768769,3.642845 -3.894757,3.974685 -0.169314,0.445958 -0.13123,1.017312 0.09224,1.383815 0.389239,0.638376 1.41678,0.942067 2.050356,0.605986 z m 6.610395,-0.05811 c 0.645574,-0.393611 0.915651,-1.20075 0.64233,-1.919637 -0.105102,-0.276439 -1.510746,-1.801624 -1.660416,-1.801624 -0.04283,0 -0.134032,0.170169 -0.202672,0.378152 -0.07413,0.224622 -0.453545,0.720579 -0.93451,1.221562 l -0.809707,0.843412 0.53892,0.52574 c 0.994534,0.970211 1.70661,1.191047 2.426055,0.752395 z m 4.954378,-1.649656 c 0.579223,-0.353174 0.873124,-1.069822 0.708209,-1.726895 -0.04489,-0.178869 -0.790377,-1.014326 -1.982884,-2.222199 -1.852169,-1.876037 -1.909947,-1.947343 -1.878539,-2.318375 0.04201,-0.496301 0.444246,-0.826461 0.876069,-0.719093 0.187745,0.04668 0.943816,0.718978 2.101893,1.868999 1.987123,1.973301 2.317757,2.195393 2.996313,2.012678 0.855297,-0.230308 1.350563,-0.986617 1.193684,-1.822848 -0.063,-0.335829 -0.362699,-0.686638 -1.983605,-2.321885 -1.649938,-1.664537 -1.910667,-1.97121 -1.91879,-2.256907 -0.0121,-0.425719 0.317,-0.764407 0.742774,-0.764407 0.274304,0 0.579203,0.258357 2.20199,1.865872 1.960005,1.941557 2.362337,2.218731 2.99142,2.06084 0.482934,-0.121209 0.951511,-0.531369 1.147614,-1.004543 0.166731,-0.402305 0.176464,-0.52963 0.07091,-0.927703 -0.110389,-0.416314 -0.581954,-0.983656 -5.139155,-5.491742 -2.963314,-2.931377 -3.425484,-3.458176 -3.356343,-3.735173 0.111636,-0.44724 0.353961,-0.654064 0.766332,-0.654064 0.34314,0 0.788625,0.414937 1.708797,1.332218 l 2.928923,2.919719 1.004327,-1.033529 c 1.284108,-1.321444 1.636729,-1.964248 1.830389,-3.336669 0.160658,-1.138541 0.327539,-1.672919 0.713246,-2.283918 0.213044,-0.337484 0.244713,-0.46216 0.153954,-0.606088 -0.06285,-0.09966 -2.400401,-2.471448 -5.194567,-5.270639 l -5.080302,-5.089436 -0.465088,0.290387 c -0.72216,0.450895 -1.318308,0.648511 -2.244689,0.744088 -1.65822,0.171084 -1.667835,0.178219 -5.905953,4.382621 -2.500429,2.480539 -3.822678,3.866601 -3.950976,4.141659 -0.370166,0.793591 -0.169447,1.944453 0.436236,2.501258 0.136105,0.125124 0.475474,0.328356 0.754151,0.451628 0.578532,0.255912 1.256366,0.230339 1.836461,-0.06929 0.187799,-0.097 1.809849,-1.634278 3.604555,-3.416172 3.52382,-3.498666 3.554967,-3.521603 4.094129,-3.015087 0.406803,0.382173 0.316978,0.718105 -0.395739,1.480001 l -0.634944,0.678757 0.789974,0.811773 c 0.641574,0.659278 0.789972,0.872247 0.789972,1.133699 0,0.421167 -0.319163,0.735339 -0.747022,0.735339 -0.277802,0 -0.467909,-0.133511 -1.13643,-0.798111 l -0.802819,-0.798111 -2.093347,2.083716 c -1.8367,1.828248 -2.182046,2.125608 -2.816818,2.425411 -0.966159,0.456318 -2.165565,0.530125 -3.074402,0.189188 -0.823525,-0.308934 -1.618318,-1.057511 -1.999688,-1.88341 -0.261671,-0.566676 -0.300053,-0.769783 -0.298658,-1.580418 0.0027,-1.566261 0.01195,-1.579659 3.542121,-5.131533 L 25.34802,18.618586 24.895486,18.285303 C 24.187126,17.763609 23.58944,17.541321 22.636625,17.445198 21.582901,17.338894 20.985262,17.15322 20.360513,16.738057 l -0.465088,-0.309064 -5.21932,5.220052 -5.219319,5.220051 0.239502,0.418728 c 0.337206,0.589545 0.517596,1.13536 0.748779,2.265622 0.295381,1.444127 0.753341,2.296184 1.84852,3.439259 l 0.908013,0.947723 0.785471,-0.733543 c 1.035189,-0.966752 1.544448,-1.209723 2.549982,-1.216612 0.645082,-0.0044 0.874547,0.04303 1.362356,0.281688 0.956826,0.468132 1.602287,1.374314 1.70792,2.397799 l 0.05598,0.542413 0.503528,0.05964 c 1.462077,0.173162 2.570066,1.27882 2.742766,2.736997 0.06228,0.52588 0.07022,0.53634 0.406984,0.53634 0.593067,0 1.484848,0.404723 1.97766,0.897535 0.531092,0.531093 0.811317,1.104671 0.91221,1.867155 l 0.0718,0.542602 0.425935,0.0079 c 1.087812,0.02008 2.349998,0.989198 2.603425,1.998931 0.0539,0.214772 0.129246,0.266969 0.38535,0.266969 0.274051,0 0.57807,0.257005 2.185044,1.847146 1.026684,1.015928 1.959717,1.898181 2.073405,1.960561 0.335,0.18381 1.101086,0.140755 1.467163,-0.08246 z M 20.670573,46.186042 c 0.142111,-0.100787 1.083914,-1.015365 2.092896,-2.032396 1.900818,-1.915979 1.913951,-1.935249 1.844008,-2.705785 -0.09282,-1.0226 -1.141852,-1.624847 -2.10571,-1.208885 -0.182917,0.07894 -1.177569,0.997487 -2.210337,2.041219 -1.58736,1.604209 -1.888964,1.958321 -1.950205,2.289724 -0.08761,0.474114 0.150105,1.171865 0.516522,1.516096 0.454066,0.426573 1.287554,0.472562 1.812826,0.100027 z m -3.538804,-3.149603 c 0.472797,-0.197548 3.782431,-3.45206 4.063922,-3.99624 0.39193,-0.757681 0.159327,-1.567728 -0.573485,-1.997184 -0.490752,-0.2876 -1.059772,-0.329381 -1.48122,-0.108761 -0.153499,0.08035 -1.122016,0.998903 -2.152261,2.041219 -1.976442,1.9996 -2.097846,2.181616 -1.956756,2.933688 0.120771,0.643764 0.846448,1.271928 1.481971,1.282828 0.129725,0.0022 0.407748,-0.06777 0.617829,-0.15555 z m -3.437514,-3.261682 c 0.332594,-0.09078 0.77361,-0.469496 2.255955,-1.937291 1.0134,-1.003451 1.908694,-1.950045 1.989543,-2.103544 0.302764,-0.574818 0.0882,-1.547889 -0.413852,-1.876844 -0.416339,-0.272797 -1.071717,-0.3992 -1.439851,-0.277704 -0.497306,0.164125 -4.259049,3.981108 -4.350643,4.41453 -0.151917,0.718861 0.349442,1.581029 1.039454,1.787514 0.408596,0.122272 0.448043,0.121985 0.919394,-0.0067 z m 5.657445,-26.058792 -0.542391,-0.54239 -6.302612,6.301976 -6.30261,6.301976 0.539316,0.5461 0.539317,0.546101 6.305685,-6.305685 6.305686,-6.305687 z m 21.061557,5.659731 -6.305686,-6.305686 -0.542391,0.542391 -0.542391,0.54239 6.301977,6.302612 6.301976,6.302611 0.5461,-0.539316 0.546101,-0.539317 z M 10.060658,16.472467 c -0.476336,-0.476336 -0.327795,-0.733304 1.444813,-2.499456 1.702827,-1.696625 1.849452,-1.780474 2.381551,-1.361924 0.192487,0.15141 0.272321,0.310835 0.272321,0.543814 0,0.287832 -0.206463,0.535767 -1.628983,1.956203 -1.788028,1.78541 -1.954109,1.876956 -2.469702,1.361363 z M 40.358111,15.00654 c -1.745508,-1.778925 -1.845307,-1.961123 -1.347101,-2.459328 0.49392,-0.493921 0.76371,-0.340813 2.499842,1.418682 1.341257,1.359307 1.587294,1.668471 1.587294,1.994563 0,0.283282 -0.478247,0.673891 -0.825087,0.673891 -0.273667,0 -0.539175,-0.225697 -1.914948,-1.627808 z M 26.127338,12.870889 c -0.320374,-0.159723 -0.492493,-0.541252 -0.494304,-1.095705 -0.0015,-0.465467 -0.0028,-0.467135 -0.511943,-0.647953 -0.818933,-0.290859 -1.467072,-1.2079998 -1.33366,-1.8871773 0.01947,-0.09913 0.16321,-0.275566 0.319418,-0.3920808 0.384835,-0.2870496 0.756082,-0.1491107 1.140935,0.4239217 l 0.294036,0.4378107 h 0.82469 c 0.737793,0 0.85142,-0.02673 1.078374,-0.2536842 0.306041,-0.3060412 0.331539,-0.7641517 0.06112,-1.0981067 C 27.336497,8.1485851 27.191063,8.112404 26.291606,8.0557975 25.201861,7.9872154 24.847318,7.8617232 24.348498,7.3680241 23.685513,6.7118447 23.474111,5.5469382 23.862744,4.6913234 24.097189,4.1751661 24.827219,3.533062 25.275149,3.4490297 c 0.329616,-0.061836 0.333971,-0.070381 0.376533,-0.7388081 0.04862,-0.7635522 0.278548,-1.0620399 0.818101,-1.0620399 0.493,0 0.712021,0.3164311 0.712021,1.0286924 v 0.6152808 l 0.43925,0.1949836 c 0.930663,0.4131231 1.541511,1.4731712 1.173,2.0355908 C 28.440181,6.0628078 27.846747,5.9829437 27.41362,5.3369507 27.127205,4.9097732 27.113889,4.9033814 26.448411,4.8736783 25.581263,4.8349743 25.2181,5.0695684 25.2181,5.668429 c 0,0.6282436 0.308199,0.8363326 1.246895,0.8418739 0.422667,0.00249 0.942988,0.06681 1.156269,0.1429225 1.223504,0.4366254 1.873341,1.7025429 1.522444,2.9658051 -0.159816,0.5753535 -0.853494,1.2958135 -1.452476,1.5085525 l -0.509428,0.180933 v 0.572862 c 0,0.336952 -0.06262,0.662259 -0.152052,0.789946 -0.18643,0.266167 -0.58987,0.355385 -0.902414,0.199565 z"
         id="path5360"
         sodipodi:nodetypes="ssscssssscsssscssscssssssscccccccssssssssssssssssssssscccccccssssscssscssscsssssscssccssscssssscsssssssssscsscsssssssssssssssssscssssscsssssssssscsssscsssssscssscccssscsccscsssssccssssccsssssssssssssscscssssssccccccccccccccccccccsssssssssssssccssscsssssssssscssssssssscsss" /><path
         style="fill:#ffffff;fill-rule:evenodd;stroke:none;stroke-width:0.964218;stroke-linecap:round;stroke-linejoin:round;stroke-dasharray:none;stroke-opacity:1;paint-order:stroke fill markers"
         id="path5414"
         sodipodi:type="arc"
         sodipodi:cx="46.313599"
         sodipodi:cy="15.608961"
         sodipodi:rx="0.79374999"
         sodipodi:ry="0.79374999"
         sodipodi:start="0.18738728"
         sodipodi:end="0.17433186"
         sodipodi:open="true"
         sodipodi:arc-type="arc"
         d="m 47.093453,15.756831 a 0.79374999,0.79374999 0 0 1 -0.925178,0.632463 0.79374999,0.79374999 0 0 1 -0.63548,-0.923109 0.79374999,0.79374999 0 0 1 0.92103,-0.638489 0.79374999,0.79374999 0 0 1 0.641492,0.918941" /><path
         style="fill:#ffffff;fill-rule:evenodd;stroke:none;stroke-width:0.964218;stroke-linecap:round;stroke-linejoin:round;stroke-dasharray:none;stroke-opacity:1;paint-order:stroke fill markers"
         id="path5414-0"
         sodipodi:type="arc"
         sodipodi:cx="5.9976988"
         sodipodi:cy="16.113222"
         sodipodi:rx="0.79374999"
         sodipodi:ry="0.79374999"
         sodipodi:start="0.18738728"
         sodipodi:end="0.17433186"
         sodipodi:open="true"
         sodipodi:arc-type="arc"
         d="M 6.7775536,16.261092 A 0.79374999,0.79374999 0 0 1 5.8523752,16.893555 0.79374999,0.79374999 0 0 1 5.2168953,15.970446 0.79374999,0.79374999 0 0 1 6.1379255,15.331957 0.79374999,0.79374999 0 0 1 6.7794176,16.250898" /><path
         style="fill:#ffffff;fill-rule:evenodd;stroke:none;stroke-width:0.964218;stroke-linecap:round;stroke-linejoin:round;stroke-dasharray:none;stroke-opacity:1;paint-order:stroke fill markers"
         id="path5414-9"
         sodipodi:type="arc"
         sodipodi:cx="32.942585"
         sodipodi:cy="28.466692"
         sodipodi:rx="0.79374999"
         sodipodi:ry="0.79374999"
         sodipodi:start="0.18738728"
         sodipodi:end="0.17433186"
         sodipodi:open="true"
         sodipodi:arc-type="arc"
         d="m 33.72244,28.614562 a 0.79374999,0.79374999 0 0 1 -0.925179,0.632463 0.79374999,0.79374999 0 0 1 -0.635479,-0.923109 0.79374999,0.79374999 0 0 1 0.92103,-0.638489 0.79374999,0.79374999 0 0 1 0.641492,0.918941" /></g></g></svg>
