<?xml version="1.0" encoding="UTF-8" standalone="no"?>
<!-- Created with Inkscape (http://www.inkscape.org/) -->

<svg
   width="200"
   height="200"
   viewBox="0 0 52.916665 52.916666"
   version="1.1"
   id="svg5"
   xml:space="preserve"
   inkscape:version="1.2.2 (732a01da63, 2022-12-09)"
   sodipodi:docname="sevicio04.svg"
   xmlns:inkscape="http://www.inkscape.org/namespaces/inkscape"
   xmlns:sodipodi="http://sodipodi.sourceforge.net/DTD/sodipodi-0.dtd"
   xmlns="http://www.w3.org/2000/svg"
   xmlns:svg="http://www.w3.org/2000/svg"><sodipodi:namedview
     id="namedview7"
     pagecolor="#ffffff"
     bordercolor="#666666"
     borderopacity="1.0"
     inkscape:showpageshadow="2"
     inkscape:pageopacity="0.0"
     inkscape:pagecheckerboard="0"
     inkscape:deskcolor="#d1d1d1"
     inkscape:document-units="mm"
     showgrid="false"
     inkscape:zoom="2.0899583"
     inkscape:cx="145.93592"
     inkscape:cy="87.322316"
     inkscape:window-width="1260"
     inkscape:window-height="778"
     inkscape:window-x="-6"
     inkscape:window-y="-6"
     inkscape:window-maximized="1"
     inkscape:current-layer="layer1" /><defs
     id="defs2" /><g
     inkscape:label="Capa 1"
     inkscape:groupmode="layer"
     id="layer1"><g
       id="g723"
       style="fill:#ffffff"><path
         style="fill:#ffffff;stroke-width:0.103368"
         d="m 16.435245,52.763307 c -0.788704,-0.212379 -1.3359,-0.520193 -1.939433,-1.090989 -0.664007,-0.627991 -0.838886,-0.949925 -2.045801,-3.766096 -0.535209,-1.248836 -1.642525,-3.610665 -2.4607028,-5.248506 L 8.5017133,39.679822 8.5024674,38.678064 C 8.5031605,37.768496 8.5330118,37.614472 8.8268626,37.004416 9.004862,36.634878 9.299133,36.174222 9.4807958,35.980739 L 9.8110939,35.628949 9.2944473,34.533592 C 8.267552,32.356433 8.0021602,31.41948 8.0033463,29.975421 c 7.231e-4,-0.880475 0.099424,-1.393407 0.954788,-4.961645 0.6695704,-2.793198 1.0116762,-4.038718 1.1475037,-4.177774 0.440274,-0.450736 1.238683,-0.115881 1.238683,0.519508 0,0.187566 -0.399133,2.006087 -0.886962,4.041157 -0.8733125,3.643184 -0.8861973,3.716037 -0.8372174,4.733805 0.058329,1.212028 0.4295814,2.488331 1.1274314,3.87592 l 0.441697,0.87826 0.784583,-0.03392 c 0.963398,-0.04164 1.518795,0.09521 2.290282,0.564322 l 0.594045,0.361214 0.242357,-0.281758 0.242359,-0.281757 -0.905096,-1.77801 c -0.989648,-1.944102 -1.405138,-3.095331 -1.501887,-4.161383 -0.08431,-0.929017 1.940617,-16.628076 2.252837,-17.465992 0.248747,-0.667575 0.97639,-1.438838 1.685738,-1.786793 0.475418,-0.2332052 0.655924,-0.2561437 2.252314,-0.2862219 l 1.735476,-0.032694 -0.02991,-0.8459258 -0.02991,-0.8459257 -0.582697,-0.030653 C 19.489825,7.940758 19.311043,7.761305 19.231106,6.9867982 L 19.171327,6.4076101 H 17.73533 c -1.569071,0 -1.967271,0.095616 -2.498111,0.599847 -0.161419,0.1533277 -0.362145,0.4102546 -0.446058,0.5709489 -0.08391,0.1606942 -0.708455,2.626011 -1.387873,5.478482 -0.771927,3.240865 -1.015796,4.052376 -1.134781,4.213859 C 11.993052,17.644586 11.23182,17.343292 11.089,17.152 10.94618,16.960708 10.971973,16.572736 10.971973,16.572736 l 0.880235,-3.671348 c 0.69338,-2.9177787 1.371176,-5.5477711 1.506214,-5.8444294 0.331548,-0.7283539 1.091662,-1.5159658 1.797627,-1.8626601 0.551392,-0.2707836 0.669832,-0.287372 2.295087,-0.3214358 l 1.713693,-0.035915 0.115237,-0.9847642 C 19.505277,1.9276452 20.451362,0.73656562 22.178579,0.20308264 22.783687,0.01618402 23.144305,-0.00107444 26.421036,4.7731766e-5 30.213676,0.00134792 30.565108,0.03674295 31.492567,0.51087548 c 0.628944,0.32152579 1.382963,1.12501222 1.724812,1.83797082 0.229762,0.4791902 0.294463,0.7812502 0.330236,1.5417235 l 0.04449,0.9457727 1.667848,0.038176 c 1.544429,0.035345 1.711419,0.058458 2.256681,0.3122295 0.770362,0.358543 1.430277,1.0313416 1.816148,1.8516078 0.225949,0.48031 1.018968,3.5900302 2.896928,11.3598972 1.422196,5.884199 2.616836,10.934926 2.654753,11.22384 0.16102,1.226866 -0.363136,3.300559 -1.287298,5.092887 l -0.506663,0.982627 0.359647,0.369146 c 0.197807,0.20303 0.485285,0.624979 0.638842,0.937665 0.247695,0.504382 0.27931,0.687632 0.280234,1.624274 l 10e-4,1.055751 -1.473675,2.942332 c -0.81052,1.618283 -1.909373,3.95932 -2.441898,5.202304 -1.257327,2.934784 -1.328584,3.06747 -2.015124,3.752428 -0.628382,0.626936 -1.398906,1.043875 -2.266273,1.226309 -0.380875,0.08011 -3.388521,0.11314 -9.871605,0.108409 -7.693458,-0.0056 -9.418718,-0.03235 -9.866447,-0.152915 z m 20.196701,-1.722608 c 0.748371,-0.394737 1.175417,-0.948097 1.718701,-2.227072 0.259485,-0.610865 0.459762,-1.12279 0.445061,-1.137611 -0.0147,-0.01482 -0.231674,0.05496 -0.482163,0.155051 -0.425179,0.169906 -1.21432,0.181998 -11.877555,0.181998 -10.663236,0 -11.452378,-0.01209 -11.877556,-0.181998 -0.250489,-0.100097 -0.467464,-0.169872 -0.482164,-0.155051 -0.0147,0.01482 0.189354,0.538616 0.453454,1.16399 0.383853,0.90894 0.586653,1.244468 1.010914,1.672533 0.893762,0.901776 0.209349,0.850493 11.050402,0.828009 l 9.509819,-0.01972 z m 1.719621,-4.909814 c 1.268097,-0.600669 1.62049,-1.062776 3.164851,-4.150204 1.287519,-2.573958 1.355018,-2.739881 1.355018,-3.330876 0,-0.673038 -0.164565,-1.101261 -0.606164,-1.577329 -0.833396,-0.898447 -2.307677,-0.916856 -3.238753,-0.04045 -0.153304,0.144304 -0.74556,1.195132 -1.316123,2.335174 -0.584693,1.168269 -1.125429,2.119919 -1.239143,2.180775 -0.130837,0.07002 -1.692942,0.162428 -4.442591,0.107975 -2.260127,-0.04476 -2.653903,-6.21e-4 -2.864103,-0.226225 -0.264562,-0.283976 -0.270063,-0.711278 -0.01324,-1.028577 0.410235,-0.441704 1.784639,-0.263874 2.549543,-0.273438 l 3.939526,-0.0294 0.585325,-1.175886 c 0.568659,-1.142409 0.581765,-1.187761 0.460354,-1.592997 -0.175647,-0.586258 -1.02692,-1.482763 -1.694328,-1.784357 -0.523934,-0.236759 -0.652427,-0.247441 -3.361524,-0.279437 l -2.816767,-0.03327 v 0.821537 0.821536 l 0.56692,0.04702 c 0.349174,0.02895 0.646939,0.119431 0.775256,0.235557 0.274785,0.248677 0.275616,0.812795 0.0016,1.086809 -0.198629,0.198628 -0.344559,0.206735 -3.721233,0.206735 -3.376675,0 -3.522606,-0.0081 -3.721233,-0.206735 -0.274015,-0.274014 -0.273184,-0.838132 0.0016,-1.086809 0.128316,-0.116126 0.426081,-0.2066 0.775256,-0.235557 l 0.56692,-0.04702 V 36.054303 35.23316 l -3.023502,0.03285 -3.023503,0.03284 -0.590686,0.290066 c -0.629879,0.30931 -1.385949,1.068943 -1.494533,1.501575 -0.04864,0.193771 0.106874,0.602907 0.622074,1.636655 l 0.686916,1.378297 h 3.778536 c 1.71017,0 2.200572,-0.07952 2.483481,0.151228 0.263794,0.215154 0.470308,0.65485 0.19611,1.02577 -0.274198,0.37092 -1.997811,0.373516 -2.864103,0.373516 -2.740463,0 -4.297794,-0.03797 -4.428599,-0.107975 -0.113498,-0.06074 -0.648726,-1.001066 -1.223528,-2.149576 -1.299398,-2.596321 -1.70319,-3.014196 -2.912618,-3.014196 -1.317932,0 -2.256606,0.953118 -2.261767,2.296569 -0.0021,0.553188 0.08443,0.764327 1.352748,3.299901 1.463126,2.925024 1.877497,3.501598 2.890844,4.022435 1.006965,0.517559 0.566503,0.500457 12.344635,0.479301 l 11.060333,-0.01986 z M 27.26293,34.47191 v -2.429138 h -0.82694 -0.826942 v 2.429138 2.429139 h 0.826942 0.82694 z m 11.062899,1.125332 c 0.751626,-0.539991 1.618474,-0.78588 2.626624,-0.745068 l 0.820256,0.03321 0.393362,-0.775257 c 0.632963,-1.247476 1.026256,-2.590592 1.090532,-3.724218 l 0.05585,-0.984975 -2.500559,-10.333773 C 39.436584,13.38358 38.237433,8.5008039 38.147108,8.2165429 37.90648,7.4592601 37.467026,6.8753803 36.948915,6.6245668 36.558281,6.4354644 36.312502,6.4076103 35.034548,6.4076103 h -1.466195 v 0.5862243 c 0,0.8006682 -0.160574,0.9642895 -0.94633,0.9642895 h -0.604184 v 0.8699116 0.869912 l 1.731407,0.035487 c 1.927025,0.039497 2.182936,0.113458 3.025081,0.8742873 0.778973,0.703754 0.903099,1.124287 1.407064,4.767065 0.54745,3.957103 0.556055,4.080904 0.303086,4.360432 -0.24824,0.274302 -0.81473,0.283604 -1.08059,0.01774 -0.22728,-0.22728 -0.199752,-0.07533 -0.740772,-4.089001 -0.235325,-1.74582 -0.48813,-3.245272 -0.579668,-3.438174 -0.180075,-0.379481 -0.692937,-0.856533 -0.920828,-0.856533 -0.08092,0 -0.147969,0.03488 -0.149007,0.07753 -0.001,0.04264 -0.668958,2.914737 -1.484266,6.382439 l -1.482382,6.304913 0.497569,0.284174 c 0.735295,0.419945 1.024159,0.970311 1.022593,1.948331 -0.0039,2.446117 -1.647987,4.644098 -4.036701,5.396727 l -0.716981,0.225905 v 0.844153 0.844154 l 2.920134,0.0411 c 2.757632,0.03881 2.954647,0.05449 3.540339,0.281708 0.341114,0.132332 0.679474,0.287561 0.751914,0.344955 0.07244,0.05739 0.148204,0.08609 0.168367,0.06378 0.145243,-0.160748 1.555442,-2.855262 1.76478,-3.372023 0.556957,-1.374891 0.495402,-1.717008 0.06772,-5.359799 -0.09822,-0.836587 -0.162641,-1.234571 -0.01,-1.467553 0.2946,-0.449615 0.956324,-0.456828 1.242578,-0.01354 0.149471,0.231471 0.719353,4.002085 0.716062,4.784224 -0.005,1.183599 -0.549043,2.723462 -1.751373,4.956937 -0.796665,1.479903 -0.81948,1.541437 -0.661141,1.783092 0.0902,0.137661 0.181797,0.250293 0.203555,0.250293 0.02175,0 0.273502,-0.168075 0.559439,-0.373499 z m -21.060451,-1.61312 c 0.598062,-0.21341 0.85675,-0.231953 3.717971,-0.266504 l 3.075186,-0.03714 v -0.849101 -0.849099 l -0.490996,-0.131197 c -1.528679,-0.408469 -3.005205,-1.62158 -3.677509,-3.02143 -0.442454,-0.921264 -0.58959,-1.531679 -0.598496,-2.482946 -0.0085,-0.906049 0.305006,-1.503094 1.004451,-1.912995 0.4147,-0.243031 0.462104,-0.30702 0.402721,-0.543623 -0.03702,-0.147489 -0.695545,-3.013387 -1.463393,-6.368657 -0.767848,-3.355271 -1.417297,-6.12171 -1.443224,-6.147644 -0.122322,-0.122353 -0.804923,0.392746 -1.030466,0.777604 -0.229279,0.391238 -0.348664,1.168222 -1.284523,8.360056 -0.567463,4.360802 -1.031751,8.113802 -1.031751,8.340002 0,0.894012 0.330183,1.875281 1.219303,3.623641 0.486232,0.956121 0.90068,1.738402 0.920998,1.738402 0.02031,0 0.326196,-0.103217 0.679728,-0.229369 z m 12.299943,-3.875214 c 1.308333,-0.619727 2.216398,-1.81802 2.442738,-3.223461 0.111927,-0.695009 0.03144,-1.078001 -0.249175,-1.185684 -0.223907,-0.08592 -10.421882,-0.08592 -10.64579,0 -0.280614,0.107683 -0.361102,0.490675 -0.249174,1.185684 0.262802,1.631846 1.403712,2.932611 3.039563,3.465444 0.298503,0.09723 1.045791,0.128422 2.687557,0.11218 l 2.274087,-0.02249 z m -5.292549,-1.542889 c -0.267095,-0.339557 -0.272628,-0.666305 -0.01663,-0.982443 0.195234,-0.241107 0.221336,-0.24403 2.179852,-0.24403 1.958514,0 1.984616,0.0029 2.17985,0.24403 0.255994,0.316138 0.250461,0.642886 -0.01663,0.982443 l -0.214237,0.272358 H 26.435994 24.487013 Z M 23.955167,23.97057 c 0,-0.0621 -0.651216,-2.916858 -1.447146,-6.343921 -0.79593,-3.427061 -1.447147,-6.260213 -1.447147,-6.29589 0,-0.03568 -0.372122,-0.06487 -0.82694,-0.06487 -0.454818,0 -0.826941,0.02518 -0.826941,0.05596 0,0.04844 2.705123,11.900956 2.859529,12.529046 0.05328,0.216713 0.112816,0.232577 0.87291,0.232577 0.520821,0 0.815735,-0.04082 0.815735,-0.112898 z m 4.714012,-6.057003 c 0.804355,-3.365019 1.492362,-6.237346 1.528906,-6.382949 l 0.06644,-0.26473 H 26.43099 c -3.602476,0 -3.830308,0.0109 -3.779983,0.180892 0.02946,0.09949 0.686136,2.925303 1.459291,6.279582 0.773158,3.354277 1.425963,6.1588 1.450679,6.232273 0.03279,0.09745 0.261401,0.125413 0.845338,0.103368 l 0.800399,-0.03022 z m 1.839232,5.989008 c 0.07038,-0.231395 2.956574,-12.517453 2.956574,-12.58564 0,-0.02807 -0.368268,-0.05105 -0.818376,-0.05105 h -0.818374 l -0.107517,0.490995 c -0.05914,0.270047 -0.737461,3.115033 -1.507395,6.322188 -0.769933,3.207156 -1.399879,5.870163 -1.399879,5.917794 0,0.04764 0.368989,0.0866 0.819974,0.0866 0.691058,0 0.828627,-0.02844 0.874993,-0.180893 z M 30.467326,8.8367485 V 7.9581241 H 26.43599 22.404653 V 8.8367485 9.715373 h 4.031337 4.031336 z m 1.598567,-3.8762843 c -0.0035,-1.452969 -0.01272,-1.5154489 -0.300933,-2.0419578 -0.334147,-0.610437 -0.780084,-0.9950488 -1.412351,-1.2181255 -0.596445,-0.210438 -7.28246,-0.2134684 -7.87064,-0.0036 -0.596317,0.2128043 -1.035072,0.6006515 -1.368493,1.2097102 -0.284224,0.519189 -0.306562,0.6435937 -0.345204,1.9225178 -0.02272,0.7520741 -0.014,1.4385779 0.01937,1.5255637 0.05362,0.1397332 0.714236,0.1550418 5.671286,0.1314223 l 5.610592,-0.026734 z"
         id="path502"
         sodipodi:nodetypes="csssccsscssssssssccscccssssccccsscssssszcccsscsssssscsssssscssccsssscccsssssssssscsssssssssccccssssccccsssssscccccssscsszcssscssscscccccccccsscsscsssscsscccsssssssscscscscccssscsssscssssssscccsscssssssssssssssssscsssscscccsssssssssssscscscscscssccssscccccccccccccscsscscc" /><path
         style="fill:#ffffff;fill-rule:evenodd;stroke-width:0.319;paint-order:stroke fill markers"
         id="path556"
         sodipodi:type="arc"
         sodipodi:cx="26.586815"
         sodipodi:cy="40.82016"
         sodipodi:rx="1.0742147"
         sodipodi:ry="0.62662524"
         sodipodi:start="0.18738728"
         sodipodi:end="0.17433186"
         sodipodi:open="true"
         sodipodi:arc-type="arc"
         d="m 27.642225,40.936896 a 1.0742147,0.62662524 0 0 1 -1.252083,0.499297 1.0742147,0.62662524 0 0 1 -0.860021,-0.728747 1.0742147,0.62662524 0 0 1 1.246469,-0.504055 1.0742147,0.62662524 0 0 1 0.868157,0.725457" /><path
         style="fill:#ffffff;fill-rule:evenodd;stroke-width:0.0120507;paint-order:stroke fill markers"
         d="m 26.208577,41.718719 c -0.219396,-0.02443 -0.439523,-0.159812 -0.563572,-0.346605 -0.27418,-0.412862 -0.127949,-0.979295 0.307533,-1.191248 0.127386,-0.062 0.211414,-0.08195 0.345995,-0.08213 0.132434,-2.36e-4 0.214621,0.01946 0.345994,0.08268 0.273105,0.131435 0.445948,0.414367 0.445512,0.729271 -4.91e-4,0.316276 -0.169763,0.593883 -0.444009,0.727946 -0.151931,0.07427 -0.279666,0.09766 -0.437453,0.08009 z"
         id="path681" /><path
         style="fill:#ffffff;fill-rule:evenodd;stroke-width:0.0120507;paint-order:stroke fill markers"
         d="m 11.112647,19.778868 c -0.219396,-0.02443 -0.439523,-0.159812 -0.563572,-0.346605 -0.27418,-0.412862 -0.127949,-0.979295 0.307533,-1.191248 0.127386,-0.062 0.211414,-0.08195 0.345995,-0.08213 0.132434,-2.36e-4 0.214621,0.01946 0.345994,0.08268 0.273105,0.131435 0.445948,0.414367 0.445512,0.729271 -4.91e-4,0.316276 -0.169763,0.593883 -0.444009,0.727946 -0.151931,0.07427 -0.279666,0.09766 -0.437453,0.08009 z"
         id="path681-3" /><path
         style="fill:#ffffff;fill-rule:evenodd;stroke-width:0.0120507;paint-order:stroke fill markers"
         d="m 38.030761,22.676648 c -0.219396,-0.02443 -0.439523,-0.159812 -0.563572,-0.346605 -0.27418,-0.412862 -0.127949,-0.979295 0.307533,-1.191248 0.127386,-0.062 0.211414,-0.08195 0.345995,-0.08213 0.132434,-2.36e-4 0.214621,0.01946 0.345994,0.08268 0.273105,0.131435 0.445948,0.414367 0.445512,0.729271 -4.91e-4,0.316276 -0.169763,0.593883 -0.444009,0.727946 -0.151931,0.07427 -0.279666,0.09766 -0.437453,0.08009 z"
         id="path681-34" /></g></g></svg>
