<?xml version="1.0" encoding="UTF-8" standalone="no"?>
<!-- Created with Inkscape (http://www.inkscape.org/) -->

<svg
   width="200"
   height="200"
   viewBox="0 0 52.916665 52.916666"
   version="1.1"
   id="svg5"
   xml:space="preserve"
   inkscape:version="1.2.2 (732a01da63, 2022-12-09)"
   sodipodi:docname="sevicio06.svg"
   xmlns:inkscape="http://www.inkscape.org/namespaces/inkscape"
   xmlns:sodipodi="http://sodipodi.sourceforge.net/DTD/sodipodi-0.dtd"
   xmlns="http://www.w3.org/2000/svg"
   xmlns:svg="http://www.w3.org/2000/svg"><sodipodi:namedview
     id="namedview7"
     pagecolor="#ffffff"
     bordercolor="#666666"
     borderopacity="1.0"
     inkscape:showpageshadow="2"
     inkscape:pageopacity="0.0"
     inkscape:pagecheckerboard="0"
     inkscape:deskcolor="#d1d1d1"
     inkscape:document-units="mm"
     showgrid="false"
     inkscape:zoom="2.0899583"
     inkscape:cx="123.44744"
     inkscape:cy="95.45645"
     inkscape:window-width="1260"
     inkscape:window-height="778"
     inkscape:window-x="-6"
     inkscape:window-y="-6"
     inkscape:window-maximized="1"
     inkscape:current-layer="layer1" /><defs
     id="defs2" /><g
     inkscape:label="Capa 1"
     inkscape:groupmode="layer"
     id="layer1"><g
       id="g962"
       transform="matrix(1.0019361,0,0,1.0019361,3.4050382,-0.10258514)"
       style="fill:#000000"><path
         id="path956"
         style="stroke-width:0.103555;fill:#ffffff"
         transform="matrix(0.95758797,0,0,0.95758797,-42.949206,0.29818293)"
         d="m 65.130859,29.169969 h -6.121093 c -0.02449,2.69e-4 -0.04857,0.0063 -0.07031,0.01758 -0.16681,0.08509 -0.333918,0.171146 -0.5,0.255859 -0.004,0.0018 -0.0079,0.0038 -0.01172,0.0059 -1.046639,0.646861 -1.663805,1.738866 -2.435546,2.572265 -0.0013,0.0019 -0.0026,0.0039 -0.0039,0.0059 -1.57007,1.867754 -3.082554,3.794285 -4.671875,5.625 -1.557639,0.956648 -3.205406,1.809994 -4.697265,2.90625 -0.0092,0.0062 -0.01771,0.01344 -0.02539,0.02148 -0.435753,0.48499 -0.724156,1.107456 -0.613281,1.792969 v 7.089844 c 3.48e-4,0.01944 0.0043,0.03865 0.01172,0.05664 0.393793,1.006686 1.366795,1.848958 2.521484,1.732422 0.716817,0.02939 1.431721,0.0486 2.146484,0.07227 0.370756,1.329042 1.143578,2.615883 2.464844,3.220703 2.111342,1.045392 4.939734,-0.03185 5.761719,-2.261719 l -0.02148,0.03906 c 0.172339,-0.22893 0.184216,-0.531046 0.238282,-0.753907 0.02703,-0.11143 0.06248,-0.198814 0.09766,-0.242187 0.03517,-0.04337 0.05573,-0.05901 0.142578,-0.05273 0.0039,1.47e-4 0.0078,1.47e-4 0.01172,0 h 7.222264 c 0.02433,3.36e-4 0.04841,-0.005 0.07031,-0.01563 0.262759,-0.131409 0.360609,-0.426902 0.320313,-0.679687 -0.02015,-0.126392 -0.07809,-0.251594 -0.185547,-0.337891 -0.107459,-0.0863 -0.261612,-0.120386 -0.423828,-0.08789 l 0.04102,-0.0039 C 64.554646,50.043142 61.050265,50.11075 59.21682,50.09193 58.875322,48.509195 57.754822,47.072981 56.144554,46.629039 l -0.0078,-0.002 c -1.904885,-0.619399 -4.057115,0.354994 -4.966797,2.105469 -0.242387,0.421136 -0.357802,0.877576 -0.484375,1.310547 -0.930241,0.01867 -1.859324,0.03888 -2.789063,0.05664 -0.176452,-0.207936 -0.397103,-0.378757 -0.560546,-0.542968 -0.183404,-0.184265 -0.282584,-0.337009 -0.222657,-0.589844 0.0026,-0.01154 0.0039,-0.02333 0.0039,-0.03516 v -6.080079 c 1.285222,-0.04661 2.603533,0.04167 3.908203,-0.154296 0.03222,-0.0044 0.06226,-0.01874 0.08594,-0.04102 0.119887,-0.115682 0.180178,-0.263088 0.181641,-0.404297 0.0015,-0.141209 -0.05157,-0.273506 -0.134766,-0.378906 -0.156458,-0.198205 -0.436215,-0.309664 -0.712891,-0.220703 -0.859063,-0.05302 -1.711797,0.102453 -2.46875,-0.126953 -0.101175,-0.129323 -0.118498,-0.237434 -0.08008,-0.34375 0.04207,-0.116413 0.158454,-0.239439 0.330078,-0.320313 0.0054,-0.0023 0.01057,-0.0049 0.01563,-0.0078 1.179247,-0.735648 2.380668,-1.437514 3.578124,-2.150391 4.431567,-0.03218 8.863168,-0.06001 13.294922,-0.08984 0.0201,-1.02e-4 0.04,-0.0041 0.05859,-0.01172 1.008402,-0.420574 1.855733,-1.422303 1.699219,-2.595703 l 0.002,0.02539 c 0.04845,-1.909879 0.04342,-3.818803 0.06836,-5.724609 -0.574346,-0.146943 -3.252907,0.01533 0.183046,0.01263 0.823122,-0.156617 0.627341,-1.101037 0,-1.134765 -0.810809,-0.05964 -5.273543,0.0491 -1.995623,-0.01463 z m 20.425259,1.132765 c 1.122201,0.01383 -1.012777,0.0056 2.539585,0.06055 0.0039,1.47e-4 0.0078,1.47e-4 0.01172,0 0.311583,-0.01935 0.674359,0.03011 0.945312,0.167969 0.270954,0.137861 0.450052,0.339642 0.464844,0.685547 -6.5e-5,0.0026 -6.5e-5,0.0052 0,0.0078 0.226645,2.664136 0.08214,5.357263 0.126953,8.050782 -5e-6,6.51e-4 6e-6,0.0013 0,0.002 1.1e-5,6.51e-4 -1.1e-5,0.0013 0,0.002 -0.02951,3.395352 0.06623,6.790882 -0.07617,10.171875 -0.01217,0.182461 -0.07013,0.296704 -0.158203,0.384766 -0.08879,0.08878 -0.217322,0.150787 -0.373047,0.191406 -0.311449,0.08124 -0.717704,0.06759 -1.037109,0.06445 l 0.03125,0.0039 c -0.28952,-0.06449 -0.60831,0.01744 -0.845703,0.01758 -0.118697,6.8e-5 -0.206575,-0.01866 -0.253906,-0.05078 -0.04733,-0.03212 -0.08144,-0.07658 -0.08984,-0.214844 -7.03e-4,-0.0079 -0.002,-0.01574 -0.0039,-0.02344 -0.396727,-1.796574 -1.980146,-3.228137 -3.830079,-3.359375 -2.087425,-0.247014 -4.065942,1.310685 -4.537109,3.310547 -0.002,0.0083 -0.0033,0.01683 -0.0039,0.02539 -0.0074,0.131444 -0.03957,0.175543 -0.08203,0.207031 -0.04246,0.03149 -0.120133,0.05298 -0.228516,0.05664 -0.216766,0.0073 -0.516466,-0.0604 -0.791016,-0.002 l 0.03125,-0.0039 c -1.579105,0.02546 -4.81701,0.05045 -6.396092,0.07422 -0.02383,5.69e-4 -0.04721,0.0066 -0.06836,0.01758 -0.261367,0.13168 -0.362693,0.41851 -0.31836,0.664062 0.02217,0.122776 0.08332,0.241835 0.191407,0.322266 0.10809,0.08043 0.257728,0.110904 0.416015,0.07813 l -0.03906,0.0039 c 1.842134,0.101946 5.34094,0.03622 7.171483,0.05469 0.359053,1.344665 1.114815,2.695442 2.482422,3.271484 5.55e-4,2.73e-4 0.0014,-2.72e-4 0.002,0 0.0022,9.22e-4 0.0037,0.003 0.0059,0.0039 1.887046,0.921451 4.316267,0.194024 5.412109,-1.58789 v -0.002 c 0.351628,-0.521268 0.50273,-1.116041 0.648438,-1.685546 1.004249,-0.0518 2.205848,0.22875 3.185547,-0.417969 0.0069,-0.0047 0.01345,-0.0099 0.01953,-0.01563 0.503567,-0.464413 0.7933,-1.128769 0.671875,-1.828125 l 0.002,0.02734 V 31.019531 c -2.03e-4,-0.01801 -0.0035,-0.03585 -0.0098,-0.05273 -0.364664,-1.000504 -1.304892,-1.877758 -2.458985,-1.738281 l 0.02148,-0.002 c -2.849121,-0.02742 -2.316799,-0.02521 -2.707121,0.0075 -0.390323,0.03272 -0.772578,0.138864 -0.768454,0.519705 0.0041,0.380841 0.381004,0.550825 0.69564,0.549001 z m -24.69479,-0.03711 v 0.316406 6.894531 c -2.571634,-0.0252 -5.139311,0.05786 -7.693359,-0.08594 1.781584,-2.323056 3.679717,-4.558899 5.589843,-6.783203 0.566089,-0.364796 1.346094,-0.26844 2.103516,-0.341797 z m 1.181641,0.04102 h 0.296875 3.408203 c -0.02567,2.05748 0.06656,4.114066 -0.07031,6.148437 -0.08827,0.623577 -0.696723,1.070071 -1.320312,0.992188 -0.009,-0.0015 -0.01819,-0.0021 -0.02734,-0.002 -0.758113,0.03471 -1.521421,0.02752 -2.287109,0.03125 z m 1.689453,11.320312 c -0.07149,-0.0011 -0.146529,0.01034 -0.220703,0.03906 l 0.04687,-0.0098 c -0.540021,0.03298 -1.186538,-0.09523 -1.765625,0.0625 -0.02644,0.0067 -0.05068,0.02013 -0.07031,0.03906 l -0.05664,0.05859 c -0.121958,0.111291 -0.182029,0.260692 -0.175782,0.400391 0.0062,0.139699 0.06844,0.265479 0.15625,0.365234 0.175631,0.199511 0.47519,0.322642 0.753907,0.203125 l -0.04883,0.01172 c 0.507711,-0.04236 1.157475,0.1464 1.726563,-0.117187 0.0082,-0.0039 0.01604,-0.0084 0.02344,-0.01367 0.132981,-0.09278 0.212564,-0.228787 0.230469,-0.365235 0.01791,-0.136447 -0.02022,-0.270238 -0.08984,-0.380859 -0.104441,-0.165932 -0.295296,-0.289612 -0.509766,-0.292969 z m -8.658203,6.013672 h 0.02148 c 1.275401,-0.01657 2.421398,1.034361 2.816406,2.214844 0.473232,1.57007 -0.544703,3.381923 -2.132812,3.791015 -0.0039,5.18e-4 -0.0078,0.0012 -0.01172,0.002 -1.805206,0.618097 -3.908905,-0.967812 -3.898437,-2.851563 4e-6,-6.67e-4 4e-6,-0.0013 0,-0.002 3.7e-5,-0.002 3.7e-5,-0.0039 0,-0.0059 1.6e-5,-0.0013 1.6e-5,-0.0026 0,-0.0039 -0.121118,-1.690363 1.437506,-3.227359 3.121093,-3.142578 0.0039,1.47e-4 0.0078,1.47e-4 0.01172,0 z m 27.703125,0.002 c 0.0026,6.5e-5 0.0052,6.5e-5 0.0078,0 1.591067,-0.01219 3.045917,1.526554 2.902344,3.123047 -5.87e-4,0.0078 -5.87e-4,0.01564 0,0.02344 0.111901,1.937419 -2.105841,3.477452 -3.908203,2.853516 -0.0039,-8.15e-4 -0.0078,-0.0015 -0.01172,-0.002 -1.76402,-0.46481 -2.741402,-2.727869 -1.869127,-4.328132 0.0013,-0.0019 0.0026,-0.0039 0.0039,-0.0059 0.521823,-1.068827 1.692554,-1.706486 2.875,-1.664063 z m -27.953125,2.480469 c -0.204967,0.0398 -0.353985,0.176176 -0.408203,0.333984 -0.05422,0.157808 -0.0308,0.32412 0.0332,0.466797 0.064,0.142678 0.173095,0.270944 0.330078,0.326172 0.152714,0.05373 0.341298,0.0093 0.492187,-0.126953 0.122862,-0.07749 0.207285,-0.189283 0.232422,-0.310547 0.0264,-0.127346 -0.0033,-0.253776 -0.06055,-0.359375 -0.114397,-0.211197 -0.348817,-0.374199 -0.615234,-0.330078 -0.0013,-1.6e-5 -0.0026,-1.6e-5 -0.0039,0 z m 27.917969,0.002 c -0.05934,-0.01132 -0.121914,-0.0091 -0.1875,0.0039 -0.20577,0.02801 -0.361584,0.155069 -0.419922,0.310547 -0.05878,0.15666 -0.03902,0.32554 0.02148,0.470703 0.0605,0.145163 0.16488,0.27478 0.320312,0.335938 0.152395,0.05996 0.348531,0.02048 0.501954,-0.117188 0.215894,-0.163839 0.251739,-0.446958 0.166015,-0.662109 -0.06514,-0.163491 -0.215067,-0.306062 -0.402343,-0.341797 z m -14.041016,0.002 c -0.214194,0.02836 -0.373289,0.160267 -0.431641,0.320313 -0.05835,0.160045 -0.0334,0.32929 0.0332,0.474609 0.06661,0.145319 0.179344,0.273812 0.339844,0.330078 0.157411,0.05518 0.353953,0.01 0.507813,-0.134765 0.215249,-0.173127 0.248393,-0.453377 0.148437,-0.658204 -0.1009,-0.20676 -0.328043,-0.361794 -0.59375,-0.332031 -0.0013,-1.6e-5 -0.0026,-1.6e-5 -0.0039,0 z"
         sodipodi:nodetypes="ccccccccccccccccccssccccssccccccccsccccccsccsccccccccccccccsccccccssccsscccccscccccssccccccccccccccccczzcccccsccccccccccccccccsccccsscccccscsccccccccsscccccccssscscccssssscssssssscscsssss" /><path
         style="fill:#ffffff;stroke:#ffffff;stroke-width:0.152192;stroke-dasharray:none;stroke-opacity:1"
         d="m 29.249022,26.667685 c -2.906501,-0.245697 -5.579436,-1.489986 -7.624896,-3.549485 -1.467513,-1.477588 -2.513172,-3.265894 -3.08294,-5.272488 -0.472903,-1.665475 -0.577331,-3.510508 -0.297149,-5.24994 0.308774,-1.916879 1.081938,-3.7421743 2.245901,-5.3021338 0.366001,-0.4905269 0.666422,-0.8341985 1.166138,-1.3340361 0.945063,-0.9452952 1.825957,-1.5938228 3.006627,-2.2135244 2.949494,-1.5481 6.560024,-1.7813032 9.726551,-0.6282338 4.286753,1.5609886 7.352243,5.3978121 7.911024,9.9015691 0.126657,1.020774 0.127491,2.052526 0.0025,3.050706 -0.207717,1.658578 -0.763757,3.274833 -1.617375,4.701281 -2.053649,3.431751 -5.602709,5.617309 -9.592739,5.90733 -0.424086,0.03081 -1.418816,0.02487 -1.843631,-0.0111 z m 1.255319,-3.727772 c -0.0089,-1.681022 -0.02542,-3.249388 -0.03766,-3.485267 -0.01621,-0.314146 -0.04031,-0.518153 -0.08967,-0.762678 -0.177127,-0.876075 -0.610138,-1.877517 -1.051987,-2.43293 -0.117169,-0.147303 -0.446673,-0.461894 -0.483913,-0.462037 -0.02701,-8.5e-5 -0.733624,0.407135 -1.072015,0.617822 -0.143431,0.08931 -0.345402,0.232808 -0.448818,0.31889 -0.452013,0.376263 -0.674894,0.505897 -1.016711,0.591326 -0.16008,0.04007 -0.240103,0.04624 -0.489356,0.03813 -0.258811,-0.0089 -0.32408,-0.01883 -0.496507,-0.07931 -0.272048,-0.09533 -0.494168,-0.22758 -0.747808,-0.445208 -0.266445,-0.228621 -0.494462,-0.398515 -0.66085,-0.492386 l -0.127723,-0.07207 -0.0145,0.10603 c -0.0084,0.05832 -0.0145,0.70997 -0.0145,1.448124 v 1.342099 l 0.196838,-0.184214 c 0.325026,-0.304171 0.603554,-0.464249 0.982516,-0.564683 0.298675,-0.07916 0.922418,-0.100416 1.213736,-0.04138 0.493996,0.100129 0.909095,0.359379 1.310072,0.818237 0.28194,0.322631 0.464609,0.71743 0.542926,1.173413 0.05006,0.291371 0.03917,0.843843 -0.01873,0.95077 -0.0729,0.134663 -0.315962,0.158156 -0.425846,0.04116 -0.04826,-0.05137 -0.05466,-0.08933 -0.08114,-0.483436 -0.01578,-0.235213 -0.04511,-0.49751 -0.06505,-0.58288 -0.147915,-0.631823 -0.674958,-1.173408 -1.314744,-1.351029 -0.224735,-0.06237 -0.747801,-0.05705 -0.981667,0.0102 -0.64682,0.185618 -1.117845,0.667381 -1.295866,1.325393 -0.04311,0.159577 -0.04691,0.254927 -0.05686,1.457058 -0.01133,1.375618 0.01173,2.111677 0.06984,2.22411 0.07625,0.147414 0.633955,0.499322 1.346511,0.849591 0.62241,0.305955 1.109251,0.499867 1.707071,0.679932 0.175256,0.05273 0.377173,0.114122 0.4487,0.136275 0.109129,0.03377 0.132013,0.03521 0.142253,0.0089 0.007,-0.01751 0.01227,-0.655752 0.01227,-1.418346 v -0.858414 l 0.06331,-0.07087 c 0.131683,-0.147408 0.383312,-0.09554 0.450899,0.09295 0.02166,0.06038 0.02908,-0.107444 0.03064,0.963062 0.0012,0.776336 0.0097,1.421767 0.01877,1.43429 0.0095,0.01254 0.03723,0.02446 0.06221,0.02657 0.02506,0.0022 0.178677,0.02488 0.341411,0.05061 0.571374,0.09038 1.040348,0.128749 1.648219,0.134864 l 0.419124,0.0044 z m -2.895443,-0.26574 c -0.03815,-0.01729 -0.09707,-0.06434 -0.130878,-0.104499 -0.05013,-0.05963 -0.06145,-0.09567 -0.06145,-0.19574 0,-0.104285 0.01034,-0.134529 0.06945,-0.201763 0.25715,-0.292959 0.704536,0.0028 0.528015,0.349085 -0.07698,0.150976 -0.258253,0.219406 -0.405098,0.152915 z m 3.791035,3.265145 c 0.480678,-0.03817 1.209767,-0.170776 1.825749,-0.331988 l 0.08451,-0.02214 0.0068,-1.427936 c 0.0063,-1.329664 0.0096,-0.905013 0.04782,-0.975581 0.04992,-0.09144 0.169845,-0.147841 0.272821,-0.128311 0.09325,0.01771 0.135168,0.04949 0.19499,0.147578 0.04778,0.07845 0.04831,-0.434504 0.04841,0.888861 9e-5,1.267552 0.0022,1.336531 0.03997,1.314846 0.02193,-0.01267 0.162742,-0.06799 0.312965,-0.123147 0.78674,-0.288813 1.797713,-0.805897 2.283927,-1.168153 0.397847,-0.296415 0.389438,-0.271456 0.389599,-1.156369 6.7e-5,-0.38817 -0.0096,-0.82185 -0.02117,-0.963729 -0.01936,-0.234183 -0.03018,-0.276129 -0.116605,-0.454863 -0.07902,-0.163169 -0.130792,-0.232143 -0.302641,-0.402744 -0.224287,-0.222662 -0.373955,-0.315626 -0.63982,-0.397448 -0.348719,-0.107306 -0.749272,-0.07732 -1.069761,0.08004 -0.150507,0.07395 -0.219834,0.124447 -0.544847,0.397068 -0.210431,0.176516 -0.34372,0.177014 -0.46181,0.0019 -0.06956,-0.103205 -0.06512,-0.176552 0.01846,-0.308429 0.189776,-0.299321 0.658976,-0.621884 1.067854,-0.734113 0.116516,-0.032 0.234973,-0.04061 0.557639,-0.04061 0.358496,0 0.432004,0.0067 0.588159,0.05172 0.258547,0.07491 0.49443,0.199522 0.713826,0.377044 0.105861,0.08569 0.197424,0.150801 0.203467,0.144747 0.0063,-0.0063 0.01702,-0.215912 0.02438,-0.466363 l 0.01343,-0.455371 -0.202618,-0.01343 c -0.504366,-0.03334 -0.67519,-0.07696 -0.948422,-0.241785 -0.0829,-0.05007 -0.162277,-0.09097 -0.176356,-0.09097 -0.01405,0 -0.07069,0.03105 -0.125841,0.069 -0.146287,0.100677 -0.364806,0.198958 -0.508849,0.228874 -0.07492,0.01556 -0.232104,0.02154 -0.388413,0.01476 -0.366763,-0.01583 -0.472008,-0.05788 -0.944564,-0.377218 -0.473906,-0.32024 -0.591207,-0.409052 -0.83057,-0.628869 -0.102822,-0.09441 -0.194276,-0.17167 -0.20324,-0.17167 -0.0092,0 -0.07724,0.0736 -0.151712,0.163539 -0.553904,0.668946 -0.877329,1.242926 -1.127333,2.000676 -0.232312,0.704124 -0.246614,0.906772 -0.247777,3.511367 l -7.52e-4,1.725594 0.074,-0.01133 c 0.04067,-0.0065 0.150792,-0.01748 0.244682,-0.02493 z m 2.040223,-3.484973 c -0.207597,-0.122672 -0.24496,-0.400377 -0.05547,-0.549442 0.133058,-0.104689 0.320444,-0.08067 0.440841,0.05652 0.05905,0.06722 0.06945,0.09748 0.06945,0.201762 0,0.100101 -0.01133,0.136139 -0.06152,0.195819 -0.109671,0.130368 -0.259041,0.174676 -0.393235,0.09538 z m -10.241824,0.474182 c -0.0086,-0.34747 -0.015,-2.062673 -0.01502,-3.811553 l -4.7e-5,-3.179788 -0.129691,-0.07935 -0.1297,-0.0793 -0.171884,0.147723 c -0.375598,0.32279 -0.754271,0.471126 -1.207506,0.473023 -0.223855,9.22e-4 -0.246815,-0.0036 -0.362533,-0.06732 -0.07572,-0.04189 -0.161613,-0.116767 -0.221908,-0.193519 l -0.09835,-0.125208 -1.3e-5,-2.29857 -1.6e-5,-2.298564 0.09078,-0.182974 c 0.222203,-0.447955 0.597615,-0.745281 1.023657,-0.810745 0.162949,-0.02507 0.516432,-0.01755 0.640493,0.01359 0.05016,0.01265 0.0834,-0.007 0.216231,-0.125379 0.478067,-0.4270572 1.431371,-0.8953493 2.104089,-1.0335913 0.493358,-0.1013871 1.279719,-0.1082491 1.805885,-0.015788 0.683137,0.120065 1.607025,0.5541746 2.119327,0.9958153 0.212707,0.18337 0.231343,0.191958 0.35425,0.163216 0.151435,-0.03543 0.595056,-0.0081 0.775829,0.04829 0.395276,0.122653 0.77353,0.531674 0.895717,0.968583 0.05613,0.200695 0.09041,2.063047 0.06306,3.426892 -0.02056,1.024354 -0.02132,1.036545 -0.07512,1.148218 -0.108796,0.225748 -0.296777,0.357374 -0.574257,0.40207 -0.07754,0.01254 -0.144411,0.02611 -0.148606,0.0304 -0.0043,0.0044 0.06329,0.149592 0.150043,0.323099 0.417771,0.835858 0.668951,1.755223 0.732621,2.681533 0.01294,0.186915 0.02662,0.343123 0.03069,0.347137 0.0041,0.0041 0.06492,-0.09855 0.135461,-0.227918 0.237587,-0.435965 0.51957,-0.839487 0.869833,-1.244765 l 0.212965,-0.2464 -0.09983,-0.22386 c -0.212359,-0.476197 -0.294548,-0.894842 -0.276369,-1.407729 0.01589,-0.448861 0.05395,-0.614648 0.286026,-1.246047 0.04535,-0.12333 0.04898,-0.192682 0.06614,-1.263542 0.01818,-1.131864 0.01821,-1.13317 0.07276,-1.245713 0.03008,-0.06198 0.09427,-0.15116 0.142754,-0.198218 0.155183,-0.150644 0.467793,-0.229022 0.711541,-0.178403 0.162913,0.0338 0.273136,0.12423 0.865161,0.709614 l 0.4564,0.45128 h 1.101114 1.101117 l 0.456823,-0.450837 c 0.724127,-0.714628 0.737786,-0.723599 1.095756,-0.719588 0.157093,0.0019 0.201159,0.0116 0.304178,0.06764 0.13001,0.07075 0.238173,0.188906 0.321829,0.351482 0.05131,0.09971 0.05315,0.125294 0.06989,0.956189 0.03159,1.564039 0.01839,1.3932 0.125415,1.627809 0.410129,0.899217 0.326593,2.052719 -0.208822,2.883558 -0.297757,0.462051 -0.684768,0.815882 -1.271637,1.162623 l -0.10503,0.06206 -0.0024,0.973832 c -0.0013,0.535605 -0.0096,1.434846 -0.01795,1.998317 -0.009,0.563469 -0.01296,1.028418 -0.0098,1.03322 0.01448,0.02194 0.512421,-0.4307 0.884096,-0.803696 0.598979,-0.601118 1.018558,-1.1173 1.472713,-1.811799 2.712122,-4.147269 2.439805,-9.58969 -0.672379,-13.4405374 C 38.101717,6.0628736 36.77934,5.0028857 35.303439,4.2784344 33.994643,3.6360046 32.698035,3.2754763 31.195092,3.1360896 30.800439,3.0994826 29.703069,3.0993396 29.305945,3.1358279 28.01263,3.25468 26.838304,3.5475151 25.724862,4.0288427 c -2.238109,0.9675044 -4.077627,2.5876668 -5.348156,4.7103897 -0.211242,0.3529243 -0.620989,1.1898759 -0.77625,1.5855416 -0.692629,1.765169 -0.943391,3.665502 -0.729599,5.529057 0.339157,2.956382 1.790799,5.622445 4.107556,7.543855 0.106406,0.08827 0.202803,0.160937 0.2142,0.16153 0.0124,6.2e-4 0.01464,-0.254749 0.006,-0.6307 z m 9.988324,-11.45643 C 32.488954,11.400629 31.791951,11.053018 31.251489,10.506974 30.871091,10.122638 30.621211,9.7275335 30.447931,9.2364002 30.321347,8.8776183 30.246031,8.4951944 30.2549,8.2478946 c 0.0089,-0.2472998 0.03142,-0.4586082 0.103052,-0.8303303 0.07163,-0.3717221 0.587478,-0.3283736 0.537475,0.02443 -0.05,0.3528037 -0.0525,0.526111 -0.06781,0.8604568 -0.04975,1.0855583 0.607019,1.8904229 1.647824,2.3835719 0.275763,0.130662 0.499982,0.18809 0.864734,0.221485 0.393561,0.036 0.772634,0.0025 1.059679,-0.09369 0.97123,-0.325469 1.674361,-1.0655274 1.894925,-1.9944682 C 36.47324,8.0676731 36.340859,7.3044906 35.919167,6.6538722 35.741483,6.3798103 35.35229,5.9953917 35.048345,5.793782 34.635781,5.5201281 34.260844,5.3944891 33.801209,5.3758783 33.349368,5.3575891 32.98373,5.4418077 32.428799,5.6919757 31.99698,5.7955428 31.706952,5.3901347 32.266009,5.1118411 32.70926,4.8972974 33.073805,4.8336703 33.750898,4.8526637 c 0.492886,0.013826 0.65591,0.044655 1.048245,0.1982369 1.10959,0.4343471 1.915326,1.4335324 2.101287,2.6057643 0.04843,0.3053408 0.03089,0.9187721 -0.03425,1.1985194 -0.155873,0.6691401 -0.442958,1.1915607 -0.912733,1.6609477 -0.490983,0.490574 -1.015622,0.772718 -1.695534,0.911829 -0.258566,0.05285 -0.777108,0.07431 -1.071234,0.04414 z M 33.295064,9.8673704 C 32.772946,9.7486082 32.310369,9.1779933 32.310369,8.652668 c 0,-0.1543032 0.055,-0.2373225 0.191894,-0.2896129 0.08356,-0.031908 0.114004,-0.033771 0.1826,-0.011095 0.108174,0.035702 0.148109,0.1018387 0.183056,0.3031151 0.03609,0.2080569 0.116673,0.3693577 0.240211,0.4809981 0.150754,0.1362258 0.275542,0.1830738 0.488709,0.1834711 0.160872,3.024e-4 0.200671,-0.00859 0.334912,-0.074686 0.238274,-0.1173182 0.334465,-0.2579638 0.407351,-0.5955279 0.04715,-0.2182393 0.09764,-0.2839539 0.238598,-0.3104057 0.167603,-0.031446 0.303781,0.088201 0.321156,0.282177 0.0116,0.1289142 -0.07957,0.4599447 -0.169664,0.6163052 -0.08714,0.1513287 -0.383696,0.441327 -0.523598,0.512085 -0.249906,0.1263991 -0.647059,0.1778208 -0.91053,0.1178979 z M 32.52754,7.7667254 c -0.154637,-0.04004 -0.203365,-0.1537086 -0.191212,-0.4460905 0.0076,-0.1757572 0.01445,-0.2030287 0.06731,-0.2558532 0.129451,-0.129461 0.359426,-0.093441 0.432624,0.067762 0.0842,0.1853207 0.03375,0.5377832 -0.08583,0.6005169 -0.05827,0.030572 -0.169824,0.047405 -0.222906,0.033678 z m 1.975276,-0.015946 c -0.121161,-0.054199 -0.155355,-0.1320556 -0.155355,-0.3536665 0,-0.2487473 0.01849,-0.3108641 0.108735,-0.3659166 0.140277,-0.085556 0.323741,-0.040171 0.39526,0.097763 0.05026,0.09695 0.05174,0.3626808 0.0027,0.475939 -0.06172,0.1424065 -0.215919,0.2064379 -0.35129,0.1458801 z M 31.350241,6.6360976 c -0.261737,0.00598 -0.420759,-0.4183203 -0.06383,-0.5516531 0.470439,-0.089704 0.4654,0.5030837 0.06383,0.5516531 z m 3.65062,12.5056284 c 0.02868,-0.015 0.129009,-0.08084 0.222897,-0.146279 0.222716,-0.155243 0.300296,-0.193452 0.391503,-0.192851 0.09799,6.26e-4 0.250339,0.07094 0.394049,0.181869 0.203847,0.157294 0.358266,0.214634 0.580104,0.215388 0.248186,8.6e-4 0.422348,-0.07267 0.588644,-0.248581 0.190508,-0.201488 0.218955,-0.277064 0.218955,-0.581735 0,-0.223786 -0.0074,-0.27507 -0.04865,-0.353041 -0.114244,-0.214234 -0.451076,-0.447062 -0.695185,-0.48053 l -0.105889,-0.0145 -0.155334,0.167185 c -0.32702,0.351966 -0.433646,0.446847 -0.544701,0.484696 -0.157327,0.0536 -0.338709,0.04722 -0.475548,-0.01686 -0.11628,-0.05446 -0.342606,-0.275675 -0.523496,-0.511726 l -0.09108,-0.118801 -0.112602,0.01341 c -0.55469,0.06599 -0.931095,0.553557 -0.796831,1.032176 0.0475,0.169339 0.179401,0.383155 0.286747,0.464829 0.08885,0.06756 0.287097,0.149779 0.417847,0.173227 0.09776,0.01754 0.361605,-0.02239 0.448542,-0.06782 z m 3.315793,-1.136455 c 0.157793,-0.229046 0.27482,-0.455757 0.360979,-0.699322 0.06179,-0.174648 0.06263,-0.185014 0.06236,-0.723583 -3.67e-4,-0.645049 -0.01667,-0.734819 -0.202978,-1.115559 -0.181369,-0.370731 -0.515901,-0.753793 -0.889225,-1.018227 -0.282876,-0.200359 -0.710439,-0.350324 -1.177874,-0.413113 l -0.08537,-0.01146 -1.34e-4,0.231921 c -1.83e-4,0.326601 -0.02311,0.395372 -0.150569,0.451765 -0.123028,0.05444 -0.206407,0.04158 -0.288496,-0.04452 -0.08179,-0.08575 -0.09881,-0.143341 -0.117621,-0.3973 l -0.0164,-0.22198 h -0.199349 -0.199338 l -0.01313,0.26551 c -0.01047,0.212208 -0.02187,0.27733 -0.0568,0.324416 -0.05997,0.08089 -0.195206,0.124269 -0.289952,0.09299 -0.151871,-0.05017 -0.215384,-0.187209 -0.216217,-0.466637 -6.2e-4,-0.216133 -0.0092,-0.22561 -0.185244,-0.21049 -0.203591,0.01746 -0.484657,0.111462 -0.816013,0.272911 -0.278128,0.135516 -0.291187,0.1453 -0.582363,0.436513 -0.416983,0.417044 -0.591733,0.70276 -0.718289,1.174404 -0.04521,0.168616 -0.05204,0.249168 -0.05271,0.626076 -0.0011,0.495595 0.0159,0.584519 0.181791,0.955299 0.132609,0.296493 0.290921,0.558428 0.430557,0.712391 0.103466,0.114065 0.114845,0.120736 0.14226,0.08323 0.01634,-0.02242 0.02983,-0.0698 0.02983,-0.105424 0,-0.202365 0.208621,-0.595427 0.43457,-0.818791 0.182556,-0.180462 0.440582,-0.316475 0.703474,-0.370825 0.107977,-0.02232 0.183252,-0.05104 0.204849,-0.07825 0.01875,-0.02358 0.06356,-0.08089 0.09957,-0.127268 0.03596,-0.04637 0.101428,-0.09934 0.145387,-0.117723 0.120648,-0.0504 0.902441,-0.08635 1.214211,-0.05568 0.291547,0.02858 0.399376,0.0747 0.500207,0.213965 0.0866,0.119536 0.105436,0.130013 0.301674,0.167412 0.550057,0.104834 1.016919,0.589743 1.097756,1.140168 0.0091,0.05995 0.0257,0.134626 0.03759,0.165932 l 0.02155,0.05696 0.07809,-0.09109 c 0.04292,-0.05013 0.1381,-0.17815 0.211421,-0.284584 z m -3.88502,-1.904937 c -0.118398,-0.05837 -0.152696,-0.14545 -0.150911,-0.3831 0.0019,-0.236309 0.03842,-0.331178 0.150314,-0.389048 0.139042,-0.07192 0.333755,0.01201 0.384481,0.165802 0.03676,0.111377 0.01338,0.447697 -0.03643,0.523703 -0.03788,0.05782 -0.15989,0.121125 -0.231718,0.120202 -0.02236,-2.81e-4 -0.07442,-0.01719 -0.115718,-0.0376 z m 2.104438,-0.01048 c -0.02314,-0.01345 -0.05637,-0.05889 -0.074,-0.101027 -0.03778,-0.09052 -0.04233,-0.392902 -0.0082,-0.517527 0.05849,-0.210585 0.364122,-0.233937 0.466634,-0.03561 0.02858,0.05528 0.03483,0.124459 0.02883,0.320372 -0.0077,0.241283 -0.0098,0.251689 -0.07151,0.304716 -0.05014,0.04301 -0.08931,0.05478 -0.18209,0.05421 -0.06499,-3.77e-4 -0.137109,-0.01174 -0.160189,-0.02509 z m -0.845726,1.514905 c 0.07409,-0.04853 0.318549,-0.369874 0.297498,-0.391005 -0.02243,-0.02255 -0.518624,-0.0359 -0.642354,-0.01738 l -0.09873,0.01478 0.03175,0.06121 c 0.0392,0.07562 0.30546,0.368581 0.335022,0.368581 0.01173,0 0.04642,-0.01626 0.07685,-0.03623 z M 26.176307,16.76426 c 0.257746,-0.05439 0.430598,-0.152469 0.637402,-0.361766 0.328959,-0.332917 0.387016,-0.507786 0.386222,-1.163338 -5.94e-4,-0.500164 -0.0271,-0.637894 -0.168657,-0.876539 -0.08138,-0.137169 -0.174641,-0.247578 -0.190574,-0.225581 -0.0038,0.0054 -0.02586,0.05333 -0.04936,0.107181 -0.05267,0.121139 -0.296099,0.353236 -0.414282,0.395032 -0.120689,0.04266 -0.820817,0.04241 -0.968016,-3.94e-4 -0.143271,-0.04164 -0.277247,-0.160967 -0.40545,-0.361134 l -0.105819,-0.165191 -0.06905,0.0966 c -0.10079,0.141072 -0.184671,0.316805 -0.228266,0.478298 -0.05757,0.21321 -0.05651,0.953951 0.0017,1.143669 0.07002,0.228645 0.174592,0.399079 0.356236,0.580764 0.182461,0.182514 0.367008,0.29573 0.571803,0.350826 0.160048,0.04298 0.446222,0.04372 0.646135,0.0016 z m -4.37009,-0.959755 c 0.24915,-0.06215 0.414587,-0.158491 0.614663,-0.357948 0.146768,-0.146332 0.208282,-0.229574 0.29626,-0.400958 l 0.111022,-0.216278 0.0012,-1.707489 c 0.0013,-1.904789 0.0116,-1.778354 -0.160113,-1.968414 -0.134721,-0.149162 -0.238494,-0.193518 -0.453765,-0.193982 -0.160233,-3.49e-4 -0.200858,0.0089 -0.332077,0.07323 -0.204734,0.100821 -0.368121,0.275804 -0.422754,0.452767 -0.03864,0.125212 -0.04133,0.269365 -0.04133,2.234879 0,1.842553 0.0043,2.103764 0.03413,2.123221 0.03782,0.02453 0.146145,0.01254 0.352801,-0.039 z m 8.527015,-0.0073 c 0.05541,-0.06672 0.07292,-1.072205 0.04856,-2.789546 l -0.02007,-1.411545 -0.05781,-0.125214 c -0.08514,-0.184353 -0.245115,-0.349335 -0.424273,-0.437562 -0.131032,-0.06456 -0.174976,-0.07461 -0.322862,-0.07435 -0.12285,2.65e-4 -0.196893,0.01295 -0.26223,0.0448 -0.121637,0.05937 -0.296222,0.240882 -0.333811,0.347134 -0.04021,0.113486 -0.04035,3.190471 -1.81e-4,3.421112 0.08409,0.482975 0.544769,0.944963 1.056081,1.058961 0.169218,0.03776 0.265665,0.02745 0.316595,-0.03379 z m -6.344694,-0.581168 c 0.02547,-0.654863 0.08147,-0.869693 0.320232,-1.228651 0.172928,-0.259968 0.431294,-0.497455 0.68582,-0.630401 0.299832,-0.15662 0.472813,-0.204055 0.794784,-0.217972 0.609461,-0.02631 1.074454,0.173043 1.514177,0.64929 0.118139,0.127963 0.192806,0.237321 0.275297,0.40324 0.142221,0.286033 0.172608,0.449287 0.192848,1.035873 0.0089,0.24417 0.0218,0.456283 0.0297,0.471355 0.02085,0.03979 0.707938,-0.369021 0.707938,-0.421151 0,-0.02143 -0.02279,-0.110646 -0.05049,-0.198254 -0.0502,-0.158231 -0.05051,-0.171633 -0.05776,-2.007773 l -0.0076,-1.848483 0.104774,-0.208689 c 0.05763,-0.114754 0.09958,-0.222337 0.09316,-0.239045 -0.01778,-0.04629 -0.253478,-0.226291 -0.464996,-0.355083 -0.450129,-0.27404 -1.005776,-0.5115343 -1.392657,-0.5952064 -0.190501,-0.041196 -0.294766,-0.046719 -0.876294,-0.046334 -0.638351,4.106e-4 -0.667384,0.00234 -0.882534,0.059721 -0.594243,0.158441 -1.503311,0.6154954 -1.764324,0.8870924 l -0.07487,0.07791 0.08018,0.119238 c 0.111355,0.165525 0.146913,0.304573 0.172217,0.673527 0.02786,0.405583 0.02819,2.576507 5.2e-4,2.934114 -0.0116,0.14874 -0.04347,0.377504 -0.07108,0.508373 l -0.05018,0.237939 0.05784,0.05784 c 0.03181,0.03184 0.184401,0.132718 0.339069,0.224212 0.266468,0.15762 0.28193,0.163748 0.29466,0.116752 0.0077,-0.02728 0.02066,-0.234007 0.02938,-0.459394 z m 0.744646,-2.38513 c -0.08893,-0.04567 -0.139774,-0.135432 -0.167039,-0.294608 -0.03428,-0.20026 0.0024,-0.371637 0.09893,-0.464305 0.123374,-0.118245 0.342423,-0.07474 0.42407,0.08419 0.03963,0.07707 0.03718,0.457348 -0.0037,0.554804 -0.05336,0.127801 -0.224093,0.185922 -0.352389,0.119974 z m 2.080426,0.0074 c -0.02505,-0.01035 -0.0711,-0.04637 -0.102418,-0.08001 -0.05034,-0.05418 -0.05781,-0.08496 -0.06495,-0.268281 -0.01061,-0.270112 0.01823,-0.364681 0.134248,-0.441506 0.07147,-0.04735 0.107091,-0.05681 0.173244,-0.04602 0.107234,0.01741 0.206798,0.11364 0.238378,0.230424 0.03417,0.126384 0.01396,0.404492 -0.03477,0.478917 -0.07821,0.119394 -0.227816,0.174461 -0.343685,0.126521 z m 6.153169,1.385925 c 0.178582,-0.160227 0.493622,-0.367974 0.726927,-0.479345 l 0.196117,-0.09359 -0.388141,-0.382989 c -0.227363,-0.22434 -0.413067,-0.389245 -0.448314,-0.398093 -0.09944,-0.02496 -0.166806,0.0052 -0.195448,0.08648 -0.02956,0.08419 -0.06433,1.383206 -0.03703,1.383206 0.0096,0 0.07501,-0.05201 0.145875,-0.115601 z m 5.42041,-0.595861 c -3.61e-4,-0.699641 -0.0087,-0.751245 -0.118181,-0.764046 -0.104091,-0.01213 -0.200503,0.05969 -0.569999,0.424295 l -0.358489,0.353793 0.24468,0.127445 c 0.265451,0.138254 0.504349,0.288478 0.665759,0.418634 0.05636,0.04537 0.110105,0.08268 0.119487,0.08281 0.0096,1.18e-4 0.01689,-0.289191 0.01671,-0.64293 z m -12.335072,0.506344 c 0.192111,-0.03643 0.273703,-0.141662 0.2248,-0.289879 -0.03631,-0.110097 -0.126471,-0.142495 -0.396502,-0.142495 -0.23578,0 -0.355203,0.0332 -0.396482,0.110411 -0.06998,0.130915 0.02873,0.28677 0.203019,0.320256 0.144172,0.02774 0.226128,0.02811 0.365165,0.0019 z"
         id="path2134"
         sodipodi:nodetypes="csscsscscccccccccccsccccscccscsscsccccccccccscccscsccccccccccscccccccccccsccssccsccscccsccsccccscscccssscccccsccscsscccccsccccccccccscsccscccsccccccsccccccscccsccsccssccccscssscssccccccssszzzcscsccssccscccscsscscccssscsccsccccccscccscscccccccccccccscccscscccscsccccccsscssccccccccccsscccccssscccccscccccccccccscccccscccccccsccscccscccccccccccccccccscccsccsccsscccccccccsccccccccssccccscsccscccccccccccccccccccccccsccccccsscsccccccsccccccsccc" /><path
         style="fill:none;stroke:#ffffff;stroke-width:0.965;stroke-linecap:round;stroke-linejoin:round;stroke-dasharray:none;stroke-opacity:1"
         d="M 29.835295,35.585296 C 24.648043,27.843479 15.878306,24.039159 16.004392,15.196874 16.130478,6.3545885 21.160599,0.90747768 30.464,0.595 39.767401,0.28252232 44.368876,7.1667524 44.475608,15.196874 44.58234,23.226995 36.548295,27.732923 29.835299,35.585296 Z"
         id="path2264"
         sodipodi:nodetypes="czzzcc" /></g></g></svg>
