<?xml version="1.0" encoding="UTF-8" standalone="no"?>
<!-- Created with Inkscape (http://www.inkscape.org/) -->

<svg
   width="200"
   height="200"
   viewBox="0 0 52.916665 52.916666"
   version="1.1"
   id="svg5"
   xml:space="preserve"
   inkscape:version="1.2.2 (732a01da63, 2022-12-09)"
   sodipodi:docname="sevicio03.svg"
   xmlns:inkscape="http://www.inkscape.org/namespaces/inkscape"
   xmlns:sodipodi="http://sodipodi.sourceforge.net/DTD/sodipodi-0.dtd"
   xmlns="http://www.w3.org/2000/svg"
   xmlns:svg="http://www.w3.org/2000/svg"><sodipodi:namedview
     id="namedview7"
     pagecolor="#ffffff"
     bordercolor="#666666"
     borderopacity="1.0"
     inkscape:showpageshadow="2"
     inkscape:pageopacity="0.0"
     inkscape:pagecheckerboard="0"
     inkscape:deskcolor="#d1d1d1"
     inkscape:document-units="mm"
     showgrid="false"
     inkscape:zoom="1.4778237"
     inkscape:cx="92.027215"
     inkscape:cy="103.86895"
     inkscape:window-width="1260"
     inkscape:window-height="778"
     inkscape:window-x="-6"
     inkscape:window-y="-6"
     inkscape:window-maximized="1"
     inkscape:current-layer="layer1" /><defs
     id="defs2" /><g
     inkscape:label="Capa 1"
     inkscape:groupmode="layer"
     id="layer1"><g
       id="g481"
       style="fill:#ffffff"><path
         style="fill:#ffffff;stroke-width:0.0817392"
         d="M 22.855188,37.069261 C 21.448041,36.942099 19.840556,36.523637 18.993,36.063852 17.2515,35.11912 17.056548,33.688074 18.528433,32.653703 c 1.391806,-0.978095 4.345484,-1.535777 6.993895,-1.320513 l 1.002493,0.08148 1.054543,-0.855316 c 0.579997,-0.470424 1.159932,-0.912258 1.288742,-0.981855 0.760509,-0.410905 1.703369,0.25919 1.282611,0.911557 -0.05623,0.08719 -0.437228,0.42699 -0.846646,0.755101 -0.409416,0.328111 -0.725863,0.607919 -0.703213,0.621797 0.02265,0.01388 0.27486,0.116406 0.560466,0.227843 0.667615,0.260486 1.395492,0.763943 1.703394,1.178202 0.175934,0.236705 0.254733,0.463052 0.287707,0.826423 0.03972,0.437782 0.01458,0.550144 -0.200963,0.897484 -0.585096,0.942931 -2.233522,1.687314 -4.426641,1.998949 -0.779362,0.110745 -2.811541,0.151947 -3.669633,0.0744 z m 4.015176,-1.620039 c 1.476279,-0.303363 2.462074,-0.808641 2.462074,-1.26196 0,-0.277821 -0.604336,-0.68843 -1.394643,-0.947573 -1.068228,-0.350275 -2.047241,-0.48231 -3.57622,-0.48231 -1.520327,0 -2.507923,0.132017 -3.554336,0.475126 -1.370272,0.4493 -1.765228,0.96916 -1.090944,1.435958 0.610194,0.422428 1.524979,0.709588 2.937659,0.922158 1.037614,0.156132 3.106075,0.08676 4.21641,-0.141399 z m 4.717374,-6.721059 c -0.764763,-0.2468 -0.687853,-1.185892 0.110049,-1.343793 0.540768,-0.107014 1.132663,0.251781 1.132663,0.686597 0,0.265169 -0.25878,0.561672 -0.563258,0.645361 -0.336129,0.09239 -0.425043,0.09394 -0.679457,0.01184 z m 2.325163,-2.206627 c -0.28911,-0.211261 -0.397894,-0.560984 -0.24482,-0.787052 0.0624,-0.09216 0.427621,-0.438129 0.811593,-0.768817 0.383972,-0.330689 0.70832,-0.624643 0.720773,-0.65323 0.01242,-0.02859 -0.250464,-0.163334 -0.584262,-0.299436 -0.712906,-0.290682 -1.403794,-0.796172 -1.703509,-1.246376 -0.15935,-0.239365 -0.214356,-0.442921 -0.216897,-0.802669 l -0.0034,-0.481976 -0.920531,-0.157715 c -1.519458,-0.26033 -1.859832,-0.35232 -2.065153,-0.558129 -0.280673,-0.281339 -0.256199,-0.710334 0.05344,-0.936588 0.334319,-0.244296 0.680199,-0.230315 2.564044,0.103646 1.54767,0.274365 1.567609,0.275931 1.810749,0.142211 0.472219,-0.259707 1.601002,-0.639823 2.331638,-0.785174 2.506197,-0.498579 5.562805,-0.310105 7.642135,0.471222 1.43754,0.540169 2.198726,1.294296 2.193343,2.173004 -0.0036,0.589222 -0.27851,1.024061 -0.96353,1.524115 -1.393791,1.017447 -4.36431,1.584735 -7.060946,1.34845 l -0.950588,-0.08329 -1.212658,0.984315 c -1.169284,0.949107 -1.226171,0.984307 -1.590442,0.984099 -0.268579,-1.45e-4 -0.445186,-0.04947 -0.610963,-0.170607 z m 6.836527,-3.170953 c 1.885551,-0.181764 3.40485,-0.713687 3.689622,-1.291778 0.187537,-0.380697 -0.522428,-0.87393 -1.741225,-1.209678 -2.615164,-0.720412 -6.555446,-0.392771 -7.885154,0.655664 -0.369532,0.291365 -0.39578,0.414967 -0.153614,0.723398 0.62845,0.800423 3.651346,1.357512 6.090371,1.122394 z M 26.502281,20.361862 c -0.371623,-0.07593 -0.594217,-0.333663 -0.594217,-0.68803 0,-0.359998 0.421036,-0.675501 0.901449,-0.675501 0.748525,0 1.159415,0.764968 0.633586,1.179569 -0.274909,0.216757 -0.533154,0.267253 -0.940818,0.183962 z M 12.026467,20.274412 C 10.265792,20.027988 8.9622923,19.571715 8.1195923,18.906861 7.6917182,18.569286 7.5041412,18.355538 7.3829014,18.067385 6.8425818,16.783187 8.182906,15.536974 10.757436,14.929793 L 11.375494,14.784029 9.1646828,11.28429 C 7.0966357,8.010548 6.9416749,7.737683 6.7649682,7.0587413 6.2033834,4.9010098 7.2400793,2.6718357 9.4513975,1.2821956 13.676605,-1.373016 19.942849,0.2959387 21.329529,4.4458221 c 0.267902,0.8017535 0.269839,2.0904751 0.0043,2.9032436 -0.140212,0.4291662 -0.753465,1.4742664 -2.350704,4.0059843 l -2.161013,3.425335 0.524818,0.117644 c 0.288646,0.06471 0.904364,0.261868 1.368256,0.43814 1.451048,0.551375 2.161978,1.256193 2.183872,2.165101 l 0.0104,0.433143 1.302536,0.228525 c 1.48448,0.260445 1.747068,0.363927 1.832283,0.722076 0.08723,0.366565 -0.06041,0.636563 -0.436553,0.798373 l -0.327058,0.140697 -1.787403,-0.312186 -1.787405,-0.312187 -0.452862,0.226446 c -0.576733,0.288387 -1.64678,0.613669 -2.531951,0.769685 -0.932576,0.164372 -3.745326,0.211447 -4.694706,0.07857 z m 4.007302,-1.459977 c 1.386958,-0.190704 2.647683,-0.672736 2.944948,-1.125988 0.124685,-0.190107 0.125128,-0.237845 0.004,-0.422531 -0.235503,-0.359079 -1.164429,-0.759697 -2.37862,-1.025827 l -0.623366,-0.136631 -0.595633,0.937214 c -0.656562,1.033136 -0.891674,1.213533 -1.470069,1.127978 -0.399798,-0.05914 -0.488589,-0.151045 -1.140231,-1.18025 l -0.560343,-0.884922 -0.669343,0.145831 c -1.280739,0.27904 -2.4643744,0.865804 -2.4643744,1.221668 0,0.33751 0.7939992,0.819699 1.8023904,1.09458 1.307916,0.356527 3.572028,0.46593 5.15061,0.248878 z M 19.540238,7.0508754 C 19.763589,6.4622213 19.76438,5.3163392 19.541817,4.7402109 19.214812,3.8936157 18.832782,3.3878708 18.056697,2.7741412 17.504246,2.3372604 17.143401,2.1230101 16.616701,1.9191504 14.404275,1.0628269 11.821998,1.3919963 10.114169,2.7480444 9.1038386,3.5502669 8.557998,4.5099807 8.4674214,5.6434101 8.3741775,6.8102643 8.4081167,6.8794212 11.388952,11.59506 l 2.68396,4.245994 2.652539,-4.181279 c 1.458895,-2.2997036 2.72555,-4.3737082 2.814787,-4.6088996 z M 12.893235,8.6950268 C 10.733541,8.0889087 9.7469115,6.2376579 10.714603,4.6071739 c 1.054912,-1.777445 4.083181,-2.2307891 5.908557,-0.884535 0.82159,0.6059406 1.199931,1.292319 1.201653,2.1800207 0.0025,1.2856894 -1.026536,2.3926668 -2.615901,2.814045 -0.602395,0.1597096 -1.706183,0.149377 -2.315677,-0.021678 z M 14.858799,7.2730203 C 15.573589,7.0375374 15.979267,6.5334335 15.982727,5.8764071 15.986427,5.1747814 15.381,4.5739229 14.50302,4.4078521 13.170975,4.1558937 11.88889,5.1667778 12.208444,6.2170579 c 0.125192,0.4114636 0.531354,0.8263386 1.000173,1.0216212 0.415208,0.1729522 1.181062,0.1888903 1.650182,0.034341 z"
         id="path477" /><path
         style="fill:#ffffff;stroke-width:0.103353"
         d="M 0.2536844,52.663081 C 0.1141578,52.523554 0,52.299017 0,52.164106 0,51.90525 8.1107535,39.472527 8.4932945,39.144997 8.6921585,38.974731 9.5007815,38.964129 22.288692,38.964129 h 13.584149 l 0.253684,0.253686 c 0.323317,0.323315 0.323317,0.719607 0,1.042923 l -0.253684,0.253684 -13.259704,8.27e-4 -13.2597025,8.27e-4 -3.5139979,5.334443 c -1.9326978,2.934024 -3.5295,5.375345 -3.5484477,5.425239 -0.019711,0.05189 10.3232661,0.09071 24.1673451,0.09071 13.84408,0 24.187052,-0.03882 24.167344,-0.09071 -0.01894,-0.04989 -1.615749,-2.491215 -3.548447,-5.425158 l -3.513997,-5.334443 -2.562681,-8.27e-4 -2.562682,-8.27e-4 -0.253684,-0.253685 c -0.323316,-0.323316 -0.323316,-0.719608 0,-1.042923 l 0.253684,-0.253766 H 41.325 c 2.600007,0 2.908204,0.01799 3.099058,0.180868 0.381453,0.325541 8.492609,12.760212 8.492609,13.01945 0,0.134723 -0.114158,0.359107 -0.253684,0.498634 l -0.253684,0.253685 H 26.458334 0.5073689 Z M 6.060081,49.601973 C 5.5446866,49.196564 5.6235911,49.021676 7.8662055,45.598777 9.0093505,43.853998 10.037697,42.34506 10.15142,42.245583 c 0.194005,-0.169704 0.853029,-0.180867 10.677181,-0.180867 5.758726,0 10.551471,0.0311 10.650543,0.06912 0.09908,0.03802 1.149323,1.537523 2.333892,3.332235 2.137649,3.238701 2.332014,3.613323 2.074665,3.998738 -0.232123,0.347635 -0.391997,0.351369 -15.041365,0.351369 H 6.332401 Z m 11.145695,-2.115044 c 0.248377,-1.116406 0.857283,-2.262596 1.66606,-3.13615 l 0.681212,-0.735771 -4.272984,0.0031 -4.272983,0.0031 -1.5191225,2.322338 -1.519125,2.322339 h 4.5318215 4.53182 z m 16.419894,0.4829 C 33.520614,47.806998 32.830038,46.76083 32.091065,45.645012 l -1.343586,-2.028757 -3.669027,9.3e-4 c -4.066257,10e-4 -4.501152,0.05072 -5.609156,0.641283 -1.432663,0.763602 -2.414442,2.067694 -2.803008,3.723224 l -0.06671,0.284221 h 7.608555 7.608553 l -0.191014,-0.296059 z m 4.976626,1.73035 c -0.277215,-0.136807 -4.421075,-6.449373 -4.475042,-6.817073 -0.03076,-0.209567 0.03048,-0.362304 0.222046,-0.553876 l 0.264515,-0.264514 h 3.972333 c 3.635505,0 3.989866,0.01533 4.179103,0.180867 0.113722,0.09948 1.142067,1.608415 2.285212,3.353194 2.242614,3.422899 2.321519,3.597787 1.806124,4.003196 -0.26492,0.208385 -0.37798,0.214017 -4.159953,0.207213 -2.334024,-0.0042 -3.970238,-0.04777 -4.094338,-0.109012 z m 5.839437,-2.209438 -0.523064,-0.775147 h -2.790527 -2.790528 l 0.523064,0.775147 0.523064,0.775146 h 2.790528 2.790526 z m -1.711249,-2.60966 c -0.1016,-0.156321 -0.327866,-0.504301 -0.502812,-0.77329 l -0.318085,-0.489069 -2.764689,-0.0019 c -1.520578,-10e-4 -2.764688,0.02196 -2.764688,0.05106 0,0.0291 0.216113,0.377919 0.480252,0.775147 l 0.48025,0.72223 h 2.787251 2.78725 L 42.730484,44.88107 Z"
         id="path471"
         sodipodi:nodetypes="sssscssccccsssscccsccsssscccssssssssscssscccccccscscssscccccssscsssscsscccccccccsscsssccccs" /></g></g></svg>
