<?xml version="1.0" encoding="UTF-8" standalone="no"?>
<!-- Created with Inkscape (http://www.inkscape.org/) -->

<svg
   width="200"
   height="200"
   viewBox="0 0 52.916665 52.916666"
   version="1.1"
   id="svg5"
   xml:space="preserve"
   inkscape:version="1.2.2 (732a01da63, 2022-12-09)"
   sodipodi:docname="sevicio05.svg"
   xmlns:inkscape="http://www.inkscape.org/namespaces/inkscape"
   xmlns:sodipodi="http://sodipodi.sourceforge.net/DTD/sodipodi-0.dtd"
   xmlns="http://www.w3.org/2000/svg"
   xmlns:svg="http://www.w3.org/2000/svg"><sodipodi:namedview
     id="namedview7"
     pagecolor="#ffffff"
     bordercolor="#666666"
     borderopacity="1.0"
     inkscape:showpageshadow="2"
     inkscape:pageopacity="0.0"
     inkscape:pagecheckerboard="0"
     inkscape:deskcolor="#d1d1d1"
     inkscape:document-units="mm"
     showgrid="false"
     inkscape:zoom="2.0899583"
     inkscape:cx="84.690684"
     inkscape:cy="86.365359"
     inkscape:window-width="1260"
     inkscape:window-height="778"
     inkscape:window-x="-6"
     inkscape:window-y="-6"
     inkscape:window-maximized="1"
     inkscape:current-layer="layer1" /><defs
     id="defs2" /><g
     inkscape:label="Capa 1"
     inkscape:groupmode="layer"
     id="layer1"><g
       id="g1010"
       transform="matrix(1.4051904,0,0,1.4051907,0.0300271,0)"
       style="fill:#ffffff"><g
         id="g859"
         style="fill:#ffffff"><path
           style="fill:#ffffff;stroke-width:0.0516764"
           d="M 17.525912,26.323138 17.39907,26.196296 v -1.165069 -1.165069 l -6.033224,-0.0011 c -5.7239471,-0.0011 -6.0438421,-0.006 -6.2403721,-0.09527 -0.260527,-0.118355 -0.520185,-0.410413 -0.590729,-0.66444 -0.03145,-0.11326 -0.05433,-0.764619 -0.05449,-1.551705 l -2.88e-4,-1.356506 h -0.444418 c -0.436514,0 -0.447542,-0.0031 -0.620117,-0.1757 -0.137966,-0.137966 -0.176027,-0.218428 -0.177222,-0.374654 -0.0015,-0.191356 0.0385,-0.237903 1.046447,-1.218778 0.576384,-0.560902 1.128438,-1.05847 1.226787,-1.105705 0.301598,-0.144854 0.454484,-0.04591 1.561957,1.010824 0.548943,0.523794 1.026322,1.000509 1.060842,1.059367 0.140769,0.240012 0.04069,0.606827 -0.19945,0.731007 -0.08865,0.04584 -0.299423,0.07364 -0.55838,0.07364 h -0.415978 v 0.620117 0.620117 h 5.2193201 5.21932 v -4.34082 -4.340821 h -0.442647 c -0.243456,0 -0.487387,-0.02394 -0.542068,-0.05321 -0.134807,-0.07215 -0.255192,-0.318303 -0.257041,-0.525585 -0.0014,-0.153946 0.09278,-0.262475 0.968933,-1.116886 1.18304,-1.1536824 1.250608,-1.2085364 1.488637,-1.2085364 0.258446,0 0.42041,0.127774 1.537005,1.2125594 0.875204,0.850268 0.969881,0.959009 0.968933,1.112863 -0.0014,0.228531 -0.118415,0.44169 -0.283826,0.517056 -0.07452,0.03396 -0.319682,0.06174 -0.544796,0.06174 h -0.409299 l -0.0146,2.0975 -0.0146,2.0975 -0.121996,0.09875 c -0.165215,0.13373 -0.377815,0.12512 -0.514951,-0.02085 -0.11187,-0.119081 -0.112361,-0.129601 -0.112361,-2.40693 v -2.287334 l 0.146628,-0.146627 c 0.104259,-0.10426 0.219983,-0.156548 0.400492,-0.180957 0.139626,-0.01888 0.26878,-0.03831 0.28701,-0.04318 0.01823,-0.0049 -0.267165,-0.294934 -0.63421,-0.644587 l -0.667357,-0.635734 -0.670595,0.635734 c -0.624394,0.591934 -0.660806,0.636838 -0.528509,0.651783 0.355166,0.04012 0.53586,0.120832 0.635176,0.283715 0.09799,0.160713 0.100803,0.29571 0.100803,4.84204 0,4.54106 -0.0029,4.681496 -0.100472,4.841494 -0.06751,0.110722 -0.164925,0.182676 -0.296946,0.219337 -0.273123,0.07584 -10.9202011,0.07584 -11.1933241,0 -0.132021,-0.03666 -0.229434,-0.108615 -0.296946,-0.219337 -0.08976,-0.147218 -0.100492,-0.264918 -0.100665,-1.104508 -1.03e-4,-0.516852 0.02202,-0.998164 0.04918,-1.069583 0.06944,-0.182652 0.289128,-0.310658 0.58601,-0.341461 l 0.253889,-0.02634 -0.676863,-0.637101 -0.676862,-0.637102 -0.673989,0.637102 -0.673989,0.637101 0.247343,0.0278 c 0.286457,0.0322 0.442088,0.107471 0.554751,0.268318 0.06805,0.09715 0.08017,0.345347 0.08017,1.641748 0,1.298686 0.01204,1.544488 0.08045,1.642148 l 0.08045,0.114851 h 6.1223851 c 5.174391,0 6.149604,0.01137 6.298163,0.07344 0.318629,0.133131 0.337669,0.229505 0.337669,1.709175 v 1.32266 l -0.126842,0.126842 c -0.06976,0.06976 -0.187092,0.126842 -0.260731,0.126842 -0.07364,0 -0.190968,-0.05708 -0.260731,-0.126842 z m 1.71464,-2.096927 -0.13616,-0.107104 v -1.775428 c 0,-3.631592 0.0061,-2.840916 0.09043,-2.940636 0.04974,-0.05878 0.153798,-0.121868 0.231243,-0.140192 0.112989,-0.02674 0.171887,-0.0022 0.298104,0.123977 l 0.157295,0.157294 -0.01388,2.82499 -0.01388,1.766656 -0.121996,0.09877 c -0.158054,0.127963 -0.321403,0.125194 -0.491152,-0.0083 z M 0.51904586,16.317129 c -0.210249,-0.06156 -0.468924,-0.357701 -0.511721,-0.585829 -0.07942,-0.423335 -0.03010867,-1.098863 0.62049937,-1.865048 0.202536,-0.238516 0.253905,-0.271301 0.42507697,-0.271301 0.237052,0 0.365748,0.124445 0.365748,0.353668 0,0.123294 -0.07724,0.261859 -0.307447,0.551552 -0.31091197,0.391249 -0.30026734,0.817471 -0.30026734,0.999083 0,0.09641 0.110809,0.09868 4.83174604,0.09868 3.831692,0 4.8314571,-0.01337 4.8303491,-0.0646 -0.0033,-0.150684 -0.320422,-0.794226 -0.5942251,-1.205726 -0.720665,-1.083093 -1.786595,-1.832916 -3.059228,-2.151997 -0.361561,-0.09065 -0.600002,-0.113406 -1.176896,-0.112307 -0.84593,0.0016 -1.357555,0.106194 -2.12633,0.43465 -0.482269,0.206049 -0.57688,0.213702 -0.754631,0.06104 -0.105294,-0.09043 -0.119769,-0.364648 -0.02584,-0.489473 0.07198,-0.09566 0.720015,-0.404772 1.059367,-0.505317 l 0.219625,-0.06507 v -0.376746 c 0,-1.1706014 0.399381,-2.742645 0.960259,-3.779766 0.09607,-0.177638 0.154012,-0.322978 0.128766,-0.322978 -0.02524,0 -0.445543,0.05814 -0.933996,0.129191 -0.488453,0.07105 -0.968482,0.129191 -1.066731,0.129191 -0.372201,0 -0.615333,-0.248288 -0.605626,-0.618471 0.0057,-0.217737 0.285065,-0.898615 0.543941,-1.325759 0.354194,-0.584416 1.048095,-1.165917 1.563468,-1.310213 0.130208,-0.03646 0.236742,-0.07368 0.236742,-0.08272 0,-0.009 -0.202449,-0.349021 -0.449886,-0.755512 -0.391164,-0.6426053 -0.450183,-0.7704031 -0.452169,-0.97911 -0.0051,-0.5312685 0.466693,-0.7194701 1.339822,-0.5345177 0.864412,0.1831058 1.768185,0.8181034 2.230342,1.5670547 0.0059,0.0095 0.174816,-0.02253 0.375393,-0.07128 0.491327,-0.119417 1.342696,-0.08227 1.799756,0.07853 0.4174441,0.146861 0.8504891,0.430103 1.1921401,0.779745 0.293019,0.299873 0.579307,0.806943 0.578991,1.025506 -2.06e-4,0.159442 -0.163461,0.44351 -0.294181,0.511956 -0.05126,0.02684 -0.453642,0.123105 -0.894183,0.213923 -0.4405421,0.09082 -0.8428541,0.176925 -0.8940271,0.191352 -0.07969,0.02247 -0.06354,0.05823 0.112601,0.249327 0.38842,0.421386 0.5749631,0.958064 0.5743581,1.652411 -6.56e-4,0.752213 -0.3445941,1.8249716 -0.6490681,2.0244706 -0.178724,0.1171044 -0.480032,0.1210934 -0.651677,0.0086 -0.07164,-0.04691 -0.394476,-0.470513 -0.71741,-0.9413046 -0.322933,-0.470791 -0.603315,-0.838808 -0.623071,-0.817815 -0.06219,0.06608 -0.245543,0.717702 -0.334314,1.1880926 -0.09208,0.487958 -0.118441,1.3609324 -0.05515,1.8266834 l 0.03933,0.289434 0.316986,0.08813 c 1.398123,0.388713 2.7997191,1.576731 3.4958351,2.963131 0.483352,0.962656 0.493619,1.401175 0.04071,1.73882 -0.145772,0.108673 -0.149679,0.108761 -5.1934811,0.11752 -2.956587,0.0051 -5.11499904,-0.01097 -5.21029804,-0.03887 z M 6.2367869,10.50165 c 2.58e-4,-1.0965634 0.12578,-1.783302 0.496798,-2.717702 L 6.9123009,7.333859 6.7425789,7.070885 c -0.166462,-0.257923 -0.173692,-0.26239 -0.376427,-0.232593 -0.253479,0.03726 -0.298727,0.09315 -0.690676,0.853143 -0.518641,1.005652 -0.800573,1.9998736 -0.866035,3.054034 l -0.03401,0.547727 0.730593,-0.0051 0.730592,-0.0051 1.55e-4,-0.781297 z m 2.96685,-1.913337 c 0.108047,-0.417194 0.106292,-1.066239 -0.0038,-1.389214 -0.08168,-0.239709 -0.2986,-0.491555 -0.83616,-0.970772 -0.185091,-0.165002 -0.217035,-0.401344 -0.08798,-0.650914 0.09869,-0.19085 0.19153,-0.222354 1.333105,-0.452388 0.5329131,-0.107385 0.9689331,-0.214761 0.9689331,-0.238613 0,-0.132444 -0.568622,-0.625606 -0.9236381,-0.801065 -0.383725,-0.189647 -0.396815,-0.19213 -1.012634,-0.19213 -0.601081,0 -0.636515,0.0062 -0.969471,0.170132 -0.246916,0.121556 -0.431488,0.26531 -0.646451,0.503485 -0.34935,0.387076 -0.397587,0.399066 -0.934798,0.232357 -0.304952,-0.09463 -0.460962,-0.113008 -0.800984,-0.09434 -0.633012,0.03475 -1.076202,0.295834 -1.480444,0.87212 -0.192203,0.274004 -0.492673,0.867818 -0.45555,0.900294 0.0083,0.0073 0.71274,-0.0879 1.565401,-0.211491 1.780578,-0.258087 1.877929,-0.264168 2.050918,-0.128094 0.06984,0.05494 0.46087,0.583977 0.868946,1.175639 1.187119,1.721184 1.20046,1.739017 1.243455,1.662079 0.02138,-0.03826 0.07588,-0.212449 0.121107,-0.387084 z M 6.6328479,3.859219 6.8517799,3.644353 6.6864799,3.412105 C 6.4926519,3.139772 6.1122779,2.8254789 5.7612189,2.6475839 5.4984259,2.5144162 4.9026859,2.3422236 4.8583039,2.3866052 c -0.01436,0.014362 0.175399,0.3627576 0.421691,0.7742118 l 0.447804,0.748098 0.293338,0.07558 c 0.161336,0.04157 0.315712,0.07873 0.343059,0.08258 0.02735,0.0038 0.148239,-0.08968 0.268652,-0.207856 z M 12.220644,8.777648 C 11.98385,8.705578 11.780211,8.52787 11.667421,8.294876 11.541333,8.034413 11.530767,7.808877 11.633171,7.56379 11.673621,7.46699 12.686782,5.845742 13.884649,3.961019 16.1377,0.41606995 16.32771,0.15343332 16.71769,0.04511932 c 0.413175,-0.114756 0.867033,-0.00588 1.137127,0.27278653 0.08905,0.091871 0.714748,1.03385065 1.390451,2.09328715 0.675702,1.059436 1.248181,1.930942 1.272176,1.93668 0.02399,0.0057 0.249205,-0.361547 0.500468,-0.816188 0.258884,-0.46843 0.534496,-0.8977842 0.636049,-0.9908498 0.328977,-0.3014855 0.89513,-0.2796529 1.207194,0.046553 0.08889,0.092921 0.762454,1.2619038 1.496803,2.5977388 1.297035,2.359406 1.335133,2.436954 1.333563,2.714464 -0.002,0.345132 -0.145727,0.608916 -0.427319,0.78401 l -0.191182,0.118877 -6.356201,0.0089 c -3.495911,0.0049 -6.41919,-0.01028 -6.496175,-0.03372 z m 9.674275,-0.750071 c 0,-0.02431 -3.190354,-5.0412428 -3.23412,-5.0857511 -0.03446,-0.035043 -0.230615,0.1623051 -0.387794,0.3901511 -0.08116,0.117649 -0.289242,0.5246 -0.462406,0.904338 -0.378243,0.829457 -0.506412,0.979077 -0.868511,1.013871 -0.20502,0.0197 -0.297595,0.0017 -0.43855,-0.08545 C 16.319031,5.050704 16.272429,4.971917 15.950129,4.229118 L 15.759538,3.789868 15.346665,3.774978 14.933793,3.760088 13.634286,5.7964 c -0.714729,1.119972 -1.299507,2.072349 -1.299507,2.116395 0,0.04405 0.02907,0.09181 0.0646,0.106147 0.08378,0.03381 9.495544,0.04236 9.495544,0.0086 z m 3.00925,-0.07804 c 0.03661,-0.0581 -0.273951,-0.666328 -1.226957,-2.402954 -0.701788,-1.278839 -1.306705,-2.357411 -1.34426,-2.396825 -0.03756,-0.03941 -0.101979,-0.05873 -0.143163,-0.04293 -0.11112,0.04264 -1.18899,2.036014 -1.143836,2.115368 0.02074,0.03645 0.433679,0.688813 0.917635,1.449686 l 0.879918,1.383406 1.005822,-0.01398 c 0.828814,-0.01152 1.014448,-0.02767 1.054841,-0.091771 z M 17.24186,3.639355 C 17.526989,3.047806 17.664281,2.8267616 17.90915,2.5649963 L 18.21745,2.2354226 17.809734,1.5915398 C 17.373421,0.90249845 17.250112,0.76679255 17.06033,0.76679255 c -0.196446,0 -0.345597,0.1812313 -0.999432,1.21439615 l -0.621363,0.9818523 0.308616,0.035696 c 0.458148,0.052991 0.564072,0.153915 0.85654,0.816109 0.138292,0.313113 0.257456,0.569297 0.264809,0.569297 0.0074,0 0.174916,-0.335153 0.37236,-0.744785 z"
           id="path761"
           sodipodi:nodetypes="ccccccsccsccsssssscccccccsccsssccscccssscsscscsssscsssscscccccsssscssscssccccsccccccscccssssssscsscsssscscssscscsscscssscssccsscsccscsssccccscscsccccccccssssssccccscccssccscsscscccscscsscscsssscscccccsssscscccsscccssccsscsssscssscsssss" /><path
           style="fill:#ffffff;fill-rule:evenodd;stroke-width:0.205747;paint-order:stroke fill markers"
           id="path763"
           sodipodi:type="arc"
           sodipodi:cx="1.8897457"
           sodipodi:cy="13.005789"
           sodipodi:rx="0.39687499"
           sodipodi:ry="0.39687499"
           sodipodi:start="0.18738728"
           sodipodi:end="0.17433186"
           sodipodi:open="true"
           sodipodi:arc-type="arc"
           d="M 2.2796731,13.079724 A 0.39687499,0.39687499 0 0 1 1.8170839,13.395955 0.39687499,0.39687499 0 0 1 1.499344,12.934401 0.39687499,0.39687499 0 0 1 1.9598591,12.615156 0.39687499,0.39687499 0 0 1 2.2806051,13.074627" /><path
           style="fill:#ffffff;fill-rule:evenodd;stroke-width:0.205747;paint-order:stroke fill markers"
           id="path763-4"
           sodipodi:type="arc"
           sodipodi:cx="19.496002"
           sodipodi:cy="18.166731"
           sodipodi:rx="0.39687499"
           sodipodi:ry="0.39687499"
           sodipodi:start="0.18738728"
           sodipodi:end="0.17433186"
           sodipodi:open="true"
           sodipodi:arc-type="arc"
           d="m 19.88593,18.240666 a 0.39687499,0.39687499 0 0 1 -0.46259,0.316232 0.39687499,0.39687499 0 0 1 -0.31774,-0.461555 0.39687499,0.39687499 0 0 1 0.460516,-0.319245 0.39687499,0.39687499 0 0 1 0.320746,0.459471" /></g><path
         style="fill:#ffffff;stroke-width:0.0444258"
         d="m 33.730414,37.487211 c 0.865087,-0.105906 1.656331,-0.790803 1.882061,-1.629102 l 0.05064,-0.188066 h 0.525812 c 0.769308,0 1.065608,-0.132252 1.318375,-0.588449 l 0.129333,-0.233428 v -4.75356 -4.753562 L 37.51197,25.087176 c -0.1528,-0.31116 -0.449072,-0.580602 -0.756275,-0.687784 -0.217872,-0.07601 -0.615524,-0.08014 -7.719933,-0.08014 h -7.490228 l -0.304511,0.155491 c -0.300882,0.153637 -0.323882,0.179008 -1.929392,2.128269 l -1.624881,1.97278 -1.109293,0.656701 c -0.610111,0.361185 -1.174119,0.718287 -1.253349,0.793558 -0.07923,0.07527 -0.199182,0.241441 -0.266556,0.369263 l -0.122497,0.232403 v 2.021374 2.021374 l 0.104554,0.210391 c 0.133406,0.268452 0.398109,0.533155 0.66424,0.66424 0.183303,0.09029 0.293603,0.105428 0.910397,0.124949 l 0.701823,0.02221 0.103212,0.295743 c 0.194674,0.557817 0.611071,1.023584 1.158688,1.296067 0.328813,0.163609 0.578467,0.217596 0.999581,0.216152 1.018028,-0.0035 1.88391,-0.655771 2.178852,-1.641366 l 0.0565,-0.188809 h 1.418013 1.418011 l 0.12986,-0.12986 c 0.14192,-0.141919 0.167813,-0.315772 0.07679,-0.515556 -0.105765,-0.232127 -0.181159,-0.2431 -1.670293,-0.2431 h -1.372374 l -0.05574,-0.188809 c -0.280959,-0.951628 -1.1896,-1.632648 -2.178339,-1.632648 -0.631801,0 -1.106819,0.189816 -1.580779,0.631679 -0.276536,0.257807 -0.519296,0.644106 -0.620579,0.987513 l -0.0531,0.180053 -0.609179,0.01238 -0.609179,0.01238 -0.152322,-0.152322 -0.152322,-0.152322 v -1.511643 -1.511645 l 0.899622,-0.01438 c 0.96027,-0.01535 1.043317,-0.03336 1.140803,-0.247312 0.08568,-0.188041 0.05686,-0.364374 -0.08227,-0.503511 l -0.12986,-0.12986 h -0.745963 c -0.633922,0 -0.736192,-0.0091 -0.680911,-0.06091 0.03578,-0.0335 0.464885,-0.298391 0.953568,-0.588642 l 0.888516,-0.52773 3.331934,-0.02221 3.331935,-0.02221 0.224949,-0.11872 c 0.268834,-0.141882 0.527267,-0.416138 0.657466,-0.697721 0.09036,-0.195426 0.09561,-0.281066 0.108652,-1.771364 l 0.01369,-1.56601 h 5.307717 c 4.486711,0 5.331091,0.0098 5.458829,0.06314 0.307564,0.128508 0.290291,-0.160619 0.290291,4.859035 0,4.329022 -0.0035,4.529962 -0.08124,4.600275 -0.06483,0.05867 -0.176279,0.07352 -0.5517,0.07352 h -0.470457 l -0.09401,-0.282484 c -0.513444,-1.5429 -2.505562,-2.054916 -3.679923,-0.945816 -0.317917,0.300249 -0.488417,0.553771 -0.613741,0.912585 l -0.102511,0.293502 -1.427367,0.02222 -1.427366,0.02221 -0.129571,0.145085 c -0.142816,0.159916 -0.162532,0.306486 -0.06627,0.492646 0.112672,0.217884 0.190655,0.228572 1.667767,0.228572 h 1.371488 l 0.094,0.282484 c 0.348138,1.046157 1.35473,1.671337 2.470968,1.534684 z m -0.89176,-0.993123 c -0.287208,-0.130644 -0.538032,-0.38421 -0.683298,-0.690767 -0.15282,-0.322498 -0.161729,-0.807653 -0.0205,-1.116083 0.225278,-0.49197 0.661272,-0.793656 1.19785,-0.82885 0.418184,-0.02743 0.699116,0.06651 0.995343,0.332849 0.343422,0.308767 0.46077,0.571299 0.462425,1.034548 0.0011,0.312295 -0.0174,0.415722 -0.107061,0.597875 -0.343707,0.698305 -1.144051,0.989168 -1.844764,0.670428 z m 0.869719,-0.953905 c 0.33511,-0.335109 -0.01694,-0.892645 -0.450306,-0.71314 -0.180053,0.07458 -0.263924,0.205522 -0.263924,0.412045 0,0.234993 0.191912,0.430955 0.422045,0.430955 0.120178,0 0.196043,-0.03372 0.292185,-0.12986 z m -14.695792,0.972713 c -0.271958,-0.118057 -0.607785,-0.451684 -0.727056,-0.722292 -0.153491,-0.348252 -0.146702,-0.815771 0.0167,-1.149742 0.228665,-0.467374 0.648916,-0.748547 1.169643,-0.78256 0.468505,-0.03061 0.724235,0.06788 1.067766,0.411193 0.306078,0.305888 0.415124,0.564916 0.415124,0.98609 0,0.969099 -1.04608,1.646304 -1.942173,1.257311 z m 0.830938,-0.965024 c 0.185021,-0.168577 0.212129,-0.348339 0.08155,-0.54079 -0.05675,-0.08364 -0.15901,-0.170553 -0.227253,-0.193147 -0.431503,-0.142871 -0.758097,0.402814 -0.434662,0.726248 0.174422,0.174423 0.394168,0.177335 0.580362,0.0077 z m 3.421376,-8.718563 v -1.643755 h 0.777452 0.77745 l -1.78e-4,1.454945 c -1.77e-4,1.377216 -0.0049,1.462742 -0.08913,1.600865 -0.04893,0.08025 -0.133821,0.163953 -0.188643,0.185994 -0.05482,0.02204 -0.364566,0.04134 -0.688319,0.04289 l -0.58863,0.0028 z m -4.309302,1.622335 c 0,-0.04333 2.548426,-3.112722 2.635208,-3.173914 0.05118,-0.03608 0.239411,-0.07197 0.437685,-0.08345 l 0.347893,-0.02014 v 1.649463 1.649463 h -1.710393 c -0.940716,0 -1.710393,-0.0096 -1.710393,-0.02142 z m 7.810259,7.107822 c 0.246125,-0.207101 0.196911,-0.577523 -0.09524,-0.71684 -0.443662,-0.211568 -0.826435,0.348155 -0.477032,0.697557 0.168292,0.168292 0.386449,0.175643 0.572272,0.01928 z m -2.66949,-4.138836 c 0.05414,-0.01168 0.151195,-0.08394 0.215673,-0.160567 0.09774,-0.116159 0.113222,-0.169216 0.09311,-0.319126 -0.01593,-0.118752 -0.0636,-0.213769 -0.140406,-0.279833 -0.108219,-0.09309 -0.157966,-0.100026 -0.716976,-0.100026 h -0.600689 l -0.129859,0.129859 c -0.177272,0.177271 -0.177375,0.393096 -2.67e-4,0.591295 l 0.129577,0.145023 0.525703,0.0073 c 0.289137,0.004 0.570003,-0.0022 0.624145,-0.01394 z"
         id="path306"
         sodipodi:nodetypes="cscsscccssscsscssscccssscsscscccssscsssscccccccssscssscccssccscssscssscccssscsccsssssscssssssssssssscsssccccccccsccccsscccsccsssscsssscsccccc" /></g></g></svg>
