<?xml version="1.0" encoding="UTF-8" standalone="no"?>
<!-- Created with Inkscape (http://www.inkscape.org/) -->

<svg
   width="200"
   height="200"
   viewBox="0 0 52.916665 52.916666"
   version="1.1"
   id="svg5"
   xml:space="preserve"
   inkscape:version="1.2.2 (732a01da63, 2022-12-09)"
   sodipodi:docname="sevicio01.svg"
   xmlns:inkscape="http://www.inkscape.org/namespaces/inkscape"
   xmlns:sodipodi="http://sodipodi.sourceforge.net/DTD/sodipodi-0.dtd"
   xmlns="http://www.w3.org/2000/svg"
   xmlns:svg="http://www.w3.org/2000/svg"><sodipodi:namedview
     id="namedview7"
     pagecolor="#ffffff"
     bordercolor="#666666"
     borderopacity="1.0"
     inkscape:showpageshadow="2"
     inkscape:pageopacity="0.0"
     inkscape:pagecheckerboard="0"
     inkscape:deskcolor="#d1d1d1"
     inkscape:document-units="mm"
     showgrid="false"
     inkscape:zoom="1.4778237"
     inkscape:cx="-38.231895"
     inkscape:cy="141.76251"
     inkscape:window-width="1260"
     inkscape:window-height="778"
     inkscape:window-x="-6"
     inkscape:window-y="-6"
     inkscape:window-maximized="1"
     inkscape:current-layer="layer1" /><defs
     id="defs2" /><g
     inkscape:label="Capa 1"
     inkscape:groupmode="layer"
     id="layer1"><g
       id="g1191"
       style="fill:#ffffff"><path
         style="fill:#ffffff;stroke-width:0.062133"
         d="m 5.3360462,53.075967 c -1.209894,-0.148118 -2.316512,-1.106001 -2.632214,-2.27843 l -0.07083,-0.263026 h -0.735389 c -1.07593997,0 -1.49033993,-0.184965 -1.84385493,-0.822994 l -0.180882,-0.326468 v -6.648238 -6.648242 l 0.174355,-0.355056 c 0.213702,-0.435183 0.62806296,-0.812018 1.05771193,-0.961921 0.304712,-0.106312 0.86086,-0.112083 10.7969508,-0.112083 h 10.47569 l 0.425884,0.217466 c 0.420808,0.214874 0.452975,0.250358 2.698411,2.976558 l 2.272528,2.759092 1.551437,0.91845 c 0.853289,0.505146 1.6421,1.004583 1.75291,1.109855 0.110809,0.105278 0.278571,0.337675 0.372799,0.516444 l 0.171323,0.325036 v 2.827055 2.827055 l -0.146227,0.294249 c -0.186579,0.375452 -0.556788,0.74566 -0.928993,0.928994 -0.256365,0.126275 -0.410629,0.147448 -1.273264,0.17475 l -0.981557,0.03107 -0.14435,0.41362 c -0.272268,0.780153 -0.854633,1.431565 -1.62052,1.812655 -0.459871,0.22882 -0.809033,0.304325 -1.397995,0.302307 -1.423794,-0.0049 -2.634801,-0.91715 -3.047301,-2.295584 l -0.07902,-0.264066 H 20.020443 18.037239 L 17.85562,50.352896 c -0.198486,-0.198485 -0.2347,-0.441632 -0.107394,-0.721046 0.14792,-0.324648 0.253365,-0.339995 2.33604,-0.339995 h 1.919376 l 0.07796,-0.264066 c 0.392943,-1.330929 1.663751,-2.283391 3.046583,-2.283391 0.883625,0 1.547975,0.265474 2.210848,0.883455 0.386758,0.360565 0.726277,0.900835 0.86793,1.381117 l 0.07427,0.251818 0.851986,0.01731 0.851987,0.01731 0.213034,-0.213034 0.213035,-0.213035 V 46.75518 44.641022 l -1.258195,-0.02012 c -1.343015,-0.02147 -1.459163,-0.04665 -1.595506,-0.345887 -0.119826,-0.262989 -0.07952,-0.509606 0.115065,-0.704201 l 0.181619,-0.181619 h 1.04329 c 0.886591,0 1.029624,-0.01279 0.952309,-0.08519 -0.05004,-0.04686 -0.650179,-0.417324 -1.333642,-0.823264 l -1.242662,-0.738072 -4.65998,-0.03107 -4.659981,-0.03107 -0.314609,-0.166039 c -0.375986,-0.198433 -0.737425,-0.582003 -0.91952,-0.975819 -0.126379,-0.273319 -0.133725,-0.393093 -0.151959,-2.477397 l -0.01915,-2.190191 H 9.1250825 c -6.2750303,0 -7.4559633,0.01366 -7.6346153,0.0883 -0.430153,0.17973 -0.405996,-0.224638 -0.405996,6.795755 0,6.054489 0.0049,6.335519 0.113622,6.433858 0.09067,0.08206 0.24654,0.102825 0.771598,0.102825 h 0.657971 l 0.131474,-0.395077 c 0.718094,-2.15787 3.504232,-2.873966 5.1466713,-1.322801 0.444632,0.419924 0.683091,0.774494 0.858366,1.276325 l 0.14337,0.410487 1.9962875,0.03107 1.996288,0.03107 0.181216,0.202913 c 0.19974,0.223655 0.227313,0.428646 0.09268,0.689006 -0.157581,0.304728 -0.266646,0.319676 -2.332508,0.319676 H 8.9233715 l -0.131474,0.395077 c -0.486899,1.463135 -1.8947003,2.3375 -3.4558483,2.146379 z m 1.2472,-1.388962 c 0.401683,-0.182717 0.7524813,-0.53735 0.9556473,-0.966094 0.213731,-0.451039 0.226192,-1.129568 0.02866,-1.560932 -0.3150703,-0.688061 -0.9248433,-1.109992 -1.6752913,-1.159215 -0.584863,-0.03837 -0.97777,0.09303 -1.392067,0.465516 -0.480304,0.431836 -0.644425,0.799009 -0.646739,1.4469 -0.0016,0.43677 0.02434,0.581421 0.149733,0.836176 0.480702,0.976636 1.600048,1.383432 2.580053,0.937649 z m -1.216374,-1.334114 c -0.468678,-0.468678 0.0237,-1.248436 0.62979,-0.997384 0.251819,0.104304 0.369119,0.287438 0.369119,0.576279 0,0.328656 -0.268404,0.602725 -0.590264,0.602725 -0.168079,0 -0.274183,-0.04716 -0.408645,-0.18162 z M 25.92013,51.713309 c 0.380355,-0.165113 0.850037,-0.631716 1.016846,-1.010183 0.21467,-0.48706 0.205175,-1.140923 -0.02335,-1.608009 -0.319806,-0.65366 -0.907562,-1.046903 -1.635841,-1.094474 -0.655242,-0.0428 -1.012901,0.09494 -1.493357,0.575088 -0.428075,0.427809 -0.580585,0.79008 -0.580585,1.379126 0,1.355364 1.463028,2.30249 2.716287,1.758452 z m -1.162134,-1.349664 c -0.258767,-0.235768 -0.29668,-0.487181 -0.114055,-0.75634 0.07937,-0.116976 0.222389,-0.238531 0.317832,-0.270131 0.603492,-0.199816 1.06026,0.563369 0.607911,1.015717 -0.243945,0.243945 -0.551277,0.248017 -0.811684,0.0107 z M 19.972924,38.170027 v -2.298925 h -1.087329 -1.087328 l 2.49e-4,2.034859 c 2.47e-4,1.926149 0.0069,2.045764 0.124658,2.23894 0.06844,0.112239 0.18716,0.229301 0.263834,0.260127 0.07667,0.03083 0.509875,0.05782 0.962669,0.05998 l 0.823247,0.004 z m 6.026908,2.268967 c 0,-0.0606 -3.56418,-4.353394 -3.685552,-4.438976 -0.07158,-0.05046 -0.334836,-0.100661 -0.612137,-0.116712 l -0.486557,-0.02817 v 2.306907 2.306909 h 2.392122 c 1.315669,0 2.392124,-0.01348 2.392124,-0.02996 z m -10.92328,9.940866 c -0.344227,-0.289648 -0.275397,-0.807712 0.133201,-1.002559 0.620497,-0.295894 1.155835,0.486923 0.667167,0.97559 -0.235369,0.23537 -0.54048,0.245651 -0.800368,0.02697 z m 3.733498,-5.788498 c -0.07572,-0.01634 -0.211459,-0.117397 -0.301637,-0.224566 -0.136698,-0.162458 -0.15835,-0.236662 -0.130228,-0.446324 0.02228,-0.166084 0.08895,-0.298972 0.196368,-0.391368 0.151354,-0.13019 0.220929,-0.139896 1.00275,-0.139896 h 0.840112 l 0.181619,0.18162 c 0.247929,0.247928 0.248073,0.549776 3.72e-4,0.826974 l -0.181224,0.202825 -0.735238,0.01022 c -0.404381,0.0057 -0.797194,-0.0031 -0.872917,-0.01949 z"
         id="path306"
         sodipodi:nodetypes="cscsscccssscsscssscccssscsscscccssscsssscccccccssscssscccssccscssscssscccssscsccsssssscssssssssssssscsssccccccccsccccsscccsccsssscsssscsccccc" /><path
         style="fill:#ffffff;fill-opacity:1;fill-rule:evenodd;stroke:none;stroke-width:0.710219;paint-order:stroke fill markers"
         d="m 95.134164,136.49225 0.294533,-5.62195 0.294533,-9.62194 1.92376,-1.71758 1.923755,-1.71757 h 8.885605 8.8856 l 2.00283,2.00282 2.00282,2.00283 v 9.77849 9.7785 h 3.82893 3.82893 V 125.17653 108.97722 H 90.716169 52.426877 v 10.01412 6.01412 c -0.08391,2.37265 -3.961414,2.4238 -4.12346,-0.18793 v -6.80878 -10.80877 l 4.624723,-5.14931 c 5.734434,-6.384891 9.653043,-10.014864 11.617461,-10.761734 0.907519,-0.34504 14.021466,-0.572767 32.983178,-0.572767 H 129.00546 V 84.00577 c 0,-6.657383 -0.0116,-6.713308 -1.46521,-7.078146 -0.80587,-0.202262 -1.83889,-0.959966 -2.29561,-1.683793 -0.99105,-1.570662 -6.84237,-25.101189 -6.84237,-27.51594 0,-4.324523 1.91793,-5.315137 10.29063,-5.315137 6.15614,0 6.22218,-0.0148 5.91313,-1.325398 -0.1719,-0.728969 -1.50235,-6.17609 -2.95656,-12.104713 -1.4542,-5.928623 -2.64401,-11.581958 -2.64401,-12.562966 0,-1.185983 0.57697,-2.360624 1.72189,-3.505537 l 1.72188,-1.721885 h 12.12117 12.12116 V 8.2469245 5.3015943 h -1.9896 c -2.23446,0 -3.52025,-1.1281133 -2.95744,-2.5947703 0.32358,-0.8432541 1.27187,-0.9542021 6.93168,-0.8109956 l 6.55682,0.1659027 v 1.4726651 c 0,1.2765333 -0.2942,1.4970141 -2.209,1.6554907 l -2.20899,0.1828256 v 2.9097709 2.9097716 h 11.40734 c 16.80479,0 16.72238,-0.122724 12.1821,18.140699 -1.63468,6.575528 -2.97213,12.208472 -2.97213,12.517653 0,0.322987 2.77602,0.562147 6.52504,0.562147 6.42646,0 6.55105,0.02601 8.24692,1.721886 0.94704,0.947036 1.72189,2.266359 1.72189,2.931827 0,1.502778 -5.66102,25.092785 -6.54685,27.281395 -0.35579,0.879016 -1.41401,1.937774 -2.35161,2.352794 l -1.70473,0.754588 v 15.688861 c 0,13.167315 -0.14081,15.805715 -0.8761,16.415955 -0.48185,0.3999 -1.27281,0.57486 -1.75769,0.38879 -0.74751,-0.28684 -0.90544,-2.78302 -1.03837,-16.41248 L 183.49407,77.462183 158.3115,77.30859 133.12892,77.155003 v 32.131027 32.13103 l 6.03793,-0.16787 6.03793,-0.16788 0.29453,-10.21403 0.29453,-10.21404 1.65278,-1.42001 c 1.58212,-1.35931 2.01779,-1.42002 10.19064,-1.42002 8.93973,0 11.29884,0.52924 12.37524,2.77627 0.27734,0.57896 0.64081,5.42647 0.80772,10.77225 l 0.30346,9.71958 5.3016,0.17366 c 7.54174,0.24702 7.36332,0.56728 7.36332,-13.21686 0,-9.14248 0.14031,-10.90479 0.8911,-11.19289 0.49011,-0.18807 1.28535,-0.0147 1.7672,0.38515 1.28413,1.06573 1.2806,21.65456 -0.004,24.13897 -1.93251,3.73706 0.55495,3.5409 -44.90346,3.5409 -22.76895,0 -39.39808,0.21207 -39.39808,0.47126 -1.34903,-1.0055 -6.226557,-8.16852 -7.007196,-8.88925 z m 22.547996,-4.18262 c 0.21266,-11.40931 0.57315,-10.96203 -8.83497,-10.96203 -3.85892,0 -7.52895,0.27441 -8.15562,0.60979 -1.053578,0.56386 -1.139411,1.3194 -1.139411,10.02947 v 9.41967 l 8.983261,-0.1626 8.98325,-0.16262 z m 49.61259,-0.0222 c 0,-7.4768 -0.16415,-9.25259 -0.92567,-10.01412 -0.73862,-0.73863 -2.35341,-0.92568 -7.99112,-0.92568 -3.88599,0 -7.57817,0.27441 -8.20485,0.60979 -1.05345,0.5638 -1.1394,1.31922 -1.1394,10.01412 v 9.40434 h 9.13052 9.13052 z M 129.00546,99.831866 v -5.61096 l -31.887999,0.162099 -31.888001,0.162093 -4.634093,4.94283 c -2.548752,2.718552 -4.634094,5.170542 -4.634094,5.448862 0,0.27831 16.434942,0.50603 36.522094,0.50603 h 36.522093 z m 59.65696,-29.733008 c 0.57468,-1.781925 2.08258,-7.613679 3.35088,-12.959453 2.124,-8.952455 2.22879,-9.778765 1.3277,-10.469345 -0.77214,-0.591764 -8.32617,-0.715894 -35.84798,-0.589066 -19.17832,0.08838 -35.06526,0.356409 -35.30433,0.595622 -0.36977,0.370014 5.29728,25.23752 6.0437,26.520264 0.14314,0.245976 13.56334,0.378516 29.82269,0.294533 l 29.56245,-0.152692 z M 177.85734,40.203757 c 3.27272,-12.173343 5.71439,-23.548121 5.24754,-24.446241 -0.49721,-0.956512 -2.29239,-1.030865 -24.88925,-1.030865 -20.65538,0 -24.462,0.130866 -25.06864,0.861826 -0.57263,0.689976 -0.0878,3.449398 2.43141,13.838387 l 3.14665,12.976559 19.26921,0.0047 19.2692,0.0047 0.59388,-2.208997 z"
         id="path1163"
         transform="scale(0.26458333)"
         sodipodi:nodetypes="ccccccccccccccccccccccssscssssssssscccccssscsscccsssssssscsssscccccccccsssscsssccsccsssscccsssssscccsccccsssccssssssscssssssccccs" /><path
         style="fill:#ffffff;fill-opacity:1;fill-rule:evenodd;stroke:#3ace3a;stroke-width:0.576887;paint-order:stroke fill markers"
         d="m 145.81631,86.566275 c -0.96707,-0.563268 -1.09599,-1.904019 -0.26316,-2.736849 0.41627,-0.416279 3.89851,-0.574174 12.66284,-0.574174 11.26138,0 12.12101,0.06043 12.56123,0.882981 0.34013,0.635549 0.27021,1.171872 -0.24954,1.913914 -0.70603,1.008008 -0.97949,1.030609 -12.29806,1.016382 -6.96887,-0.0088 -11.90922,-0.20865 -12.41331,-0.502254 z"
         id="path1165"
         transform="scale(0.26458333)" /><path
         style="fill:#ffffff;fill-opacity:1;fill-rule:evenodd;stroke:none;stroke-width:0.576887;paint-order:stroke fill markers"
         d="m 137.41901,66.41281 c -0.79553,-0.795533 -0.79553,-12.410472 0,-13.206006 0.42889,-0.428885 5.81243,-0.574174 21.27546,-0.574174 19.97705,0 20.71861,0.03238 21.1966,0.925501 0.71155,1.329556 0.64529,12.130523 -0.0789,12.854679 -0.82582,0.825827 -41.56736,0.825827 -42.39319,0 z m 38.66106,-6.369659 v -3.594484 l -17.58408,0.125515 -17.58408,0.125515 -0.14547,2.817295 c -0.08,1.549512 -0.0329,3.110548 0.1046,3.468969 0.20471,0.533457 3.42094,0.651674 17.72955,0.651674 h 17.47948 z"
         id="path1167"
         transform="scale(0.26458333)" /><path
         style="fill:#ffffff;fill-opacity:1;fill-rule:evenodd;stroke:none;stroke-width:0.576887;paint-order:stroke fill markers"
         d="m 150.60109,30.584296 c -1.70322,-0.992035 -0.73186,-3.789502 1.31582,-3.789502 2.18386,0 2.88816,2.301787 1.08973,3.561456 -1.23669,0.866211 -1.29964,0.872179 -2.40555,0.228046 z"
         id="path1169"
         transform="scale(0.26458333)" /><path
         style="fill:#ffffff;fill-opacity:1;fill-rule:evenodd;stroke:none;stroke-width:0.576887;paint-order:stroke fill markers"
         d="m 162.51759,30.226087 c -1.41612,-1.5648 -0.67564,-3.431293 1.36128,-3.431293 2.10183,0 3.02041,2.851541 1.22765,3.810993 -1.28106,0.685606 -1.67745,0.627471 -2.58893,-0.3797 z"
         id="path1171"
         transform="scale(0.26458333)" /><path
         style="fill:#ffffff;fill-opacity:1;fill-rule:evenodd;stroke:none;stroke-width:0.576887;paint-order:stroke fill markers"
         d="m 68.996594,57.321719 c -0.820488,-0.820487 -0.709059,-2.033121 0.263163,-2.863889 0.460535,-0.393529 3.851751,-2.619579 7.536035,-4.946777 3.684285,-2.327198 8.463696,-5.375978 10.620915,-6.775066 4.433194,-2.875196 6.177336,-3.21915 6.655857,-1.312568 0.169961,0.677175 0.120234,1.412304 -0.110503,1.633618 -0.94617,0.907531 -23.325025,14.838856 -23.836683,14.838856 -0.305036,0 -0.812989,-0.258378 -1.128784,-0.574174 z"
         id="path1173"
         transform="scale(0.26458333)" /><path
         style="fill:#ffffff;fill-opacity:1;fill-rule:evenodd;stroke:none;stroke-width:0.576887;paint-order:stroke fill markers"
         d="m 61.546176,75.353698 c -1.698681,-1.698682 -1.222354,-2.253396 5.354739,-6.235943 4.332382,-2.623333 5.577305,-3.178444 6.22022,-2.773593 1.026796,0.646584 1.282084,1.931396 0.557288,2.804722 -0.58816,0.708689 -9.221564,6.166506 -10.577192,6.686629 -0.431724,0.165643 -1.121233,-0.04799 -1.555055,-0.481815 z"
         id="path1175"
         transform="scale(0.26458333)" /><path
         style="fill:#ffffff;fill-opacity:1;fill-rule:evenodd;stroke:none;stroke-width:0.576887;paint-order:stroke fill markers"
         d="m 61.266377,120.61606 c -0.645308,-1.20577 -0.638015,-1.26817 0.252282,-2.15846 0.642295,-0.6423 2.447135,-0.7519 12.381853,-0.7519 12.517058,0 12.96117,0.0875 12.621199,2.48568 l -0.156349,1.10291 -12.299686,0.12765 c -11.776423,0.12223 -12.32094,0.0879 -12.799299,-0.80588 z"
         id="path1177"
         transform="scale(0.26458333)" /><path
         style="fill:#ffffff;fill-opacity:1;fill-rule:evenodd;stroke:none;stroke-width:0.576887;paint-order:stroke fill markers"
         d="m 61.484482,39.525999 c -2.80925,-0.883876 -3.958038,-1.580501 -7.504034,-4.550448 -4.101293,-3.435035 -4.268145,-4.562869 -1.001217,-6.767692 2.190805,-1.478556 2.371556,-1.515997 5.861361,-1.21412 1.980465,0.171315 4.246793,0.413433 5.036282,0.538041 1.232081,0.194463 1.876036,-0.18066 4.545545,-2.647924 2.907892,-2.687585 3.053091,-2.918663 2.233154,-3.553982 -0.899679,-0.697105 -8.118698,-7.190827 -9.255406,-8.325513 -1.609532,-1.606666 -0.654153,-2.611801 4.628653,-4.8697114 l 4.491848,-1.9198489 5.290715,1.9962648 c 2.909894,1.0979458 6.745168,2.5946035 8.522832,3.3259065 l 3.232117,1.329641 7.855048,-5.2161042 c 12.20344,-8.10362919 12.78042,-8.32859476 17.15907,-6.69033125 3.11151,1.16416385 7.51764,5.06735145 7.51764,6.65952535 0,1.0434075 -0.0966,1.1135242 -11.34234,8.2356591 -3.47507,2.200822 -9.288586,5.882598 -12.918915,8.181724 -3.630331,2.299127 -10.357283,6.555882 -14.948781,9.459454 -4.591498,2.903574 -9.421344,5.59792 -10.73299,5.987437 -2.855032,0.847854 -6.060012,0.863386 -8.670582,0.04202 z m 9.500442,-4.560709 c 1.462824,-0.76949 5.306535,-3.098414 8.54158,-5.175386 3.235045,-2.076973 12.503363,-7.959128 20.596266,-13.071457 8.09289,-5.112329 14.64341,-9.5120083 14.5567,-9.7770653 -0.35715,-1.0917405 -3.4037,-2.6350756 -5.20165,-2.6350756 -2.02893,0 -2.40355,0.2127622 -14.132881,8.0265229 -5.775301,3.84735 -7.021157,4.49459 -8.198335,4.259155 -0.763467,-0.152694 -4.676845,-1.579887 -8.696394,-3.171541 -4.01955,-1.591655 -7.589886,-2.893917 -7.93408,-2.893917 -0.805468,0 -4.021535,1.527925 -3.96327,1.882914 0.02439,0.148632 2.189391,2.179738 4.8111,4.513568 3.810605,3.392179 4.737474,4.46832 4.620811,5.364994 -0.09225,0.709011 -1.818211,2.624382 -4.691481,5.206321 -5.090469,4.57433 -5.138435,4.589051 -11.519195,3.535291 -1.831587,-0.30248 -3.487928,-0.38863 -3.680757,-0.191443 -0.192829,0.197187 0.510663,1.117463 1.563316,2.045058 4.307203,3.795497 8.751241,4.489718 13.32827,2.082061 z"
         id="path1179"
         transform="scale(0.26458333)" /></g></g></svg>
